<?xml version="1.0" standalone="no"?>
<!DOCTYPE svg PUBLIC "-//W3C//DTD SVG 1.1//EN" "http://www.w3.org/Graphics/SVG/1.1/DTD/svg11.dtd" >
<svg xmlns="http://www.w3.org/2000/svg" xmlns:xlink="http://www.w3.org/1999/xlink" version="1.1">
<metadata>
Created by FontForge 20170731 at Wed Apr 28 01:58:33 2021
 By Aleksey,,,
Copyright (c) 2016 by Alexander Nedelev &#38; Kiril Semkov. All rights reserved.
</metadata>
<defs>
<font id="Ossem-Rounded" horiz-adv-x="1081" >
  <font-face 
    font-family="Ossem Rounded"
    font-weight="400"
    font-stretch="normal"
    units-per-em="2048"
    panose-1="0 0 5 0 0 0 0 0 0 0"
    ascent="1434"
    descent="-614"
    x-height="1022"
    cap-height="1364"
    bbox="-797.481 -614 1999 1901"
    underline-thickness="102"
    underline-position="-307"
    unicode-range="U+0020-2212"
  />
<missing-glyph horiz-adv-x="1024" 
d="M840 1434v-2048h-650v2048h650zM682 1296h-338v-67h133v-76h-135v-68h340v68h-135v76h135v67zM547 1032h-205v-213h340v70h-135v143zM477 963v-74h-67v74h67zM682 764h-340v-68h135v-75h-135v-68h205v143h135v68zM682 641h-68v-135h-272v-70h340v205zM682 391h-205v-115
h70v48h67v-97h-204v164h-68v-231h340v231zM682 37h-340v-232h340v232zM614 -31v-96h-204v96h204zM682 -242h-340v-67h143l-143 -97v-67h340v67h-209l143 97h66v67z" />
    <glyph glyph-name=".notdef" horiz-adv-x="1024" 
d="M840 1434v-2048h-650v2048h650zM682 1296h-338v-67h133v-76h-135v-68h340v68h-135v76h135v67zM547 1032h-205v-213h340v70h-135v143zM477 963v-74h-67v74h67zM682 764h-340v-68h135v-75h-135v-68h205v143h135v68zM682 641h-68v-135h-272v-70h340v205zM682 391h-205v-115
h70v48h67v-97h-204v164h-68v-231h340v231zM682 37h-340v-232h340v232zM614 -31v-96h-204v96h204zM682 -242h-340v-67h143l-143 -97v-67h340v67h-209l143 97h66v67z" />
    <glyph glyph-name=".null" horiz-adv-x="0" 
 />
    <glyph glyph-name="nonmarkingreturn" horiz-adv-x="682" 
 />
    <glyph glyph-name="space" unicode=" " horiz-adv-x="419" 
 />
    <glyph glyph-name="exclam" unicode="!" horiz-adv-x="575" 
d="M283 1384q38 0 65 -28.5t27 -65.5l-17 -846q0 -31 -22 -52t-53 -21t-53.5 21.5t-22.5 51.5l-17 846q0 37 27.5 65.5t65.5 28.5zM289 215q54 0 81 -30.5t27 -78.5q0 -51 -28.5 -81.5t-81.5 -30.5t-83 30.5t-30 79.5t30.5 80t84.5 31z" />
    <glyph glyph-name="quotedbl" unicode="&#x22;" horiz-adv-x="796" 
d="M195 1364q-2 31 21.5 55.5t55.5 24.5q31 0 54.5 -24.5t21.5 -55.5l-14 -309q-2 -26 -19.5 -44t-42.5 -18q-26 0 -43.5 17.5t-19.5 44.5zM449 1364q-1 32 22 56t55 24t54.5 -24t21.5 -58l-16 -309q-2 -25 -19.5 -42.5t-42.5 -17.5q-24 0 -41.5 17.5t-19.5 42.5z" />
    <glyph glyph-name="numbersign" unicode="#" horiz-adv-x="1380" 
d="M1225 1024q25 0 43 -17.5t18 -43.5t-18 -44t-43 -18h-160l-66 -446h129q25 0 43.5 -19t18.5 -45q0 -25 -18.5 -43t-43.5 -18h-147l-41 -267q-4 -31 -28.5 -52t-55.5 -21q-39 0 -65.5 30t-20.5 68l37 242h-334l-41 -267q-4 -31 -28.5 -52t-55.5 -21q-39 0 -65.5 30
t-20.5 68l37 242h-143q-25 0 -43.5 18t-18.5 43q0 26 18.5 45t43.5 19h161l68 446h-135q-25 0 -43.5 18t-18.5 44t18.5 43.5t43.5 17.5h153l41 276q5 31 29 52.5t55 21.5q38 0 65 -30.5t21 -67.5l-36 -252h333l41 276q5 31 29 52.5t55 21.5q38 0 65 -30.5t21 -67.5l-37 -252
h140zM825 455l68 446h-336l-65 -446h333z" />
    <glyph glyph-name="dollar" unicode="$" horiz-adv-x="1120" 
d="M1030 369q0 -92 -30 -163t-85 -116t-125 -71t-157 -35l6 -76q3 -41 -18.5 -69.5t-55.5 -28.5t-55 24.5t-18 59.5l6 86q-99 5 -176 27.5t-164 60.5q-49 22 -49 77q0 35 24.5 59.5t59.5 24.5q51 -16 92 -32q135 -62 266 -62q127 0 200.5 55.5t73.5 165.5q0 43 -13.5 77
t-35 58t-60.5 46t-78 37.5t-99 35.5q-59 19 -95 32.5t-86.5 36t-81.5 43.5t-66 52.5t-54 67t-32 84t-13 104.5q0 165 103.5 252t283.5 100l-6 74q-3 41 18 69.5t55 28.5t56.5 -25.5t19.5 -60.5l-8 -86q129 -12 264 -67q24 -9 39.5 -30.5t15.5 -47.5q0 -35 -25.5 -60.5
t-60.5 -25.5q-24 0 -37 8q-148 70 -270 70q-109 0 -176.5 -47t-67.5 -142q0 -56 25.5 -100t74.5 -76t93 -51.5t108 -40.5q152 -52 199 -74q147 -69 192 -188q23 -62 23 -141z" />
    <glyph glyph-name="percent" unicode="%" horiz-adv-x="1667" 
d="M352 -27q26 -19 56 -12t49 35l880 1294q19 28 13.5 58t-31.5 49t-56 12t-49 -35l-882 -1294q-19 -28 -13.5 -58t33.5 -49zM438 1360q152 0 235 -98.5t83 -245.5t-83 -245.5t-235 -98.5q-155 0 -237 98.5t-82 245.5t82 245.5t237 98.5zM438 786q78 0 121 66t43 164
q0 97 -43 163t-121 66q-82 0 -126 -66t-44 -163q0 -98 44 -164t126 -66zM1227 686q153 0 237 -97.5t84 -244.5q0 -146 -84 -245t-237 -99t-236.5 99t-83.5 245q0 147 83.5 244.5t236.5 97.5zM1227 113q79 0 122.5 66.5t43.5 164.5q0 101 -43 167.5t-123 66.5t-123 -66.5
t-43 -167.5q0 -98 43.5 -164.5t122.5 -66.5z" />
    <glyph glyph-name="ampersand" unicode="&#x26;" horiz-adv-x="1415" 
d="M1241 129q47 -31 47 -70q0 -32 -19.5 -52.5t-54.5 -20.5q-29 0 -57 16q-27 16 -59 39t-70.5 54t-50.5 40q-179 -158 -381 -158q-218 0 -339.5 111.5t-121.5 288.5q0 224 201 360q-113 167 -113 328q0 157 91 239t235 82q139 0 228 -73t89 -197q0 -53 -18.5 -102.5
t-49 -89t-76 -78t-92.5 -68.5t-106 -61q130 -159 441 -387q76 118 131 241q17 38 47 53.5t59 4.5q30 -12 40.5 -44.5t-3.5 -62.5q-7 -17 -15.5 -33.5t-15.5 -30.5t-16.5 -31.5t-15 -28t-16.5 -28.5t-15.5 -25.5t-16.5 -27t-15.5 -24.5t-16.5 -25.5t-15 -23.5
q59 -50 160 -115zM553 1274q-84 0 -130 -51.5t-46 -157.5q0 -130 80 -258q128 81 191 154t63 159q0 71 -39.5 112.5t-118.5 41.5zM582 113q168 0 286 106q-304 241 -448 412q-70 -63 -93.5 -116.5t-23.5 -119.5q0 -133 69 -207.5t210 -74.5z" />
    <glyph glyph-name="quotesingle" unicode="'" horiz-adv-x="542" 
d="M195 1364q-2 31 21.5 55.5t55.5 24.5q31 0 54.5 -24.5t21.5 -55.5l-14 -309q-2 -26 -19.5 -44t-42.5 -18q-26 0 -43.5 17.5t-19.5 44.5z" />
    <glyph glyph-name="parenleft" unicode="(" horiz-adv-x="589" 
d="M408 1528q31 0 52 -22t21 -54q-17 -49 -35 -88q-70 -146 -106.5 -333t-36.5 -347q0 -181 43 -386t127 -353q10 -20 10 -37q0 -31 -22 -53.5t-53 -22.5q-42 0 -64 33q-103 146 -172.5 383t-69.5 436q0 195 70 430t174 383q21 31 62 31z" />
    <glyph glyph-name="parenright" unicode=")" horiz-adv-x="589" 
d="M117 1415q-8 16 -8 37q0 32 21 54t52 22q41 0 62 -31q104 -148 173.5 -383t69.5 -430q0 -199 -69 -436t-172 -383q-22 -33 -64 -33q-31 0 -53.5 22.5t-22.5 53.5q0 15 11 37q84 148 127 353t43 386q0 176 -43.5 380.5t-126.5 350.5z" />
    <glyph glyph-name="asterisk" unicode="*" horiz-adv-x="890" 
d="M727 1262q29 0 49.5 -21.5t20.5 -50.5q0 -26 -16.5 -45.5t-41.5 -24.5l-192 -37l129 -172q16 -24 16 -47q0 -31 -23 -53.5t-55 -22.5q-43 0 -63 39l-105 174l-104 -176q-19 -37 -66 -37q-31 0 -53 22.5t-22 53.5q0 21 16 45l127 170l-194 41q-24 5 -40 24.5t-16 45.5
q0 29 20.5 49.5t49.5 20.5q7 0 22 -5l193 -63l-10 184q-2 33 20.5 57.5t54.5 24.5q33 0 56.5 -24.5t21.5 -57.5l-10 -182l193 63q15 5 22 5z" />
    <glyph glyph-name="plus" unicode="+" horiz-adv-x="940" 
d="M760 756q25 0 42 -16.5t17 -39.5q0 -25 -17 -41t-42 -16h-223v-242q0 -29 -19 -49t-47 -20t-48 20t-20 49v242h-223q-25 0 -42 16t-17 41q0 24 17 40t42 16h223v241q0 29 19.5 49.5t48.5 20.5q28 0 47 -20.5t19 -49.5v-241h223z" />
    <glyph glyph-name="comma" unicode="," horiz-adv-x="493" 
d="M215 223q64 0 96.5 -43t32.5 -110q0 -76 -37.5 -157t-101.5 -132q-10 -10 -27 -10q-19 0 -31 12t-12 31q0 16 12 28q71 71 86 140l5 20q-15 -6 -33 -6q-47 0 -77 29.5t-30 80.5q0 52 30.5 84.5t86.5 32.5z" />
    <glyph glyph-name="hyphen" unicode="-" horiz-adv-x="835" 
d="M115 590q0 29 21 49t50 20h463q30 0 51 -20t21 -49q0 -30 -21 -51t-51 -21h-463q-30 0 -50.5 21t-20.5 51z" />
    <glyph glyph-name="period" unicode="." horiz-adv-x="544" 
d="M274 221q58 0 86.5 -32t28.5 -87q0 -49 -31.5 -81.5t-87.5 -32.5q-54 0 -85 32.5t-31 81.5q0 54 31.5 86.5t88.5 32.5z" />
    <glyph glyph-name="slash" unicode="/" horiz-adv-x="835" 
d="M213 -260q-7 -24 -29 -39.5t-49 -15.5q-34 0 -58 24t-24 58q0 2 6 26l564 1628q7 25 29 40.5t48 15.5q34 0 58 -24t24 -58q0 -3 -6 -27z" />
    <glyph glyph-name="zero" unicode="0" horiz-adv-x="1202" 
d="M602 1384q244 0 366 -183t122 -519q0 -338 -122 -521.5t-366 -183.5t-366.5 184t-122.5 521q0 336 122.5 519t366.5 183zM602 133q153 0 218 135.5t65 415.5q0 276 -65 410.5t-218 134.5t-219 -135t-66 -410q0 -280 65.5 -415.5t219.5 -135.5z" />
    <glyph glyph-name="one" unicode="1" horiz-adv-x="747" 
d="M408 1362q21 12 49 12q47 0 79.5 -33t32.5 -79v-1180q0 -37 -26.5 -64.5t-63.5 -27.5q-38 0 -65 27.5t-27 64.5v1108l-215 -117q-13 -8 -37 -8q-31 0 -52.5 22.5t-21.5 53.5q0 47 41 67z" />
    <glyph glyph-name="two" unicode="2" horiz-adv-x="1058" 
d="M874 154q31 0 54.5 -23t23.5 -55q0 -31 -23.5 -53.5t-54.5 -22.5h-663q-45 0 -77 31t-32 75q0 48 35 80q53 49 130 120.5t115 107.5l95 90t83.5 82t64.5 69.5t54.5 67t37.5 59.5t29 62t14 59.5t6 65.5q0 133 -70.5 195.5t-183.5 62.5q-144 0 -301 -94q-22 -11 -41 -11
q-35 0 -59.5 24t-24.5 58q0 50 43 74q192 102 375 102q206 0 330 -108t124 -303q0 -63 -11 -118t-46.5 -115t-61 -98.5t-97.5 -111t-110 -107.5t-141 -129q-24 -22 -37.5 -34t-35 -31.5t-39.5 -36.5q-19 -18 -43 -36q14 2 47 2h491z" />
    <glyph glyph-name="three" unicode="3" horiz-adv-x="1040" 
d="M651 705q52 -9 100.5 -33t91.5 -63t69 -101.5t26 -138.5q0 -81 -29.5 -149.5t-88 -123t-156.5 -85.5t-226 -31q-151 0 -299 59q-24 9 -39.5 30.5t-15.5 47.5q0 35 25.5 60.5t60.5 25.5q24 0 37 -8q121 -62 246 -62q142 0 210 64.5t68 177.5q0 73 -26.5 123t-75.5 74.5
t-106.5 33t-131.5 4.5q-46 -1 -75 23.5t-29 64.5q0 44 32.5 64t83.5 18q134 -5 216.5 58t82.5 182q0 102 -62 156.5t-175 54.5q-123 0 -258 -64q-15 -6 -33 -6q-34 0 -57 23t-23 57q0 51 47 72q153 69 328 69q198 0 314 -101.5t116 -250.5q0 -102 -53.5 -183.5
t-130.5 -121.5q-31 -16 -64 -20z" />
    <glyph glyph-name="four" unicode="4" horiz-adv-x="1083" 
d="M952 430q31 0 54.5 -22.5t23.5 -53.5q0 -32 -23.5 -55t-54.5 -23h-104v-196q0 -37 -26.5 -63.5t-63.5 -26.5t-63.5 26.5t-26.5 63.5v196h-506q-43 0 -75 31t-32 74q0 29 19 59l581 885q29 47 88 47q43 0 74 -31.5t31 -74.5v-836h104zM668 430v594q0 41 2 57
q-3 -7 -11.5 -20.5t-11.5 -18.5l-395 -612h416z" />
    <glyph glyph-name="five" unicode="5" horiz-adv-x="1085" 
d="M561 854q112 0 198 -35.5t136 -96t75 -135t25 -159.5q0 -211 -128 -329.5t-363 -118.5q-185 0 -346 81q-45 23 -45 72q0 33 23.5 56.5t56.5 23.5q23 0 36 -8q143 -76 277 -76q130 0 213.5 77t83.5 218q0 140 -63 215.5t-179 75.5q-137 0 -205 -94q-29 -43 -86 -43
q-43 0 -73.5 30.5t-30.5 73.5v584q0 100 100 100h576q31 0 54.5 -22.5t23.5 -53.5q0 -32 -23.5 -55t-54.5 -23h-496v-426q81 68 215 68z" />
    <glyph glyph-name="six" unicode="6" horiz-adv-x="1148" 
d="M621 864q63 0 123.5 -15t117 -49t98.5 -83.5t67.5 -123t25.5 -163.5q0 -204 -122 -328.5t-333 -124.5q-84 0 -154.5 21t-133 70t-106 125t-68.5 191.5t-25 262.5q0 96 10.5 182t34.5 171.5t66.5 153.5t102 121t146 82t193.5 29q144 0 278 -38q27 -8 43 -29.5t16 -50.5
q0 -34 -23.5 -58t-57.5 -24q-11 0 -27 4q-124 43 -238 43q-80 0 -140.5 -26t-99 -70.5t-63.5 -111.5t-36.5 -140t-14.5 -166q119 145 320 145zM594 119q52 0 98 16.5t84.5 50.5t61 94t22.5 140q0 139 -68 221t-198 82q-129 0 -205 -80.5t-76 -216.5q0 -139 78.5 -223
t202.5 -84z" />
    <glyph glyph-name="seven" unicode="7" horiz-adv-x="960" 
d="M55 1286q0 31 23.5 53.5t54.5 22.5h658q44 0 76 -32.5t32 -76.5q0 -23 -10 -43l-506 -1165q-11 -24 -34 -39.5t-50 -15.5q-38 0 -65 27t-27 65q0 13 8 37l481 1089h-563q-31 0 -54.5 23t-23.5 55z" />
    <glyph glyph-name="eight" unicode="8" horiz-adv-x="1124" 
d="M768 715q107 -20 183.5 -113.5t76.5 -232.5q0 -80 -29 -149.5t-85.5 -123t-146.5 -84t-204 -30.5q-115 0 -206 31t-147 85t-85 123t-29 148q0 119 58 205t147 124q28 11 55 15q-206 91 -206 307q0 73 24 137.5t72.5 116.5t129 82t185.5 30t186.5 -30.5t130 -82.5t73 -116
t24.5 -137q0 -170 -129 -262q-41 -28 -78 -43zM561 1247q-116 0 -179 -67t-63 -168q0 -97 63.5 -161.5t178.5 -64.5q116 0 180 64.5t64 161.5q0 101 -64 168t-180 67zM561 121q130 0 199 74.5t69 195.5q0 122 -69 191t-199 69t-198 -69t-68 -191t68.5 -196t197.5 -74z" />
    <glyph glyph-name="nine" unicode="9" horiz-adv-x="1148" 
d="M549 1386q84 0 155.5 -21t134 -70t106 -124t68.5 -189t25 -259q0 -98 -10.5 -185t-34.5 -173.5t-66 -155t-100.5 -121.5t-143 -82t-189.5 -29q-152 0 -285 39q-27 8 -44.5 29.5t-17.5 50.5q0 34 24 59t58 25q11 0 27 -4q124 -43 233 -43q82 0 143.5 26t100.5 70
t64.5 111.5t36.5 140t14 164.5q-56 -68 -137.5 -106.5t-180.5 -38.5q-82 0 -156.5 25t-138 75t-101.5 136.5t-38 197.5q0 203 122 327.5t331 124.5zM559 641q125 0 201 83.5t76 221.5q0 139 -78 219t-211 80q-49 0 -93 -16.5t-82 -50t-60.5 -94t-22.5 -140.5q0 -139 68 -221
t202 -82z" />
    <glyph glyph-name="colon" unicode=":" horiz-adv-x="557" 
d="M281 995q55 0 81.5 -30t26.5 -82q0 -47 -30 -78t-83 -31q-51 0 -80.5 31.5t-29.5 77.5q0 51 30.5 81.5t84.5 30.5zM281 215q55 0 81.5 -30.5t26.5 -82.5q0 -46 -30 -77t-83 -31q-51 0 -80.5 31t-29.5 77q0 51 30.5 82t84.5 31z" />
    <glyph glyph-name="semicolon" unicode=";" horiz-adv-x="567" 
d="M283 745q-54 0 -85.5 33t-31.5 82q0 54 32 86.5t89 32.5q58 0 86 -32t28 -87q0 -50 -31 -82.5t-87 -32.5zM283 223q64 0 96.5 -43t32.5 -110q0 -76 -38 -157t-102 -132q-10 -10 -26 -10q-19 0 -31 12t-12 31q0 16 12 28q71 71 86 140q1 4 2 10.5t2 9.5q-15 -6 -33 -6
q-47 0 -76.5 29.5t-29.5 80.5q0 52 30.5 84.5t86.5 32.5z" />
    <glyph glyph-name="less" unicode="&#x3c;" horiz-adv-x="1054" 
d="M883 311q34 70 -62 113l-545 233l547 234q94 42 60 115q-34 70 -125 26l-557 -266q-74 -36 -74 -109q0 -72 74 -108l557 -266q90 -44 125 28z" />
    <glyph glyph-name="equal" unicode="=" horiz-adv-x="1132" 
d="M856 807q25 0 42 16t17 41q0 23 -17 39.5t-42 16.5h-580q-25 0 -42 -16t-17 -40q0 -25 17 -41t42 -16h580zM856 479q25 0 42 16.5t17 41.5q0 23 -17 39t-42 16h-580q-25 0 -42 -15.5t-17 -39.5q0 -25 17 -41.5t42 -16.5h580z" />
    <glyph glyph-name="greater" unicode="&#x3e;" horiz-adv-x="1054" 
d="M176 311q35 -72 125 -28l557 266q74 36 74 108q0 73 -74 109l-557 266q-91 44 -125 -26q-34 -73 60 -115l546 -234l-544 -233q-96 -43 -62 -113z" />
    <glyph glyph-name="question" unicode="?" horiz-adv-x="956" 
d="M467 1249q-122 0 -250 -86q-18 -12 -43 -12q-32 0 -55 23t-23 55q0 49 39 69q154 86 332 86q194 0 291.5 -91.5t97.5 -229.5q0 -28 -3.5 -53t-13.5 -47.5t-17 -39t-25.5 -36t-27 -29.5t-33 -28.5t-32.5 -24t-36.5 -24.5l-34.5 -23q-71 -48 -108 -99t-33 -131
q1 -38 -18 -72t-50 -53q-35 -22 -68 -8t-41 54q-7 54 -4 94q2 34 10 64.5t16 53t27 47.5t29.5 39t37.5 36t37 30t41 30t38 27q67 46 101 90t34 109q0 82 -57.5 131t-157.5 49zM408 215q54 0 81 -30.5t27 -78.5q0 -51 -28.5 -81.5t-81.5 -30.5t-83 30.5t-30 79.5t30.5 80
t84.5 31z" />
    <glyph glyph-name="at" unicode="@" horiz-adv-x="1966" 
d="M1378 59q-110 0 -159 53t-56 150q-43 -84 -121.5 -141.5t-181.5 -57.5q-69 0 -122 28.5t-82 74.5t-43.5 97t-14.5 104q0 45 3.5 88t15.5 105t32.5 115t59.5 108.5t90.5 94t130 63t174.5 24.5q110 0 201 -35q77 -32 61 -125l-70 -395q-20 -120 -2.5 -167.5t82.5 -47.5
q69 0 126.5 46.5t93 121t54.5 161.5t19 174q0 114 -34.5 204.5t-91.5 148t-135 95t-159.5 53t-171.5 15.5q-147 0 -271.5 -43t-214 -118.5t-152.5 -178.5t-93.5 -224t-30.5 -253q0 -131 31 -235.5t83 -173t124 -114.5t151 -65.5t168 -19.5q170 0 334 64q8 4 29 4
q32 0 56 -24t24 -56q0 -26 -15.5 -47t-39.5 -29q-168 -57 -379 -57q-121 0 -228 25t-202.5 82.5t-164.5 142.5t-109 212t-40 285q0 205 66.5 382.5t185.5 307t294 203.5t382 74q108 0 210.5 -19t206.5 -66t181 -118.5t125.5 -185.5t48.5 -258q0 -85 -15.5 -172.5
t-51.5 -174.5t-87.5 -154t-130.5 -109t-174 -42zM1214 813q-49 29 -137 29q-140 0 -225.5 -121t-85.5 -320q0 -48 6 -82.5t21 -64.5t44 -45.5t72 -15.5q102 0 160.5 85t89.5 248z" />
    <glyph glyph-name="A" unicode="A" horiz-adv-x="1292" 
d="M1186 117q4 -20 4 -31q0 -40 -28 -68t-68 -28q-32 0 -58 19t-35 48l-106 344h-510l-109 -348q-8 -28 -31.5 -45.5t-54.5 -17.5q-37 0 -63.5 26.5t-26.5 63.5q0 13 4 29l373 1140q18 55 64.5 90t105.5 35t105.5 -35t64.5 -90zM434 557h412l-195 629q-7 26 -10 39
q-3 -8 -12 -39z" />
    <glyph glyph-name="B" unicode="B" horiz-adv-x="1251" 
d="M848 741q147 -24 226 -124t79 -244q0 -175 -119 -274t-356 -99h-391q-101 0 -101 100v1164q0 100 101 100h375q93 0 165.5 -19t118.5 -50.5t76.5 -76t42.5 -92t12 -102.5q0 -118 -71.5 -196.5t-157.5 -86.5zM379 1202v-401h256q123 0 185.5 55t62.5 145q0 103 -54.5 152
t-177.5 49h-272zM635 162q153 0 231 55t78 184q0 53 -12.5 93.5t-43 74.5t-87.5 52t-139 18h-283v-477h256z" />
    <glyph glyph-name="C" unicode="C" horiz-adv-x="1187" 
d="M750 1384q162 0 288 -53q24 -9 39 -30t15 -48q0 -35 -24.5 -59.5t-59.5 -24.5q-19 0 -33 7q-123 51 -246 51q-90 0 -161.5 -30t-118 -81t-77.5 -121t-44 -146t-13 -161q0 -257 116 -405t312 -148q112 0 230 47q12 6 31 6q35 0 60.5 -25.5t25.5 -60.5q0 -27 -16.5 -48.5
t-43.5 -30.5q-125 -43 -291 -43q-160 0 -281 50t-196.5 143t-113 220t-37.5 287q0 76 8 145.5t29 141.5t52.5 132t82 114t115.5 91t155 58.5t197 21.5z" />
    <glyph glyph-name="D" unicode="D" horiz-adv-x="1331" 
d="M623 1364q126 0 227 -34t170.5 -94.5t116 -146.5t67.5 -187.5t21 -219.5q0 -148 -34.5 -269.5t-105 -215t-188.5 -145.5t-274 -52h-336q-101 0 -101 100v1164q0 100 101 100h336zM623 156q397 0 397 528q0 524 -397 524h-244v-1052h244z" />
    <glyph glyph-name="E" unicode="E" horiz-adv-x="1140" 
d="M971 166q34 0 59 -24.5t25 -59.5q0 -34 -25 -58t-59 -24h-684q-101 0 -101 100v1164q0 100 101 100h665q34 0 59 -24t25 -58q0 -35 -25 -59.5t-59 -24.5h-573v-432h463q34 0 58 -24t24 -58t-24 -58t-58 -24h-463v-436h592z" />
    <glyph glyph-name="F" unicode="F" horiz-adv-x="1054" 
d="M985 1282q0 -35 -25 -59.5t-59 -24.5h-522v-412h440q34 0 58 -23.5t24 -57.5t-24 -58t-58 -24h-440v-537q0 -40 -28 -68t-68 -28t-68.5 28t-28.5 68v1178q0 100 101 100h614q34 0 59 -24t25 -58z" />
    <glyph glyph-name="G" unicode="G" horiz-adv-x="1284" 
d="M1049 705q102 0 102 -103l-2 -420q0 -84 -68 -121q-150 -81 -350 -81q-290 0 -456 175t-166 509q0 116 20 218t68 195.5t119.5 160.5t182 106.5t249.5 39.5q173 0 323 -61q25 -11 40 -32.5t15 -47.5q0 -37 -25.5 -62.5t-62.5 -25.5q-24 0 -37 8q-132 66 -274 66
q-111 0 -192 -40t-128.5 -114.5t-69.5 -171t-22 -219.5q0 -262 100 -405.5t302 -143.5q142 0 260 53v361h-215q-32 0 -55 23t-23 55t23 55t55 23h287z" />
    <glyph glyph-name="H" unicode="H" horiz-adv-x="1368" 
d="M989 1278q0 40 28 68t68 28t68.5 -28t28.5 -68v-1190q0 -40 -28.5 -68t-68.5 -28t-68 28t-28 68v528h-610v-528q0 -40 -28 -68t-68 -28t-68.5 28t-28.5 68v1190q0 40 28.5 68t68.5 28t68 -28t28 -68v-496h610v496z" />
    <glyph glyph-name="I" unicode="I" horiz-adv-x="565" 
d="M379 86q0 -40 -28 -68t-68 -28t-68.5 28t-28.5 68v1192q0 40 28.5 68t68.5 28t68 -28t28 -68v-1192z" />
    <glyph glyph-name="J" unicode="J" horiz-adv-x="589" 
d="M403 -4q0 -294 -331 -379q-42 -11 -77.5 16.5t-35.5 71.5q0 30 19 54t47 32q104 30 145 72.5t41 128.5v1286q0 40 28 68t68 28t68 -28t28 -68v-1282z" />
    <glyph glyph-name="K" unicode="K" horiz-adv-x="1212" 
d="M1067 137q10 -20 10 -47q0 -41 -28.5 -70.5t-69.5 -29.5q-63 0 -90 55l-295 592l-215 2v-553q0 -40 -28 -68t-68 -28t-68.5 28t-28.5 68v1192q0 40 28.5 68t68.5 28t68 -28t28 -68v-473h213l287 520q24 49 79 49q38 0 65.5 -27t27.5 -65q0 -28 -13 -47l-286 -500z" />
    <glyph glyph-name="L" unicode="L" horiz-adv-x="1017" 
d="M848 0q49 0 74.5 22t25.5 62q0 82 -100 82h-455v1098q0 49 -25 74.5t-71 25.5t-71 -25.5t-25 -74.5v-1164q0 -100 100 -100h547z" />
    <glyph glyph-name="M" unicode="M" horiz-adv-x="1613" 
d="M1470 94q3 -41 -26 -72.5t-70 -31.5q-40 0 -68.5 27t-29.5 67l-25 502l-18 594l-74 -293l-211 -647q-14 -44 -52.5 -73.5t-84.5 -29.5q-48 0 -86.5 29.5t-52.5 73.5l-209 645l-84 305l-25 -604l-24 -508q-1 -37 -28 -62.5t-64 -25.5q-39 0 -68 29.5t-27 68.5l62 1126
q3 67 51.5 113.5t116.5 46.5q56 0 100 -33.5t59 -85.5l285 -923l287 934q14 48 54.5 78t92.5 30q60 0 104.5 -41.5t47.5 -101.5z" />
    <glyph glyph-name="N" unicode="N" horiz-adv-x="1357" 
d="M481 1284q-18 38 -53.5 59t-77.5 21q-70 0 -117 -47.5t-47 -118.5v-1108q0 -41 28 -69.5t69 -28.5t68.5 28.5t27.5 69.5v641l-21 412l523 -1061q19 -38 53.5 -60t75.5 -22q69 0 115 47.5t46 118.5v1110q0 41 -27.5 69.5t-68.5 28.5t-68.5 -28.5t-27.5 -69.5v-641l25 -410
z" />
    <glyph glyph-name="O" unicode="O" horiz-adv-x="1398" 
d="M700 1384q145 0 258.5 -52.5t185 -147.5t108 -222t36.5 -280t-36.5 -280t-108 -222t-185 -147.5t-258.5 -52.5t-258.5 52.5t-185 147.5t-108.5 222t-37 280t37 280t108.5 222t185 147.5t258.5 52.5zM700 135q100 0 175 41t119.5 116t66.5 172.5t22 217.5t-22 217.5
t-66.5 172.5t-119.5 116t-175 41q-80 0 -145 -27t-109 -75.5t-74 -117.5t-43.5 -150.5t-13.5 -176.5t13.5 -176.5t43.5 -150.5t74 -117.5t109 -75.5t145 -27z" />
    <glyph glyph-name="P" unicode="P" horiz-adv-x="1224" 
d="M672 1364q237 0 356 -111t119 -299q0 -62 -13 -117.5t-46 -110t-85.5 -93t-137 -62.5t-193.5 -24h-289v-459q0 -40 -28 -68t-68 -28t-68.5 28t-28.5 68v1176q0 100 101 100h381zM672 702q76 0 130.5 21t84 59t42.5 82t13 97q0 247 -270 247h-289v-506h289z" />
    <glyph glyph-name="Q" unicode="Q" horiz-adv-x="1398" 
d="M1288 682q0 -216 -71.5 -379t-210.5 -246l84 -163q10 -17 10 -39q0 -35 -24.5 -60.5t-59.5 -25.5q-53 0 -76 47l-92 180q-72 -16 -148 -16q-145 0 -258.5 52.5t-185 147.5t-108.5 222t-37 280t37 280t108.5 222t185 147.5t258.5 52.5t258.5 -52.5t185 -147.5t108 -222
t36.5 -280zM926 211q157 133 157 471q0 120 -22 217.5t-66.5 172.5t-119.5 116t-175 41q-80 0 -145 -27t-109 -75.5t-74 -117.5t-43.5 -150.5t-13.5 -176.5t13.5 -176.5t43.5 -150.5t74 -117.5t109 -75.5t145 -27q40 0 74 6l-31 60q-8 13 -8 39q0 34 24.5 59t59.5 25
q23 0 43 -13t31 -35z" />
    <glyph glyph-name="R" unicode="R" horiz-adv-x="1263" 
d="M842 563l248 -426q14 -25 14 -49q0 -40 -29 -69t-69 -29q-59 0 -84 49l-287 500h-256v-453q0 -40 -28 -68t-68 -28t-68.5 28t-28.5 68v1178q0 100 101 100h379q119 0 211.5 -32t149 -87.5t85.5 -126.5t29 -153q0 -322 -299 -402zM379 694h246q91 0 154.5 22t96.5 61.5
t47 85t13 102.5q-1 130 -71 186.5t-210 56.5h-276v-514z" />
    <glyph glyph-name="S" unicode="S" horiz-adv-x="1120" 
d="M158 68q-49 22 -49 77q0 35 24.5 59.5t59.5 24.5q51 -16 92 -32q135 -62 266 -62q127 0 200.5 55.5t73.5 165.5q0 43 -13.5 77t-35 58t-60.5 46t-78 37.5t-99 35.5q-59 19 -95 32.5t-86.5 36t-81.5 43.5t-66 52.5t-54 67t-32 84t-13 104.5q0 180 121 267t329 87
q166 0 336 -69q24 -9 39.5 -30.5t15.5 -47.5q0 -35 -25.5 -60.5t-60.5 -25.5q-24 0 -37 8q-148 70 -270 70q-109 0 -176.5 -47t-67.5 -142q0 -56 25.5 -100t74.5 -76t93 -51.5t108 -40.5q152 -52 199 -74q147 -69 192 -188q23 -62 23 -141q0 -103 -38.5 -180t-107 -121.5
t-154 -66t-189.5 -21.5q-114 0 -201.5 23.5t-181.5 64.5z" />
    <glyph glyph-name="T" unicode="T" horiz-adv-x="1097" 
d="M963 1364q34 0 59 -24t25 -58q0 -35 -25 -59.5t-59 -24.5h-318v-1112q0 -40 -28 -68t-68 -28t-68 28t-28 68v1112h-318q-34 0 -59 24t-25 58q0 35 25 59.5t59 24.5h828z" />
    <glyph glyph-name="U" unicode="U" horiz-adv-x="1296" 
d="M942 1278q0 40 28 68t68 28t68.5 -28t28.5 -68v-819q0 -218 -127 -348.5t-361 -130.5q-124 0 -218.5 35.5t-152 100.5t-86 151t-28.5 192v819q0 40 28 68t68 28t68 -28t28 -68v-803q0 -69 16.5 -128.5t50 -108t91.5 -76t135 -27.5q83 0 142.5 27.5t91.5 76.5t46.5 107
t14.5 129v803z" />
    <glyph glyph-name="V" unicode="V" horiz-adv-x="1257" 
d="M1067 1395q41 0 71.5 -30.5t30.5 -72.5q0 -6 -3 -16t-3 -12l-360 -1149q-17 -56 -64 -90.5t-108 -34.5q-60 0 -106.5 34.5t-63.5 90.5l-361 1145q-4 16 -4 30q0 43 30 74t73 31q34 0 61.5 -21t36.5 -53l242 -817l77 -275q10 -35 17 -65q10 44 16 65l78 273l244 819
q9 32 35.5 53t60.5 21z" />
    <glyph glyph-name="W" unicode="W" horiz-adv-x="1800" 
d="M1612 1374q44 0 71.5 -36t16.5 -78l-303 -1151q-14 -53 -56.5 -86t-97.5 -33q-58 0 -102.5 37t-55.5 92l-149 737l-35 186q-4 20 -4 29l-43 -235l-141 -719q-11 -56 -54 -91.5t-100 -35.5q-53 0 -95 33t-56 83l-302 1145q-12 46 18 84.5t77 38.5q35 0 61.5 -21t34.5 -55
l215 -907l45 -205l4 -16q0 10 2 16l41 207l189 889q7 40 40 66t74 26t74.5 -26t40.5 -66l178 -846l49 -250l6 -32q1 3 3.5 14t3.5 18l59 269l203 850q8 31 32 50t56 19z" />
    <glyph glyph-name="X" unicode="X" horiz-adv-x="1255" 
d="M1151 133q14 -20 14 -49q0 -39 -27.5 -66.5t-66.5 -27.5q-48 0 -78 45l-372 551l-342 -547q-28 -49 -84 -49q-40 0 -68.5 28t-28.5 68q0 26 13 49l378 582l-358 522q-14 21 -14 45q0 37 26.5 63.5t63.5 26.5q48 0 76 -43l333 -489l7 12l305 473q28 47 80 47
q37 0 63.5 -27t26.5 -65q0 -26 -13 -45l-337 -514z" />
    <glyph glyph-name="Y" unicode="Y" horiz-adv-x="1181" 
d="M987 1374q35 0 59.5 -25.5t24.5 -60.5q0 -24 -8 -37l-344 -680l-31 -59h-2v-426q0 -40 -28 -68t-68 -28t-68 28t-28 68v428l-369 725q-10 23 -10 43q0 37 27 64.5t65 27.5q28 0 51 -14t33 -39l282 -590q13 -25 23 -53q1 2 8.5 21.5t13.5 31.5l293 596q11 21 31.5 34
t44.5 13z" />
    <glyph glyph-name="Z" unicode="Z" horiz-adv-x="1122" 
d="M944 166q34 0 59 -24.5t25 -59.5q0 -34 -25 -58t-59 -24h-725q-48 0 -82.5 34t-34.5 83q0 31 21 63l665 1018h-587q-34 0 -59 24t-25 58q0 35 25 59.5t59 24.5h710q48 0 82.5 -34t34.5 -83q0 -33 -20 -63l-666 -1018h602z" />
    <glyph glyph-name="bracketleft" unicode="[" horiz-adv-x="665" 
d="M598 1475q0 -29 -21 -49.5t-49 -20.5h-153v-1444h151q30 0 51 -21t21 -51q0 -29 -21 -49t-51 -20h-245q-101 0 -101 100v1524q0 100 101 100h247q28 0 49 -20t21 -49z" />
    <glyph glyph-name="backslash" unicode="\" horiz-adv-x="835" 
d="M782 -233q0 -34 -24 -58t-58 -24q-26 0 -48 15t-29 40l-564 1628q-6 24 -6 27q0 34 24 58t58 24q26 0 48.5 -15.5t29.5 -40.5l563 -1628q6 -24 6 -26z" />
    <glyph glyph-name="bracketright" unicode="]" horiz-adv-x="665" 
d="M137 1405q-28 0 -48.5 20.5t-20.5 49.5t20.5 49t48.5 20h248q100 0 100 -100v-1524q0 -100 -100 -100h-246q-29 0 -50 20t-21 49q0 31 21 51.5t50 20.5h152v1444h-154z" />
    <glyph glyph-name="asciicircum" unicode="^" horiz-adv-x="884" 
d="M180 1061q-21 -44 -2 -73.5t58 -29.5q48 0 71 70l137 330l158 -348q15 -30 29 -41t37 -11q30 0 44.5 29.5t-3.5 67.5l-162 313q-15 31 -43 48.5t-62 17.5t-62.5 -17.5t-43.5 -48.5z" />
    <glyph glyph-name="underscore" unicode="_" horiz-adv-x="1204" 
d="M176 -72q0 30 21 51t51 21h708q30 0 51 -21t21 -51q0 -29 -21 -49t-51 -20h-708q-30 0 -51 20t-21 49z" />
    <glyph glyph-name="grave" unicode="`" horiz-adv-x="661" 
d="M244 1452q0 31 22 53.5t53 22.5q24 0 44 -14.5t28 -36.5l72 -213q11 -32 -8.5 -59t-53.5 -27q-40 0 -57 39l-94 204q-6 12 -6 31z" />
    <glyph glyph-name="a" unicode="a" horiz-adv-x="1009" 
d="M891 150q27 -8 44 -30.5t17 -51.5q0 -37 -27.5 -61.5t-64.5 -20.5q-100 11 -149 55q-34 31 -41 80q-29 -59 -100 -98t-181 -39q-153 0 -235 81.5t-82 223.5q0 158 105 237t333 82l145 2v107q0 182 -204 182q-101 0 -234 -53q-8 -4 -29 -4q-31 0 -53 22t-22 54
q0 24 14.5 43.5t36.5 27.5q147 49 307 49q172 0 270.5 -76.5t98.5 -226.5v-504q0 -67 51 -81zM653 344v137l-125 -2q-61 -1 -105.5 -9t-82 -27t-57 -55t-19.5 -89q0 -81 44.5 -128.5t107.5 -47.5q20 0 44 3.5t60 17.5t64 36t48.5 65t20.5 99z" />
    <glyph glyph-name="b" unicode="b" horiz-adv-x="1091" 
d="M629 1038q186 0 286.5 -134.5t100.5 -383.5q0 -258 -102 -397t-291 -139q-186 0 -295 153l-9 -71q-3 -32 -27.5 -54t-58.5 -22q-35 0 -60.5 25.5t-25.5 60.5v1276q0 37 27.5 64.5t65.5 27.5t65 -27.5t27 -64.5v-457q103 143 297 143zM578 123q117 0 180 99.5t63 283.5
q0 189 -64.5 291t-183.5 102q-120 0 -184.5 -99t-64.5 -282q0 -190 66 -292.5t188 -102.5z" />
    <glyph glyph-name="c" unicode="c" horiz-adv-x="901" 
d="M575 123q71 0 158 37q12 6 29 6q31 0 53.5 -22.5t22.5 -53.5q0 -26 -15 -46t-37 -28q-95 -32 -239 -32q-153 0 -260 67t-158 183t-51 274q0 113 27.5 207.5t82.5 167.5t146 114t211 41q129 0 229 -32q22 -8 36.5 -27t14.5 -43q0 -31 -21.5 -53.5t-51.5 -22.5q-3 0 -27 6
q-87 33 -170 33q-145 0 -215 -106t-70 -275q0 -80 16.5 -148t51 -125t95.5 -89.5t142 -32.5z" />
    <glyph glyph-name="d" unicode="d" horiz-adv-x="1091" 
d="M463 1038q194 0 297 -143v457q0 37 27 64.5t65 27.5t65 -27.5t27 -64.5v-1276q0 -35 -25.5 -60.5t-60.5 -25.5q-34 0 -58.5 22t-27.5 54l-8 71q-109 -153 -295 -153q-189 0 -291 139t-102 397q0 249 100.5 383.5t286.5 134.5zM514 123q122 0 188 102.5t66 292.5
q0 183 -65 282t-185 99q-119 0 -183.5 -102t-64.5 -291q0 -184 63.5 -283.5t180.5 -99.5z" />
    <glyph glyph-name="e" unicode="e" horiz-adv-x="1011" 
d="M526 1038q86 0 156.5 -24.5t127.5 -76.5t88.5 -143t31.5 -214v-41q-3 -49 -31 -74t-76 -25h-553q27 -317 303 -317q98 0 207 37q30 10 41 10q30 0 49 -21t19 -51q0 -50 -47 -67q-129 -47 -283 -47q-239 0 -360 138.5t-121 387.5q0 252 118.5 390t329.5 138zM737 567
q2 12 2 68q0 128 -56 196t-161 68q-120 0 -183 -87t-71 -245h469z" />
    <glyph glyph-name="f" unicode="f" horiz-adv-x="686" 
d="M492 1315q-59 0 -87 -32.5t-28 -113.5v-145h213q28 0 48.5 -20t20.5 -48q0 -29 -20.5 -49t-48.5 -20h-213v-805q0 -37 -27 -64.5t-65 -27.5t-65 27.5t-27 64.5v805h-99q-28 0 -48.5 20t-20.5 49q0 28 20.5 48t48.5 20h99v143q0 79 23 136t64 89t90.5 47t110.5 15
q70 0 160 -20q24 -6 39.5 -25t15.5 -45q0 -35 -28.5 -56t-61.5 -12q-70 19 -114 19z" />
    <glyph glyph-name="g" unicode="g" horiz-adv-x="1091" 
d="M766 954q3 33 29 56.5t59 23.5q36 0 62 -26t26 -62v-848q0 -91 -26.5 -168.5t-79.5 -138t-140.5 -95t-201.5 -34.5q-189 0 -344 78q-41 20 -41 67q0 32 22 54t53 22q20 0 37 -10q136 -72 266 -72q125 0 199 72t74 221v78q-96 -127 -273 -127q-65 0 -123.5 17.5t-110.5 57
t-89.5 97t-59.5 142t-22 188.5q0 231 104 361t291 130q181 0 285 -129zM520 184q121 0 186.5 92t65.5 261q0 73 -12.5 134.5t-40.5 114.5t-79.5 83t-121.5 30q-57 0 -100.5 -20.5t-70 -54t-43.5 -80.5t-23.5 -96t-6.5 -105q0 -167 60 -263t186 -96z" />
    <glyph glyph-name="h" unicode="h" 
d="M647 1038q42 0 82.5 -10.5t82.5 -37.5t73 -69t51 -111t20 -157v-571q0 -37 -27 -64.5t-65 -27.5t-65 27.5t-27 64.5v549q0 256 -192 256q-109 0 -178.5 -91t-69.5 -259v-455q0 -37 -27 -64.5t-65 -27.5t-65.5 27.5t-27.5 64.5v1270q0 37 27 64.5t64 27.5q38 0 65 -27.5
t27 -64.5v-308q0 -110 -6 -186l8 14q110 166 315 166z" />
    <glyph glyph-name="i" unicode="i" horiz-adv-x="479" 
d="M242 1157q54 0 86 27.5t32 83.5q0 108 -118 108q-55 0 -88 -26.5t-33 -81.5q0 -56 33.5 -83.5t87.5 -27.5zM332 82q0 -37 -27 -64.5t-65 -27.5t-65.5 27.5t-27.5 64.5v860q0 37 27.5 64.5t65.5 27.5t65 -27.5t27 -64.5v-860z" />
    <glyph glyph-name="j" unicode="j" horiz-adv-x="487" 
d="M240 1157q54 0 86 27.5t32 83.5q0 108 -118 108q-55 0 -88 -26.5t-33 -81.5q0 -56 33.5 -83.5t87.5 -27.5zM336 8q0 -126 -76.5 -216t-202.5 -130q-12 -4 -24 -4q-34 0 -58 24t-24 58q0 27 15.5 48.5t39.5 29.5q75 28 110.5 71t35.5 119v934q0 37 27 64.5t65 27.5
t65 -27.5t27 -64.5v-934z" />
    <glyph glyph-name="k" unicode="k" horiz-adv-x="983" 
d="M866 131q13 -19 13 -49q0 -40 -24.5 -66t-68.5 -26q-26 0 -49 14t-35 37l-235 440h-135v-399q0 -37 -27 -64.5t-65 -27.5t-65.5 27.5t-27.5 64.5v1270q0 37 27.5 64.5t65.5 27.5t65 -27.5t27 -64.5v-719h153l209 338q22 34 41 49.5t53 15.5q47 0 68 -37.5t-8 -91.5
l-221 -352z" />
    <glyph glyph-name="l" unicode="l" horiz-adv-x="569" 
d="M389 -20q-62 0 -101.5 6.5t-76.5 28t-54.5 67t-17.5 117.5v1153q0 37 27 64.5t65 27.5t65.5 -27.5t27.5 -64.5v-1127q0 -60 20.5 -83t63.5 -23q25 0 49 6q31 6 57.5 -16t26.5 -54q0 -26 -17.5 -45t-42.5 -22q-44 -8 -92 -8z" />
    <glyph glyph-name="m" unicode="m" horiz-adv-x="1603" 
d="M1186 1038q43 0 82.5 -10.5t79 -37.5t67.5 -69t46 -111t18 -157v-571q0 -37 -27.5 -64.5t-65.5 -27.5t-65 27.5t-27 64.5v549q0 36 -1.5 60.5t-6.5 57.5t-16 54.5t-29 42.5t-47 31t-68 10q-106 0 -163.5 -89t-57.5 -261v-455q0 -37 -27 -64.5t-65 -27.5t-65 27.5
t-27 64.5v549q0 36 -1.5 60.5t-6.5 57.5t-16 54.5t-29 42.5t-47 31t-68 10q-106 0 -163.5 -89t-57.5 -261v-455q0 -37 -27 -64.5t-65 -27.5t-65.5 27.5t-27.5 64.5v864q0 36 26.5 62t62.5 26q32 0 57.5 -23t28.5 -55l10 -84q30 50 63 83.5t91.5 58t134.5 24.5q117 0 192 -80
q37 -43 51 -96q2 2 6 10q111 166 316 166z" />
    <glyph glyph-name="n" unicode="n" 
d="M647 1040q42 0 82.5 -10.5t82.5 -37.5t73 -69t51 -111t20 -157v-573q0 -37 -27 -64.5t-65 -27.5t-65 27.5t-27 64.5v551q0 256 -192 256q-109 0 -178.5 -91.5t-69.5 -260.5v-455q0 -37 -27 -64.5t-65 -27.5t-65.5 27.5t-27.5 64.5v864q0 36 26.5 62t62.5 26
q32 0 57.5 -23t28.5 -55l10 -86q108 170 315 170z" />
    <glyph glyph-name="o" unicode="o" horiz-adv-x="1052" 
d="M526 1038q219 0 334 -143t115 -383t-115 -383t-334 -143t-333.5 143t-114.5 383t114.5 383t333.5 143zM526 125q129 0 192.5 101t63.5 286q0 184 -63.5 285.5t-192.5 101.5t-192.5 -101.5t-63.5 -285.5q0 -185 63.5 -286t192.5 -101z" />
    <glyph glyph-name="p" unicode="p" horiz-adv-x="1101" 
d="M324 958l8 -71q109 153 295 153q188 0 289.5 -139t101.5 -397q0 -249 -100 -383.5t-285 -134.5q-194 0 -297 143v-385q0 -37 -27 -64.5t-65 -27.5t-65 27.5t-27 64.5v1204q0 35 25.5 60.5t60.5 25.5q34 0 58.5 -22t27.5 -54zM578 125q119 0 183 102t64 291
q0 184 -63 283.5t-180 99.5q-122 0 -188 -102.5t-66 -292.5q0 -183 65 -282t185 -99z" />
    <glyph glyph-name="q" unicode="q" horiz-adv-x="1101" 
d="M778 958q3 32 27.5 54t58.5 22q35 0 60.5 -25.5t25.5 -60.5v-1204q0 -37 -27 -64.5t-65 -27.5t-65 27.5t-27 64.5v385q-103 -143 -297 -143q-185 0 -285 134.5t-100 383.5q0 258 101.5 397t289.5 139q186 0 295 -153zM524 125q120 0 185 99t65 282q0 190 -66 292.5
t-188 102.5q-117 0 -180.5 -99.5t-63.5 -283.5q0 -189 64.5 -291t183.5 -102z" />
    <glyph glyph-name="r" unicode="r" horiz-adv-x="669" 
d="M610 1006q23 -26 23 -60q0 -38 -27.5 -65t-64.5 -25h-19q-190 0 -190 -276v-498q0 -37 -27 -64.5t-65 -27.5t-65.5 27.5t-27.5 64.5v866q0 35 25.5 60.5t60.5 25.5q33 0 58 -22.5t28 -55.5l9 -79q58 118 170 149q76 20 112 -20z" />
    <glyph glyph-name="s" unicode="s" horiz-adv-x="849" 
d="M420 -16q-142 0 -289 57q-51 20 -51 74q0 32 23 56t55 24q19 0 37 -11q120 -61 217 -61q82 0 133 39t51 110q0 41 -16.5 72t-46.5 50.5t-56.5 30t-62.5 19.5q-38 10 -65 18.5t-65 23.5t-64.5 30.5t-55.5 40t-47 52t-29.5 66t-11.5 83.5q0 127 88.5 203.5t273.5 76.5
q123 0 256 -45q23 -8 37 -27.5t14 -45.5q0 -31 -21.5 -53.5t-53.5 -22.5q-19 0 -31 6q-114 49 -213 49q-162 0 -162 -125q0 -66 44.5 -100t152.5 -70q58 -20 95 -34t79 -35t67 -43.5t47.5 -52.5t32 -69t9.5 -87q0 -73 -25 -129t-62 -87.5t-89 -51t-98 -25.5t-97 -6z" />
    <glyph glyph-name="t" unicode="t" horiz-adv-x="692" 
d="M547 137q33 9 61.5 -12.5t28.5 -56.5q0 -26 -16 -45t-41 -25q-57 -14 -123 -14q-132 0 -205.5 60t-73.5 208v635h-74q-28 0 -48.5 19.5t-20.5 47.5q0 29 20.5 49.5t48.5 20.5h74v193q0 37 27 64.5t65 27.5t65 -27.5t27 -64.5v-193h179q28 0 48.5 -20t20.5 -48
q0 -29 -20.5 -49t-48.5 -20h-179v-623q0 -139 109 -139q36 0 76 12z" />
    <glyph glyph-name="u" unicode="u" 
d="M434 -16q-42 0 -82.5 10.5t-82.5 37.5t-73 69t-51 111t-20 157v573q0 37 27 64.5t65 27.5t65 -27.5t27 -64.5v-551q0 -49 8 -90t28 -81t60 -62.5t97 -22.5q109 0 178.5 91.5t69.5 260.5v455q0 37 27 64.5t65 27.5t65 -27.5t27 -64.5v-864q0 -36 -26 -62t-62 -26
q-32 0 -57.5 23t-28.5 55l-10 86q-108 -170 -316 -170z" />
    <glyph glyph-name="v" unicode="v" horiz-adv-x="931" 
d="M788 1036q54 0 74 -37.5t8 -76.5l-272 -840q-13 -42 -47 -66t-78 -24h-16q-44 0 -78 24t-47 66l-269 819q-17 52 1.5 93.5t74.5 41.5q44 0 67 -22t40 -80l194 -662q20 -74 25 -100q8 39 24 100l201 680q11 41 33.5 62.5t64.5 21.5z" />
    <glyph glyph-name="w" unicode="w" horiz-adv-x="1415" 
d="M1188 975q6 25 27.5 42t48.5 17q38 0 61 -31.5t14 -68.5l-229 -864q-9 -37 -41.5 -62.5t-71.5 -25.5q-41 0 -72 25.5t-40 64.5l-125 510l-58 286l-53 -282l-110 -506q-9 -42 -43 -70t-78 -28q-41 0 -74.5 26.5t-44.5 65.5l-223 846q-11 43 16 78.5t72 35.5
q31 0 55.5 -20.5t32.5 -50.5l117 -492l53 -278l49 278l100 459q11 47 49.5 78.5t88.5 31.5q49 0 86.5 -30.5t48.5 -77.5l104 -463l49 -283l60 283z" />
    <glyph glyph-name="x" unicode="x" horiz-adv-x="940" 
d="M868 115q13 -20 13 -43q0 -33 -23.5 -56.5t-56.5 -23.5q-45 0 -70 39l-258 364l-250 -360q-28 -43 -73 -43q-34 0 -59 25.5t-25 60.5q0 26 12 43l287 403l-281 387q-12 18 -12 41q0 34 24 58t58 24q44 0 69 -39l242 -338l237 336q25 41 70 41q34 0 58 -24t24 -58
q0 -23 -12 -41l-277 -381z" />
    <glyph glyph-name="y" unicode="y" horiz-adv-x="970" 
d="M811 1034q37 0 62.5 -26.5t25.5 -63.5q0 -18 -2 -26l-293 -975q-43 -142 -122 -206.5t-249 -74.5q-32 -2 -56.5 21t-24.5 55t23 55t54 23q85 0 142.5 30.5t81.5 112.5l12 41q-85 0 -111 82l-278 831q-4 16 -4 29q0 38 26.5 65t63.5 27q30 0 53.5 -17.5t32.5 -45.5
l254 -801l221 799q8 28 32 46.5t56 18.5z" />
    <glyph glyph-name="z" unicode="z" horiz-adv-x="849" 
d="M258 141l455 4q30 0 51.5 -21.5t21.5 -51.5q0 -29 -22 -50.5t-51 -21.5h-561q-41 0 -71 29.5t-30 70.5q0 28 19 58l499 723l-391 -4q-30 0 -52 21.5t-22 51.5q0 29 22.5 50.5t51.5 21.5h498q41 0 70.5 -29.5t29.5 -70.5q0 -29 -18 -58z" />
    <glyph glyph-name="braceleft" unicode="{" horiz-adv-x="714" 
d="M109 745q58 6 99.5 51.5t41.5 98.5v358q0 117 79.5 198t196.5 81h62q25 0 43 -18.5t18 -43.5q0 -26 -18 -44.5t-43 -18.5q-77 0 -110.5 -43t-33.5 -111v-358q0 -144 -155 -215q155 -71 155 -215v-359q0 -68 33.5 -110.5t110.5 -42.5q25 0 43 -19t18 -45q0 -25 -18 -43
t-43 -18h-62q-117 0 -196.5 80.5t-79.5 197.5v359q0 52 -41 97.5t-100 51.5h-5q-25 3 -42 21.5t-17 44.5t17 44t42 21h5z" />
    <glyph glyph-name="bar" unicode="|" horiz-adv-x="565" 
d="M379 -242q0 -40 -28 -68t-68 -28t-68.5 28t-28.5 68v1520q0 40 28.5 68t68.5 28t68 -28t28 -68v-1520z" />
    <glyph glyph-name="braceright" unicode="}" horiz-adv-x="714" 
d="M606 745h4q25 -3 42.5 -21t17.5 -44t-17.5 -44.5t-42.5 -21.5h-4q-59 -6 -100 -51.5t-41 -97.5v-359q0 -117 -80 -197.5t-197 -80.5h-61q-25 0 -43 18t-18 43q0 26 18 45t43 19q143 0 143 153v359q0 144 156 215q-156 71 -156 215v358q0 154 -143 154q-25 0 -43 18.5
t-18 44.5q0 25 18 43.5t43 18.5h61q117 0 197 -81t80 -198v-358q0 -53 41.5 -98.5t99.5 -51.5z" />
    <glyph glyph-name="section" unicode="&#xa7;" horiz-adv-x="1200" 
d="M895 315q124 -82 119 -227q-6 -180 -156 -270q-46 -28 -117 -45t-141 -17q-94 0 -171 18t-177 66q-20 9 -32.5 29t-12.5 43q0 33 23.5 56.5t56.5 23.5q17 0 41 -12q146 -84 262 -84q105 0 167.5 52t67.5 120q4 57 -32 99t-97 68t-135.5 49t-150 50t-138 62t-102 94.5
t-39.5 138.5q0 91 49.5 158.5t126.5 86.5q-123 84 -123 228q6 180 156 270q46 28 117 45t141 17q94 0 171 -18t177 -66q20 -9 32.5 -29t12.5 -43q0 -33 -23.5 -56.5t-56.5 -23.5q-17 0 -41 12q-146 84 -262 84q-106 0 -169 -52.5t-66 -119.5q-5 -57 31 -99t97 -68t135.5 -49
t150 -50t138.5 -62t102.5 -94.5t39.5 -138.5q0 -91 -48 -158t-124 -88zM319 633q0 -39 20 -70.5t49.5 -51.5t77.5 -39.5t90 -31.5t103 -29.5t101 -31.5q119 66 119 178q0 39 -19.5 71t-49 52t-77.5 39.5t-90 31t-102.5 29t-100.5 31.5q-121 -64 -121 -178z" />
    <glyph glyph-name="dieresis" unicode="&#xa8;" horiz-adv-x="757" 
d="M203 1130q-107 0 -107 99q0 100 109 100q108 0 108 -100q0 -99 -110 -99zM551 1130q-107 0 -107 99q0 100 109 100t109 -100q0 -99 -111 -99z" />
    <glyph glyph-name="guillemotleft" unicode="&#xab;" horiz-adv-x="864" 
d="M371 860q22 0 36.5 -14.5t14.5 -36.5q0 -18 -8 -29l-189 -272l189 -275q8 -11 8 -28q0 -22 -14.5 -36.5t-36.5 -14.5q-49 26 -78 59l-170 195q-47 56 -47 100q0 45 47 98l209 238q13 16 39 16zM705 860q22 0 36.5 -14.5t14.5 -36.5q0 -20 -8 -31l-189 -270l189 -272
q8 -11 8 -31q0 -22 -14.5 -36.5t-36.5 -14.5q-51 28 -80 61l-168 193q-47 56 -47 100q0 45 47 98l207 236q14 18 41 18z" />
    <glyph glyph-name="macron" unicode="&#xaf;" horiz-adv-x="942" 
d="M707 1384q22 0 38.5 -15.5t16.5 -37.5q0 -23 -16.5 -39t-38.5 -16h-469q-22 0 -39 16t-17 39q0 21 17 37t39 16h469z" />
    <glyph glyph-name="acute" unicode="&#xb4;" horiz-adv-x="643" 
d="M379 1528q29 0 50.5 -21.5t21.5 -52.5q0 -11 -9 -33l-108 -209q-19 -34 -55 -34q-26 0 -45 18.5t-19 44.5q0 7 6 25l90 217q8 20 26.5 32.5t41.5 12.5z" />
    <glyph glyph-name="cedilla" unicode="&#xb8;" horiz-adv-x="677" 
d="M453 14q-8 -14 -17.5 -28.5t-15 -23t-12 -18.5t-8.5 -15.5t-4.5 -11.5t-0.5 -9.5l4 -7t8.5 -6.5t14.5 -6t20 -7q18 -5 30.5 -9.5t34.5 -17.5t35.5 -28.5t24.5 -43t11 -61.5q0 -94 -72 -135t-187 -41q-88 0 -143 17q-35 11 -35 35q0 31 18.5 42t35.5 7q79 -17 118 -17
q32 0 60.5 6t55 29.5t26.5 63.5q0 25 -8 42.5t-26.5 29t-28.5 16t-34 12.5q-49 16 -65 45q-7 13 -9 25.5t3.5 32.5t9 28.5t14.5 36.5l41 100z" />
    <glyph glyph-name="guillemotright" unicode="&#xbb;" horiz-adv-x="864" 
d="M117 778q-8 11 -8 31q0 22 14.5 36.5t36.5 14.5q51 -28 80 -61l168 -193q47 -56 47 -98q0 -47 -47 -100l-207 -236q-14 -18 -41 -18q-22 0 -36.5 14.5t-14.5 36.5q0 20 8 31l188 272zM451 780q-9 12 -9 29q0 22 15 36.5t37 14.5q48 -26 77 -59l170 -195q47 -56 47 -98
q0 -47 -47 -100l-209 -238q-13 -16 -38 -16q-22 0 -37 14.5t-15 36.5q0 16 9 28l188 275z" />
    <glyph glyph-name="Agrave" unicode="&#xc0;" horiz-adv-x="1292" 
d="M594 1577l-51 168q-11 38 5 66.5t54 31.5q25 1 44.5 -11t25.5 -32l45 -178q9 -34 -11 -60t-55 -26h-2q-43 0 -55 41zM1186 117q4 -20 4 -31q0 -40 -28 -68t-68 -28q-32 0 -58 19t-35 48l-106 344h-510l-109 -348q-8 -28 -31.5 -45.5t-54.5 -17.5q-37 0 -63.5 26.5
t-26.5 63.5q0 13 4 29l373 1140q18 55 64.5 90t105.5 35t105.5 -35t64.5 -90zM434 557h412l-195 629q-7 26 -10 39q-3 -8 -12 -39z" />
    <glyph glyph-name="Aacute" unicode="&#xc1;" horiz-adv-x="1292" 
d="M684 1495q-25 0 -43 18t-18 43q0 11 8 27l71 141q8 17 25 28t37 11q29 0 49.5 -20t20.5 -49q0 -15 -13 -37l-86 -133q-18 -29 -51 -29zM1186 117q4 -20 4 -31q0 -40 -28 -68t-68 -28q-32 0 -58 19t-35 48l-106 344h-510l-109 -348q-8 -28 -31.5 -45.5t-54.5 -17.5
q-37 0 -63.5 26.5t-26.5 63.5q0 13 4 29l373 1140q18 55 64.5 90t105.5 35t105.5 -35t64.5 -90zM434 557h412l-195 629q-7 26 -10 39q-3 -8 -12 -39z" />
    <glyph glyph-name="Acircumflex" unicode="&#xc2;" horiz-adv-x="1292" 
d="M451 1495q-25 0 -42.5 17.5t-17.5 41.5q0 20 17 41l127 125q27 27 49.5 38t62.5 11q43 0 64.5 -11t48.5 -38l127 -125q16 -20 16 -41q0 -24 -17.5 -41.5t-41.5 -17.5q-30 0 -47 21l-150 174l-149 -174q-17 -21 -47 -21zM1186 117q4 -20 4 -31q0 -40 -28 -68t-68 -28
q-32 0 -58 19t-35 48l-106 344h-510l-109 -348q-8 -28 -31.5 -45.5t-54.5 -17.5q-37 0 -63.5 26.5t-26.5 63.5q0 13 4 29l373 1140q18 55 64.5 90t105.5 35t105.5 -35t64.5 -90zM434 557h412l-195 629q-7 26 -10 39q-3 -8 -12 -39z" />
    <glyph glyph-name="Atilde" unicode="&#xc3;" horiz-adv-x="1292" 
d="M373 1559q-11 5 -15 19t1 37.5t22 49.5q57 84 143 84q25 0 52.5 -8.5t44 -17t47.5 -25.5q5 -3 22 -12.5t25.5 -14t23 -10.5t27.5 -9t25 -3q29 0 47 12q13 9 26.5 20.5t20 17.5t15.5 12.5t13 6.5t13 -2q11 -5 14.5 -22t-5.5 -45.5t-34 -59.5q-52 -61 -127 -61
q-57 0 -145 49q-4 3 -19.5 11.5t-21.5 11.5l-19 9.5t-21 9t-19 5t-21 2.5q-26 0 -47 -14q-19 -12 -38.5 -30t-29.5 -23t-20 0zM1186 117q4 -20 4 -31q0 -40 -28 -68t-68 -28q-32 0 -58 19t-35 48l-106 344h-510l-109 -348q-8 -28 -31.5 -45.5t-54.5 -17.5q-37 0 -63.5 26.5
t-26.5 63.5q0 13 4 29l373 1140q18 55 64.5 90t105.5 35t105.5 -35t64.5 -90zM434 557h412l-195 629q-7 26 -10 39q-3 -8 -12 -39z" />
    <glyph glyph-name="Adieresis" unicode="&#xc4;" horiz-adv-x="1292" 
d="M446 1561q-100 0 -100 96q0 98 103 98q100 0 100 -98q0 -96 -103 -96zM844 1561q-99 0 -99 96q0 98 101 98q98 0 98 -98q0 -96 -100 -96zM1186 117q4 -20 4 -31q0 -40 -28 -68t-68 -28q-32 0 -58 19t-35 48l-106 344h-510l-109 -348q-8 -28 -31.5 -45.5t-54.5 -17.5
q-37 0 -63.5 26.5t-26.5 63.5q0 13 4 29l373 1140q18 55 64.5 90t105.5 35t105.5 -35t64.5 -90zM434 557h412l-195 629q-7 26 -10 39q-3 -8 -12 -39z" />
    <glyph glyph-name="Aring" unicode="&#xc5;" horiz-adv-x="1292" 
d="M647 1485q-90 0 -148.5 54.5t-58.5 154.5t58 153.5t149 53.5t150 -53.5t59 -153.5t-59 -154.5t-150 -54.5zM647 1821q-44 0 -76 -32t-32 -95t32 -96t76 -33q46 0 78.5 33t32.5 96t-32.5 95t-78.5 32zM1186 117q4 -20 4 -31q0 -40 -28 -68t-68 -28q-32 0 -58 19t-35 48
l-106 344h-510l-109 -348q-8 -28 -31.5 -45.5t-54.5 -17.5q-37 0 -63.5 26.5t-26.5 63.5q0 13 4 29l373 1140q18 55 64.5 90t105.5 35t105.5 -35t64.5 -90zM434 557h412l-195 629q-7 26 -10 39q-3 -8 -12 -39z" />
    <glyph glyph-name="Ccedilla" unicode="&#xc7;" horiz-adv-x="1187" 
d="M1004 188q35 0 60.5 -25.5t25.5 -60.5q0 -27 -16.5 -48.5t-43.5 -30.5q-125 -43 -291 -43q-35 0 -51 2q-36 -57 -38 -68q-2 -15 25 -25q8 -4 23 -8q18 -5 30.5 -9.5t34.5 -17.5t35.5 -28.5t24.5 -43t11 -61.5q0 -94 -72 -135t-187 -41q-88 0 -143 17q-35 11 -35 35
q0 31 18.5 42t35.5 7q79 -17 118 -17q32 0 60.5 6t55 29.5t26.5 63.5q0 25 -8 42.5t-26.5 29t-28.5 16t-34 12.5q-49 16 -65 45q-7 13 -9 25.5t3.5 32.5t9 28.5t14.5 36.5q-229 50 -342.5 228t-113.5 456q0 76 8 145.5t29 141.5t52.5 132t82 114t115.5 91t155 58.5t197 21.5
q162 0 288 -53q24 -9 39 -30t15 -48q0 -35 -24.5 -59.5t-59.5 -24.5q-19 0 -33 7q-123 51 -246 51q-90 0 -161.5 -30t-118 -81t-77.5 -121t-44 -146t-13 -161q0 -257 116 -405t312 -148q112 0 230 47q12 6 31 6z" />
    <glyph glyph-name="Egrave" unicode="&#xc8;" horiz-adv-x="1140" 
d="M602 1536q-43 0 -55 41l-51 168q-11 38 5 66.5t54 31.5q25 1 44.5 -11t25.5 -32l45 -178q9 -34 -11 -60t-55 -26h-2zM971 166q34 0 59 -24.5t25 -59.5q0 -34 -25 -58t-59 -24h-684q-101 0 -101 100v1164q0 100 101 100h665q34 0 59 -24t25 -58q0 -35 -25 -59.5t-59 -24.5
h-573v-432h463q34 0 58 -24t24 -58t-24 -58t-58 -24h-463v-436h592z" />
    <glyph glyph-name="Eacute" unicode="&#xc9;" horiz-adv-x="1140" 
d="M717 1763q29 0 49 -20t20 -49q0 -17 -12 -37l-86 -133q-18 -29 -51 -29q-25 0 -43.5 18t-18.5 43q0 9 9 27l71 141q8 17 25 28t37 11zM971 166q34 0 59 -24.5t25 -59.5q0 -34 -25 -58t-59 -24h-684q-101 0 -101 100v1164q0 100 101 100h665q34 0 59 -24t25 -58
q0 -35 -25 -59.5t-59 -24.5h-573v-432h463q34 0 58 -24t24 -58t-24 -58t-58 -24h-463v-436h592z" />
    <glyph glyph-name="Ecircumflex" unicode="&#xca;" horiz-adv-x="1140" 
d="M840 1595q16 -20 16 -41q0 -24 -17.5 -41.5t-41.5 -17.5q-29 0 -47 21l-150 174l-149 -174q-18 -21 -48 -21q-24 0 -41.5 17.5t-17.5 41.5q0 21 16 41l127 125q27 27 50 38t63 11q43 0 64.5 -11t48.5 -38zM971 166q34 0 59 -24.5t25 -59.5q0 -34 -25 -58t-59 -24h-684
q-101 0 -101 100v1164q0 100 101 100h665q34 0 59 -24t25 -58q0 -35 -25 -59.5t-59 -24.5h-573v-432h463q34 0 58 -24t24 -58t-24 -58t-58 -24h-463v-436h592z" />
    <glyph glyph-name="Edieresis" unicode="&#xcb;" horiz-adv-x="1140" 
d="M399 1561q-100 0 -100 96q0 98 102 98q49 0 75 -25.5t26 -72.5q0 -96 -103 -96zM797 1561q-99 0 -99 96q0 98 101 98q98 0 98 -98q0 -96 -100 -96zM971 166q34 0 59 -24.5t25 -59.5q0 -34 -25 -58t-59 -24h-684q-101 0 -101 100v1164q0 100 101 100h665q34 0 59 -24
t25 -58q0 -35 -25 -59.5t-59 -24.5h-573v-432h463q34 0 58 -24t24 -58t-24 -58t-58 -24h-463v-436h592z" />
    <glyph glyph-name="Igrave" unicode="&#xcc;" horiz-adv-x="565" 
d="M285 1536q-44 0 -56 41l-51 168q-11 38 5 66.5t55 31.5q25 1 44 -11t25 -32l45 -178q9 -34 -10.5 -60t-54.5 -26h-2zM379 86q0 -40 -28 -68t-68 -28t-68.5 28t-28.5 68v1192q0 40 28.5 68t68.5 28t68 -28t28 -68v-1192z" />
    <glyph glyph-name="Iacute" unicode="&#xcd;" horiz-adv-x="565" 
d="M399 1763q29 0 49.5 -20t20.5 -49q0 -17 -12 -37l-86 -133q-18 -29 -52 -29q-25 0 -43 18t-18 43q0 11 8 27l72 141q17 39 61 39zM379 86q0 -40 -28 -68t-68 -28t-68.5 28t-28.5 68v1192q0 40 28.5 68t68.5 28t68 -28t28 -68v-1192z" />
    <glyph glyph-name="Icircumflex" unicode="&#xce;" horiz-adv-x="565" 
d="M522 1595q17 -21 17 -41q0 -24 -17.5 -41.5t-42.5 -17.5q-29 0 -47 21l-149 174l-150 -174q-18 -21 -47 -21q-24 0 -41.5 17.5t-17.5 41.5q0 21 16 41l127 125q27 27 50 38t63 11q30 0 51 -6.5t31.5 -15t29.5 -27.5zM379 86q0 -40 -28 -68t-68 -28t-68.5 28t-28.5 68
v1192q0 40 28.5 68t68.5 28t68 -28t28 -68v-1192z" />
    <glyph glyph-name="Idieresis" unicode="&#xcf;" horiz-adv-x="565" 
d="M82 1561q-100 0 -100 96q0 98 102 98q100 0 100 -98q0 -96 -102 -96zM479 1561q-98 0 -98 96q0 98 100 98q99 0 99 -98q0 -96 -101 -96zM379 86q0 -40 -28 -68t-68 -28t-68.5 28t-28.5 68v1192q0 40 28.5 68t68.5 28t68 -28t28 -68v-1192z" />
    <glyph glyph-name="Ntilde" unicode="&#xd1;" horiz-adv-x="1357" 
d="M793 1528q-58 0 -146 49q-4 3 -19.5 11.5t-21.5 11.5l-19 9.5t-21 9t-19 5t-21 2.5q-26 0 -47 -14q-19 -12 -38.5 -30t-29.5 -23t-20 0q-11 5 -15 19t1 37.5t22 49.5q57 84 144 84q25 0 52.5 -9t43 -16.5t47.5 -25.5q5 -3 22 -12.5t25.5 -14t23 -10.5t27.5 -9t25 -3
q29 0 47 12q13 9 26.5 20.5t20 17.5t15.5 12.5t13 6.5t13 -2q11 -5 15 -22t-5 -45.5t-34 -59.5q-52 -61 -127 -61zM481 1284q-18 38 -53.5 59t-77.5 21q-70 0 -117 -47.5t-47 -118.5v-1108q0 -41 28 -69.5t69 -28.5t68.5 28.5t27.5 69.5v641l-21 412l523 -1061
q19 -38 53.5 -60t75.5 -22q69 0 115 47.5t46 118.5v1110q0 41 -27.5 69.5t-68.5 28.5t-68.5 -28.5t-27.5 -69.5v-641l25 -410z" />
    <glyph glyph-name="Ograve" unicode="&#xd2;" horiz-adv-x="1398" 
d="M702 1536q-43 0 -55 41l-51 168q-11 38 5 66.5t54 31.5q25 1 44.5 -11t25.5 -32l45 -178q9 -34 -10.5 -60t-54.5 -26h-3zM700 1384q145 0 258.5 -52.5t185 -147.5t108 -222t36.5 -280t-36.5 -280t-108 -222t-185 -147.5t-258.5 -52.5t-258.5 52.5t-185 147.5t-108.5 222
t-37 280t37 280t108.5 222t185 147.5t258.5 52.5zM700 135q100 0 175 41t119.5 116t66.5 172.5t22 217.5t-22 217.5t-66.5 172.5t-119.5 116t-175 41q-80 0 -145 -27t-109 -75.5t-74 -117.5t-43.5 -150.5t-13.5 -176.5t13.5 -176.5t43.5 -150.5t74 -117.5t109 -75.5t145 -27
z" />
    <glyph glyph-name="Oacute" unicode="&#xd3;" horiz-adv-x="1398" 
d="M817 1763q29 0 49.5 -20t20.5 -49q0 -15 -13 -37l-86 -133q-18 -29 -51 -29q-25 0 -43 18t-18 43q0 11 8 27l72 141q17 39 61 39zM700 1384q145 0 258.5 -52.5t185 -147.5t108 -222t36.5 -280t-36.5 -280t-108 -222t-185 -147.5t-258.5 -52.5t-258.5 52.5t-185 147.5
t-108.5 222t-37 280t37 280t108.5 222t185 147.5t258.5 52.5zM700 135q100 0 175 41t119.5 116t66.5 172.5t22 217.5t-22 217.5t-66.5 172.5t-119.5 116t-175 41q-80 0 -145 -27t-109 -75.5t-74 -117.5t-43.5 -150.5t-13.5 -176.5t13.5 -176.5t43.5 -150.5t74 -117.5
t109 -75.5t145 -27z" />
    <glyph glyph-name="Ocircumflex" unicode="&#xd4;" horiz-adv-x="1398" 
d="M940 1595q16 -20 16 -41q0 -24 -17.5 -41.5t-41.5 -17.5q-29 0 -47 21l-150 174l-149 -174q-17 -21 -47 -21q-24 0 -42 17.5t-18 41.5q0 20 17 41l127 125q27 27 49.5 38t62.5 11q43 0 64.5 -11t48.5 -38zM700 1384q145 0 258.5 -52.5t185 -147.5t108 -222t36.5 -280
t-36.5 -280t-108 -222t-185 -147.5t-258.5 -52.5t-258.5 52.5t-185 147.5t-108.5 222t-37 280t37 280t108.5 222t185 147.5t258.5 52.5zM700 135q100 0 175 41t119.5 116t66.5 172.5t22 217.5t-22 217.5t-66.5 172.5t-119.5 116t-175 41q-80 0 -145 -27t-109 -75.5
t-74 -117.5t-43.5 -150.5t-13.5 -176.5t13.5 -176.5t43.5 -150.5t74 -117.5t109 -75.5t145 -27z" />
    <glyph glyph-name="Otilde" unicode="&#xd5;" horiz-adv-x="1398" 
d="M827 1528q-57 0 -145 49q-4 3 -19.5 11.5t-21.5 11.5l-19 9.5t-21 9t-19 5t-21 2.5q-26 0 -47 -14q-19 -12 -38.5 -30t-29.5 -23t-20 0q-11 5 -15 19t1 37.5t22 49.5q57 84 144 84q25 0 52.5 -9t43 -16.5t47.5 -25.5q5 -3 22 -12.5t25.5 -14t23 -10.5t27.5 -9t25 -3
q29 0 47 12q13 9 26.5 20.5t20 17.5t15.5 12.5t13 6.5t13 -2q11 -5 14.5 -22t-5.5 -45.5t-34 -59.5q-52 -61 -127 -61zM700 1384q145 0 258.5 -52.5t185 -147.5t108 -222t36.5 -280t-36.5 -280t-108 -222t-185 -147.5t-258.5 -52.5t-258.5 52.5t-185 147.5t-108.5 222
t-37 280t37 280t108.5 222t185 147.5t258.5 52.5zM700 135q100 0 175 41t119.5 116t66.5 172.5t22 217.5t-22 217.5t-66.5 172.5t-119.5 116t-175 41q-80 0 -145 -27t-109 -75.5t-74 -117.5t-43.5 -150.5t-13.5 -176.5t13.5 -176.5t43.5 -150.5t74 -117.5t109 -75.5t145 -27
z" />
    <glyph glyph-name="Odieresis" unicode="&#xd6;" horiz-adv-x="1398" 
d="M500 1561q-101 0 -101 96q0 98 103 98q100 0 100 -98q0 -96 -102 -96zM897 1561q-98 0 -98 96q0 98 100 98q98 0 98 -98q0 -96 -100 -96zM700 1384q145 0 258.5 -52.5t185 -147.5t108 -222t36.5 -280t-36.5 -280t-108 -222t-185 -147.5t-258.5 -52.5t-258.5 52.5
t-185 147.5t-108.5 222t-37 280t37 280t108.5 222t185 147.5t258.5 52.5zM700 135q100 0 175 41t119.5 116t66.5 172.5t22 217.5t-22 217.5t-66.5 172.5t-119.5 116t-175 41q-80 0 -145 -27t-109 -75.5t-74 -117.5t-43.5 -150.5t-13.5 -176.5t13.5 -176.5t43.5 -150.5
t74 -117.5t109 -75.5t145 -27z" />
    <glyph glyph-name="Oslash" unicode="&#xd8;" horiz-adv-x="1398" 
d="M1071 1260q107 -91 162 -240.5t55 -337.5q0 -153 -36.5 -280t-108 -222t-185 -147.5t-258.5 -52.5q-157 0 -272 59l-53 -100q-18 -33 -53 -33q-25 0 -42.5 17t-17.5 42q0 11 8 27l60 112q-108 91 -163.5 240.5t-55.5 337.5q0 153 37 280t108.5 222t185 147.5t258.5 52.5
q152 0 269 -57l51 98q16 33 53 33q26 0 44 -18t18 -43q0 -15 -7 -29zM315 682q0 -267 103 -410l473 906q-79 51 -191 51q-80 0 -145 -27t-109 -75.5t-74 -117.5t-43.5 -150.5t-13.5 -176.5zM700 135q100 0 175 41t119.5 116t66.5 172.5t22 217.5q0 267 -100 410l-477 -904
q80 -53 194 -53z" />
    <glyph glyph-name="Ugrave" unicode="&#xd9;" horiz-adv-x="1296" 
d="M651 1536q-43 0 -55 41l-51 168q-11 38 5 66.5t54 31.5q25 1 44.5 -11t25.5 -32l45 -178q9 -34 -11 -60t-55 -26h-2zM942 1278q0 40 28 68t68 28t68.5 -28t28.5 -68v-819q0 -218 -127 -348.5t-361 -130.5q-124 0 -218.5 35.5t-152 100.5t-86 151t-28.5 192v819
q0 40 28 68t68 28t68 -28t28 -68v-803q0 -69 16.5 -128.5t50 -108t91.5 -76t135 -27.5q83 0 142.5 27.5t91.5 76.5t46.5 107t14.5 129v803z" />
    <glyph glyph-name="Uacute" unicode="&#xda;" horiz-adv-x="1296" 
d="M766 1763q29 0 49.5 -20t20.5 -49q0 -15 -13 -37l-86 -133q-18 -29 -51 -29q-25 0 -43 18t-18 43q0 11 8 27l72 141q17 39 61 39zM942 1278q0 40 28 68t68 28t68.5 -28t28.5 -68v-819q0 -218 -127 -348.5t-361 -130.5q-124 0 -218.5 35.5t-152 100.5t-86 151t-28.5 192
v819q0 40 28 68t68 28t68 -28t28 -68v-803q0 -69 16.5 -128.5t50 -108t91.5 -76t135 -27.5q83 0 142.5 27.5t91.5 76.5t46.5 107t14.5 129v803z" />
    <glyph glyph-name="Ucircumflex" unicode="&#xdb;" horiz-adv-x="1296" 
d="M889 1595q16 -20 16 -41q0 -24 -17.5 -41.5t-41.5 -17.5q-30 0 -47 21l-150 174l-149 -174q-18 -21 -47 -21q-25 0 -42.5 17.5t-17.5 41.5q0 20 17 41l127 125q27 27 49.5 38t62.5 11q43 0 64.5 -11t48.5 -38zM942 1278q0 40 28 68t68 28t68.5 -28t28.5 -68v-819
q0 -218 -127 -348.5t-361 -130.5q-124 0 -218.5 35.5t-152 100.5t-86 151t-28.5 192v819q0 40 28 68t68 28t68 -28t28 -68v-803q0 -69 16.5 -128.5t50 -108t91.5 -76t135 -27.5q83 0 142.5 27.5t91.5 76.5t46.5 107t14.5 129v803z" />
    <glyph glyph-name="Udieresis" unicode="&#xdc;" horiz-adv-x="1296" 
d="M449 1561q-101 0 -101 96q0 98 103 98q100 0 100 -98q0 -96 -102 -96zM846 1561q-98 0 -98 96q0 98 100 98q98 0 98 -98q0 -96 -100 -96zM942 1278q0 40 28 68t68 28t68.5 -28t28.5 -68v-819q0 -218 -127 -348.5t-361 -130.5q-124 0 -218.5 35.5t-152 100.5t-86 151
t-28.5 192v819q0 40 28 68t68 28t68 -28t28 -68v-803q0 -69 16.5 -128.5t50 -108t91.5 -76t135 -27.5q83 0 142.5 27.5t91.5 76.5t46.5 107t14.5 129v803z" />
    <glyph glyph-name="Yacute" unicode="&#xdd;" horiz-adv-x="1181" 
d="M629 1495q-25 0 -43.5 18t-18.5 43q0 11 8 27l72 141q8 17 25 28t37 11q29 0 49 -20t20 -49q0 -17 -12 -37l-86 -133q-18 -29 -51 -29zM987 1374q35 0 59.5 -25.5t24.5 -60.5q0 -24 -8 -37l-344 -680l-31 -59h-2v-426q0 -40 -28 -68t-68 -28t-68 28t-28 68v428l-369 725
q-10 23 -10 43q0 37 27 64.5t65 27.5q28 0 51 -14t33 -39l282 -590q13 -25 23 -53q1 2 8.5 21.5t13.5 31.5l293 596q11 21 31.5 34t44.5 13z" />
    <glyph glyph-name="germandbls" unicode="&#xdf;" horiz-adv-x="1161" 
d="M850 569q39 -14 60.5 -22.5t54.5 -24t51.5 -29.5t40.5 -36.5t33.5 -48t19.5 -61t8 -77.5q0 -71 -21.5 -124.5t-53.5 -83.5t-77.5 -48.5t-84 -24t-82.5 -5.5q-69 0 -151 13t-128 40q-47 27 -47 72q0 33 22.5 56t55.5 23q22 0 39 -10q101 -55 184 -55q71 0 112.5 39
t41.5 110q0 39 -11 66.5t-40 48t-46.5 29t-60.5 25.5q-8 3 -12 5q-42 16 -71.5 31t-63 39t-54 52t-34 70t-13.5 93q0 138 89 213.5t241 73.5q-1 46 -5.5 79.5t-20 75.5t-40.5 68.5t-71.5 45t-110.5 18.5q-150 0 -211 -94t-61 -275v-854q0 -37 -27 -64.5t-65 -27.5
t-65.5 27.5t-27.5 64.5v872q0 103 25 188.5t76.5 154.5t139.5 108t206 39q107 0 186.5 -32t126 -91.5t69.5 -134t25 -168.5q1 -21 -1.5 -36t-12 -31.5t-30.5 -26.5t-54 -13q-39 -3 -63 -6.5t-59 -14t-55 -26.5t-35 -46.5t-15 -72.5q0 -33 10 -58.5t22.5 -41.5t40 -31.5
t45.5 -23t56 -21.5z" />
    <glyph glyph-name="agrave" unicode="&#xe0;" horiz-adv-x="1009" 
d="M416 1176l-94 204q-7 14 -7 31q0 31 22.5 53.5t53.5 22.5q24 0 44 -14.5t28 -36.5l72 -213q11 -32 -8.5 -59t-53.5 -27q-40 0 -57 39zM891 150q27 -8 44 -30.5t17 -51.5q0 -37 -27.5 -61.5t-64.5 -20.5q-100 11 -149 55q-34 31 -41 80q-29 -59 -100 -98t-181 -39
q-153 0 -235 81.5t-82 223.5q0 158 105 237t333 82l145 2v107q0 182 -204 182q-101 0 -234 -53q-8 -4 -29 -4q-31 0 -53 22t-22 54q0 24 14.5 43.5t36.5 27.5q147 49 307 49q172 0 270.5 -76.5t98.5 -226.5v-504q0 -67 51 -81zM653 344v137l-125 -2q-61 -1 -105.5 -9
t-82 -27t-57 -55t-19.5 -89q0 -81 44.5 -128.5t107.5 -47.5q20 0 44 3.5t60 17.5t64 36t48.5 65t20.5 99z" />
    <glyph glyph-name="aacute" unicode="&#xe1;" horiz-adv-x="1001" 
d="M487 1137q-26 0 -44.5 18.5t-18.5 44.5q0 7 6 25l90 217q8 20 26.5 32.5t41.5 12.5q29 0 50 -21.5t21 -52.5q0 -13 -8 -33l-108 -209q-19 -34 -56 -34zM891 150q27 -8 44 -30.5t17 -51.5q0 -37 -27.5 -61.5t-64.5 -20.5q-100 11 -149 55q-34 31 -41 80q-29 -59 -100 -98
t-181 -39q-153 0 -235 81.5t-82 223.5q0 158 105 237t333 82l145 2v107q0 182 -204 182q-101 0 -234 -53q-8 -4 -29 -4q-31 0 -53 22t-22 54q0 24 14.5 43.5t36.5 27.5q147 49 307 49q172 0 270.5 -76.5t98.5 -226.5v-504q0 -67 51 -81zM653 344v137l-125 -2
q-61 -1 -105.5 -9t-82 -27t-57 -55t-19.5 -89q0 -81 44.5 -128.5t107.5 -47.5q20 0 44 3.5t60 17.5t64 36t48.5 65t20.5 99z" />
    <glyph glyph-name="acircumflex" unicode="&#xe2;" horiz-adv-x="1009" 
d="M272 1137q-26 0 -45.5 19.5t-19.5 45.5q0 17 12 37l119 178q50 72 149 72q100 0 150 -72l119 -178q12 -20 12 -37q0 -26 -20 -45.5t-46 -19.5q-37 0 -55 32l-160 269l-159 -269q-18 -32 -56 -32zM891 150q27 -8 44 -30.5t17 -51.5q0 -37 -27.5 -61.5t-64.5 -20.5
q-100 11 -149 55q-34 31 -41 80q-29 -59 -100 -98t-181 -39q-153 0 -235 81.5t-82 223.5q0 158 105 237t333 82l145 2v107q0 182 -204 182q-101 0 -234 -53q-8 -4 -29 -4q-31 0 -53 22t-22 54q0 24 14.5 43.5t36.5 27.5q147 49 307 49q172 0 270.5 -76.5t98.5 -226.5v-504
q0 -67 51 -81zM653 344v137l-125 -2q-61 -1 -105.5 -9t-82 -27t-57 -55t-19.5 -89q0 -81 44.5 -128.5t107.5 -47.5q20 0 44 3.5t60 17.5t64 36t48.5 65t20.5 99z" />
    <glyph glyph-name="atilde" unicode="&#xe3;" horiz-adv-x="1009" 
d="M231 1219q-10 5 -14.5 19t1 37.5t22.5 49.5q57 84 143 84q25 0 52.5 -9t43 -16.5t47.5 -25.5q5 -3 22 -12.5t25.5 -14t23 -10.5t27.5 -9t25 -3q29 0 47 12q13 9 26.5 20.5t20 17.5t15.5 12.5t13 6.5t13 -2q11 -5 15 -22t-5 -45.5t-34 -59.5q-52 -61 -127 -61
q-58 0 -146 49q-6 3 -20 11.5t-20.5 12t-19 9.5t-20.5 8.5t-19 5t-21 2.5q-27 0 -48 -14q-19 -12 -38.5 -30t-29.5 -23t-20 0zM891 150q27 -8 44 -30.5t17 -51.5q0 -37 -27.5 -61.5t-64.5 -20.5q-100 11 -149 55q-34 31 -41 80q-29 -59 -100 -98t-181 -39q-153 0 -235 81.5
t-82 223.5q0 158 105 237t333 82l145 2v107q0 182 -204 182q-101 0 -234 -53q-8 -4 -29 -4q-31 0 -53 22t-22 54q0 24 14.5 43.5t36.5 27.5q147 49 307 49q172 0 270.5 -76.5t98.5 -226.5v-504q0 -67 51 -81zM653 344v137l-125 -2q-61 -1 -105.5 -9t-82 -27t-57 -55
t-19.5 -89q0 -81 44.5 -128.5t107.5 -47.5q20 0 44 3.5t60 17.5t64 36t48.5 65t20.5 99z" />
    <glyph glyph-name="adieresis" unicode="&#xe4;" horiz-adv-x="1009" 
d="M330 1130q-107 0 -107 99q0 100 109 100q108 0 108 -100q0 -99 -110 -99zM678 1130q-107 0 -107 99q0 100 109 100q108 0 108 -100q0 -99 -110 -99zM891 150q27 -8 44 -30.5t17 -51.5q0 -37 -27.5 -61.5t-64.5 -20.5q-100 11 -149 55q-34 31 -41 80q-29 -59 -100 -98
t-181 -39q-153 0 -235 81.5t-82 223.5q0 158 105 237t333 82l145 2v107q0 182 -204 182q-101 0 -234 -53q-8 -4 -29 -4q-31 0 -53 22t-22 54q0 24 14.5 43.5t36.5 27.5q147 49 307 49q172 0 270.5 -76.5t98.5 -226.5v-504q0 -67 51 -81zM653 344v137l-125 -2
q-61 -1 -105.5 -9t-82 -27t-57 -55t-19.5 -89q0 -81 44.5 -128.5t107.5 -47.5q20 0 44 3.5t60 17.5t64 36t48.5 65t20.5 99z" />
    <glyph glyph-name="aring" unicode="&#xe5;" horiz-adv-x="1009" 
d="M492 1145q-90 0 -148.5 54.5t-58.5 154.5t58 153.5t149 53.5t149.5 -53.5t58.5 -153.5t-58.5 -154.5t-149.5 -54.5zM492 1481q-44 0 -76.5 -32t-32.5 -95t32.5 -96t76.5 -33q45 0 77.5 33t32.5 96t-32 95t-78 32zM891 150q27 -8 44 -30.5t17 -51.5q0 -37 -27.5 -61.5
t-64.5 -20.5q-100 11 -149 55q-34 31 -41 80q-29 -59 -100 -98t-181 -39q-153 0 -235 81.5t-82 223.5q0 158 105 237t333 82l145 2v107q0 182 -204 182q-101 0 -234 -53q-8 -4 -29 -4q-31 0 -53 22t-22 54q0 24 14.5 43.5t36.5 27.5q147 49 307 49q172 0 270.5 -76.5
t98.5 -226.5v-504q0 -67 51 -81zM653 344v137l-125 -2q-61 -1 -105.5 -9t-82 -27t-57 -55t-19.5 -89q0 -81 44.5 -128.5t107.5 -47.5q20 0 44 3.5t60 17.5t64 36t48.5 65t20.5 99z" />
    <glyph glyph-name="ccedilla" unicode="&#xe7;" horiz-adv-x="901" 
d="M762 166q31 0 53.5 -22.5t22.5 -53.5q0 -26 -15 -46t-37 -28q-68 -24 -196 -32q-38 -59 -40 -70q-2 -16 26 -26q9 -3 22 -7q18 -5 30.5 -9.5t34 -17.5t35.5 -28.5t24.5 -43t10.5 -61.5q0 -94 -71.5 -135t-186.5 -41q-88 0 -143 17q-35 11 -35 35q0 31 18 42t35 7
q79 -17 119 -17q23 0 44 3.5t45 13t38 31t14 51.5q0 25 -8 42.5t-26 29t-28 16t-34 12.5q-49 16 -65 45q-7 12 -9 24.5t2.5 29.5t8.5 28.5t14 34.5q-189 26 -288 163.5t-99 354.5q0 113 27.5 207.5t82.5 167.5t146 114t211 41q129 0 229 -32q22 -8 36.5 -27t14.5 -43
q0 -31 -21.5 -53.5t-51.5 -22.5q-3 0 -27 6q-87 33 -170 33q-145 0 -215 -106t-70 -275q0 -80 16.5 -148t51 -125t95.5 -89.5t142 -32.5q71 0 158 37q12 6 29 6z" />
    <glyph glyph-name="egrave" unicode="&#xe8;" horiz-adv-x="1011" 
d="M414 1176l-95 204q-6 12 -6 31q0 31 22.5 53.5t53.5 22.5q24 0 44 -14.5t28 -36.5l71 -213q11 -32 -8 -59t-53 -27q-40 0 -57 39zM526 1038q86 0 156.5 -24.5t127.5 -76.5t88.5 -143t31.5 -214v-41q-3 -49 -31 -74t-76 -25h-553q27 -317 303 -317q98 0 207 37
q30 10 41 10q30 0 49 -21t19 -51q0 -50 -47 -67q-129 -47 -283 -47q-239 0 -360 138.5t-121 387.5q0 252 118.5 390t329.5 138zM737 567q2 12 2 68q0 128 -56 196t-161 68q-120 0 -183 -87t-71 -245h469z" />
    <glyph glyph-name="eacute" unicode="&#xe9;" horiz-adv-x="1011" 
d="M502 1137q-26 0 -45 18.5t-19 44.5q0 7 6 25l91 217q17 45 67 45q29 0 50.5 -21.5t21.5 -52.5q0 -13 -8 -33l-109 -209q-19 -34 -55 -34zM526 1038q86 0 156.5 -24.5t127.5 -76.5t88.5 -143t31.5 -214v-41q-3 -49 -31 -74t-76 -25h-553q27 -317 303 -317q98 0 207 37
q30 10 41 10q30 0 49 -21t19 -51q0 -50 -47 -67q-129 -47 -283 -47q-239 0 -360 138.5t-121 387.5q0 252 118.5 390t329.5 138zM737 567q2 12 2 68q0 128 -56 196t-161 68q-120 0 -183 -87t-71 -245h469z" />
    <glyph glyph-name="ecircumflex" unicode="&#xea;" horiz-adv-x="1011" 
d="M270 1137q-26 0 -45.5 19.5t-19.5 45.5q0 17 12 37l119 178q50 72 149 72q100 0 150 -72l119 -178q12 -20 12 -37q0 -26 -20 -45.5t-46 -19.5q-37 0 -55 32l-160 269l-159 -269q-18 -32 -56 -32zM526 1038q86 0 156.5 -24.5t127.5 -76.5t88.5 -143t31.5 -214v-41
q-3 -49 -31 -74t-76 -25h-553q27 -317 303 -317q98 0 207 37q30 10 41 10q30 0 49 -21t19 -51q0 -50 -47 -67q-129 -47 -283 -47q-239 0 -360 138.5t-121 387.5q0 252 118.5 390t329.5 138zM737 567q2 12 2 68q0 128 -56 196t-161 68q-120 0 -183 -87t-71 -245h469z" />
    <glyph glyph-name="edieresis" unicode="&#xeb;" horiz-adv-x="1011" 
d="M328 1130q-107 0 -107 99q0 100 109 100q108 0 108 -100q0 -99 -110 -99zM676 1130q-107 0 -107 99q0 100 109 100q108 0 108 -100q0 -99 -110 -99zM526 1038q86 0 156.5 -24.5t127.5 -76.5t88.5 -143t31.5 -214v-41q-3 -49 -31 -74t-76 -25h-553q27 -317 303 -317
q98 0 207 37q30 10 41 10q30 0 49 -21t19 -51q0 -50 -47 -67q-129 -47 -283 -47q-239 0 -360 138.5t-121 387.5q0 252 118.5 390t329.5 138zM737 567q2 12 2 68q0 128 -56 196t-161 68q-120 0 -183 -87t-71 -245h469z" />
    <glyph glyph-name="igrave" unicode="&#xec;" horiz-adv-x="479" 
d="M90 1411q0 31 22.5 53.5t53.5 22.5q24 0 44 -14.5t28 -36.5l71 -213q11 -32 -8 -59t-53 -27q-41 0 -58 39l-94 204q-6 12 -6 31zM332 82q0 -37 -27 -64.5t-65 -27.5t-65.5 27.5t-27.5 64.5v860q0 37 27.5 64.5t65.5 27.5t65 -27.5t27 -64.5v-860z" />
    <glyph glyph-name="iacute" unicode="&#xed;" horiz-adv-x="479" 
d="M350 1526q29 0 50.5 -21.5t21.5 -52.5q0 -13 -8 -33l-109 -209q-19 -34 -55 -34q-26 0 -45 18.5t-19 44.5q0 4 7 25l90 217q17 45 67 45zM332 82q0 -37 -27 -64.5t-65 -27.5t-65.5 27.5t-27.5 64.5v860q0 37 27.5 64.5t65.5 27.5t65 -27.5t27 -64.5v-860z" />
    <glyph glyph-name="icircumflex" unicode="&#xee;" horiz-adv-x="479" 
d="M489 1239q13 -22 13 -37q0 -26 -20 -45.5t-46 -19.5q-37 0 -55 32l-160 269l-160 -269q-18 -32 -55 -32q-26 0 -45.5 19.5t-19.5 45.5q0 17 12 37l119 178q50 72 149 72q100 0 150 -72zM332 82q0 -37 -27 -64.5t-65 -27.5t-65.5 27.5t-27.5 64.5v860q0 37 27.5 64.5
t65.5 27.5t65 -27.5t27 -64.5v-860z" />
    <glyph glyph-name="idieresis" unicode="&#xef;" horiz-adv-x="479" 
d="M63 1130q-106 0 -106 99q0 100 109 100q108 0 108 -100q0 -99 -111 -99zM412 1130q-107 0 -107 99q0 100 109 100q108 0 108 -100q0 -99 -110 -99zM332 82q0 -37 -27 -64.5t-65 -27.5t-65.5 27.5t-27.5 64.5v860q0 37 27.5 64.5t65.5 27.5t65 -27.5t27 -64.5v-860z" />
    <glyph glyph-name="ntilde" unicode="&#xf1;" 
d="M678 1188q-58 0 -146 49q-6 3 -20 11.5t-20.5 12t-19 9.5t-20.5 8.5t-19 5t-21 2.5q-26 0 -47 -14q-19 -12 -39 -30t-30 -23t-20 0t-14.5 19t1 37.5t22.5 49.5q57 84 143 84q25 0 52.5 -9t43 -16.5t47.5 -25.5q5 -3 22 -12.5t25.5 -14t23 -10.5t27.5 -9t25 -3q29 0 47 12
q13 9 26.5 20.5t20 17.5t15.5 12.5t13 6.5t13 -2q11 -5 15 -22t-5 -45.5t-34 -59.5q-52 -61 -127 -61zM647 1040q42 0 82.5 -10.5t82.5 -37.5t73 -69t51 -111t20 -157v-573q0 -37 -27 -64.5t-65 -27.5t-65 27.5t-27 64.5v551q0 256 -192 256q-109 0 -178.5 -91.5
t-69.5 -260.5v-455q0 -37 -27 -64.5t-65 -27.5t-65.5 27.5t-27.5 64.5v864q0 36 26.5 62t62.5 26q32 0 57.5 -23t28.5 -55l10 -86q108 170 315 170z" />
    <glyph glyph-name="ograve" unicode="&#xf2;" horiz-adv-x="1052" 
d="M336 1411q0 31 22.5 53.5t53.5 22.5q24 0 43.5 -14.5t27.5 -36.5l72 -213q11 -32 -8 -59t-53 -27q-41 0 -58 39l-94 204q-6 12 -6 31zM526 1038q219 0 334 -143t115 -383t-115 -383t-334 -143t-333.5 143t-114.5 383t114.5 383t333.5 143zM526 125q129 0 192.5 101
t63.5 286q0 184 -63.5 285.5t-192.5 101.5t-192.5 -101.5t-63.5 -285.5q0 -185 63.5 -286t192.5 -101z" />
    <glyph glyph-name="oacute" unicode="&#xf3;" horiz-adv-x="1052" 
d="M625 1487q29 0 50 -21.5t21 -52.5q0 -13 -8 -33l-108 -209q-19 -34 -56 -34q-26 0 -44.5 18.5t-18.5 44.5q0 7 6 25l90 217q8 20 26.5 32.5t41.5 12.5zM526 1038q219 0 334 -143t115 -383t-115 -383t-334 -143t-333.5 143t-114.5 383t114.5 383t333.5 143zM526 125
q129 0 192.5 101t63.5 286q0 184 -63.5 285.5t-192.5 101.5t-192.5 -101.5t-63.5 -285.5q0 -185 63.5 -286t192.5 -101z" />
    <glyph glyph-name="ocircumflex" unicode="&#xf4;" horiz-adv-x="1052" 
d="M776 1239q12 -20 12 -37q0 -26 -19.5 -45.5t-45.5 -19.5q-37 0 -55 32l-160 269l-160 -269q-18 -32 -55 -32q-26 0 -46 19.5t-20 45.5q0 15 13 37l118 178q50 72 150 72q99 0 149 -72zM526 1038q219 0 334 -143t115 -383t-115 -383t-334 -143t-333.5 143t-114.5 383
t114.5 383t333.5 143zM526 125q129 0 192.5 101t63.5 286q0 184 -63.5 285.5t-192.5 101.5t-192.5 -101.5t-63.5 -285.5q0 -185 63.5 -286t192.5 -101z" />
    <glyph glyph-name="otilde" unicode="&#xf5;" horiz-adv-x="1052" 
d="M653 1188q-57 0 -145 49q-4 3 -19.5 11.5t-21.5 11.5l-19 9.5t-21 9t-19 5t-21 2.5q-26 0 -47 -14q-19 -12 -38.5 -30t-29.5 -23t-20 0q-11 5 -15 19t1 37.5t22 49.5q57 84 143 84q25 0 52.5 -8.5t44 -17t47.5 -25.5q5 -3 22 -12.5t25.5 -14t23 -10.5t27.5 -9t25 -3
q29 0 47 12q13 9 26.5 20.5t20 17.5t15.5 12.5t13 6.5t13 -2q11 -5 14.5 -22t-5.5 -45.5t-34 -59.5q-52 -61 -127 -61zM526 1038q219 0 334 -143t115 -383t-115 -383t-334 -143t-333.5 143t-114.5 383t114.5 383t333.5 143zM526 125q129 0 192.5 101t63.5 286
q0 184 -63.5 285.5t-192.5 101.5t-192.5 -101.5t-63.5 -285.5q0 -185 63.5 -286t192.5 -101z" />
    <glyph glyph-name="odieresis" unicode="&#xf6;" horiz-adv-x="1052" 
d="M350 1130q-106 0 -106 99q0 100 108 100q109 0 109 -100q0 -99 -111 -99zM698 1130q-106 0 -106 99q0 100 108 100q109 0 109 -100q0 -99 -111 -99zM526 1038q219 0 334 -143t115 -383t-115 -383t-334 -143t-333.5 143t-114.5 383t114.5 383t333.5 143zM526 125
q129 0 192.5 101t63.5 286q0 184 -63.5 285.5t-192.5 101.5t-192.5 -101.5t-63.5 -285.5q0 -185 63.5 -286t192.5 -101z" />
    <glyph glyph-name="divide" unicode="&#xf7;" horiz-adv-x="1058" 
d="M532 1085q55 0 82 -30t27 -82q0 -47 -30 -78t-83 -31q-51 0 -80.5 31.5t-29.5 77.5q0 51 30 81.5t84 30.5zM881 643q25 0 42 16t17 41q0 23 -17 39.5t-42 16.5h-703q-25 0 -42 -16t-17 -40q0 -25 17 -41t42 -16h703zM532 535q55 0 82 -30.5t27 -82.5q0 -47 -30 -78
t-83 -31q-51 0 -80.5 31.5t-29.5 77.5q0 51 30 82t84 31z" />
    <glyph glyph-name="oslash" unicode="&#xf8;" horiz-adv-x="1052" 
d="M811 946q164 -133 164 -432q0 -240 -115 -383t-334 -143q-113 0 -200 41l-45 -88q-15 -27 -43 -27q-22 0 -37 14.5t-15 36.5q0 9 7 23l49 94q-164 136 -164 432q0 240 114.5 383t333.5 143q111 0 197 -39l45 86q14 29 47 29q22 0 36.5 -15.5t14.5 -37.5q0 -14 -6 -23z
M270 514q0 -172 56 -272l327 624q-53 35 -127 35q-129 0 -192.5 -101.5t-63.5 -285.5zM526 127q129 0 192.5 101t63.5 286q0 174 -55 272l-330 -624q53 -35 129 -35z" />
    <glyph glyph-name="ugrave" unicode="&#xf9;" 
d="M326 1411q0 31 22 53.5t53 22.5q24 0 44 -14.5t28 -36.5l72 -213q11 -32 -8.5 -59t-53.5 -27q-40 0 -57 39l-94 204q-6 12 -6 31zM434 -16q-42 0 -82.5 10.5t-82.5 37.5t-73 69t-51 111t-20 157v573q0 37 27 64.5t65 27.5t65 -27.5t27 -64.5v-551q0 -49 8 -90t28 -81
t60 -62.5t97 -22.5q109 0 178.5 91.5t69.5 260.5v455q0 37 27 64.5t65 27.5t65 -27.5t27 -64.5v-864q0 -36 -26 -62t-62 -26q-32 0 -57.5 23t-28.5 55l-10 86q-108 -170 -316 -170z" />
    <glyph glyph-name="uacute" unicode="&#xfa;" 
d="M635 1487q29 0 50.5 -21.5t21.5 -52.5q0 -11 -9 -33l-108 -209q-19 -34 -55 -34q-26 0 -45 18.5t-19 44.5q0 7 6 25l90 217q8 20 26.5 32.5t41.5 12.5zM434 -16q-42 0 -82.5 10.5t-82.5 37.5t-73 69t-51 111t-20 157v573q0 37 27 64.5t65 27.5t65 -27.5t27 -64.5v-551
q0 -49 8 -90t28 -81t60 -62.5t97 -22.5q109 0 178.5 91.5t69.5 260.5v455q0 37 27 64.5t65 27.5t65 -27.5t27 -64.5v-864q0 -36 -26 -62t-62 -26q-32 0 -57.5 23t-28.5 55l-10 86q-108 -170 -316 -170z" />
    <glyph glyph-name="ucircumflex" unicode="&#xfb;" 
d="M766 1239q12 -20 12 -37q0 -26 -19.5 -45.5t-45.5 -19.5q-38 0 -56 32l-159 269l-160 -269q-18 -32 -55 -32q-26 0 -46 19.5t-20 45.5q0 17 12 37l119 178q50 72 150 72q99 0 149 -72zM434 -16q-42 0 -82.5 10.5t-82.5 37.5t-73 69t-51 111t-20 157v573q0 37 27 64.5
t65 27.5t65 -27.5t27 -64.5v-551q0 -49 8 -90t28 -81t60 -62.5t97 -22.5q109 0 178.5 91.5t69.5 260.5v455q0 37 27 64.5t65 27.5t65 -27.5t27 -64.5v-864q0 -36 -26 -62t-62 -26q-32 0 -57.5 23t-28.5 55l-10 86q-108 -170 -316 -170z" />
    <glyph glyph-name="udieresis" unicode="&#xfc;" 
d="M340 1130q-107 0 -107 99q0 100 109 100t109 -100q0 -99 -111 -99zM688 1130q-106 0 -106 99q0 100 108 100q109 0 109 -100q0 -99 -111 -99zM434 -16q-42 0 -82.5 10.5t-82.5 37.5t-73 69t-51 111t-20 157v573q0 37 27 64.5t65 27.5t65 -27.5t27 -64.5v-551q0 -49 8 -90
t28 -81t60 -62.5t97 -22.5q109 0 178.5 91.5t69.5 260.5v455q0 37 27 64.5t65 27.5t65 -27.5t27 -64.5v-864q0 -36 -26 -62t-62 -26q-32 0 -57.5 23t-28.5 55l-10 86q-108 -170 -316 -170z" />
    <glyph glyph-name="yacute" unicode="&#xfd;" horiz-adv-x="970" 
d="M504 1137q-26 0 -45 18.5t-19 44.5q0 7 6 25l91 217q17 45 67 45q29 0 50.5 -21.5t21.5 -52.5q0 -13 -8 -33l-109 -209q-19 -34 -55 -34zM811 1034q37 0 62.5 -26.5t25.5 -63.5q0 -18 -2 -26l-293 -975q-43 -142 -122 -206.5t-249 -74.5q-32 -2 -56.5 21t-24.5 55t23 55
t54 23q85 0 142.5 30.5t81.5 112.5l12 41q-85 0 -111 82l-278 831q-4 16 -4 29q0 38 26.5 65t63.5 27q30 0 53.5 -17.5t32.5 -45.5l254 -801l221 799q8 28 32 46.5t56 18.5z" />
    <glyph glyph-name="ydieresis" unicode="&#xff;" horiz-adv-x="970" 
d="M309 1130q-106 0 -106 99q0 100 108 100q109 0 109 -100q0 -99 -111 -99zM657 1130q-106 0 -106 99q0 100 108 100q109 0 109 -100q0 -99 -111 -99zM811 1034q37 0 62.5 -26.5t25.5 -63.5q0 -18 -2 -26l-293 -975q-43 -142 -122 -206.5t-249 -74.5q-32 -2 -56.5 21
t-24.5 55t23 55t54 23q85 0 142.5 30.5t81.5 112.5l12 41q-85 0 -111 82l-278 831q-4 16 -4 29q0 38 26.5 65t63.5 27q30 0 53.5 -17.5t32.5 -45.5l254 -801l221 799q8 28 32 46.5t56 18.5z" />
    <glyph glyph-name="Amacron" unicode="&#x100;" horiz-adv-x="1292" 
d="M414 1575q-22 0 -39 16t-17 39q0 21 17 37t39 16h469q22 0 38.5 -15.5t16.5 -37.5q0 -23 -16.5 -39t-38.5 -16h-469zM1186 117q4 -20 4 -31q0 -40 -28 -68t-68 -28q-32 0 -58 19t-35 48l-106 344h-510l-109 -348q-8 -28 -31.5 -45.5t-54.5 -17.5q-37 0 -63.5 26.5
t-26.5 63.5q0 13 4 29l373 1140q18 55 64.5 90t105.5 35t105.5 -35t64.5 -90zM434 557h412l-195 629q-7 26 -10 39q-3 -8 -12 -39z" />
    <glyph glyph-name="amacron" unicode="&#x101;" horiz-adv-x="1009" 
d="M272 1235q-22 0 -38.5 16t-16.5 39q0 22 16.5 37.5t38.5 15.5h469q22 0 39 -16t17 -37q0 -23 -17 -39t-39 -16h-469zM891 150q27 -8 44 -30.5t17 -51.5q0 -37 -27.5 -61.5t-64.5 -20.5q-100 11 -149 55q-34 31 -41 80q-29 -59 -100 -98t-181 -39q-153 0 -235 81.5
t-82 223.5q0 158 105 237t333 82l145 2v107q0 182 -204 182q-101 0 -234 -53q-8 -4 -29 -4q-31 0 -53 22t-22 54q0 24 14.5 43.5t36.5 27.5q147 49 307 49q172 0 270.5 -76.5t98.5 -226.5v-504q0 -67 51 -81zM653 344v137l-125 -2q-61 -1 -105.5 -9t-82 -27t-57 -55
t-19.5 -89q0 -81 44.5 -128.5t107.5 -47.5q20 0 44 3.5t60 17.5t64 36t48.5 65t20.5 99z" />
    <glyph glyph-name="Abreve" unicode="&#x102;" horiz-adv-x="1292" 
d="M647 1522q-109 0 -176.5 42t-95.5 140q-7 28 10 51t45 23q10 0 14 -2q19 -5 29.5 -19.5t20 -37.5t18.5 -36q42 -63 135 -63q121 0 162 117q13 41 55 41q28 0 45.5 -23t10.5 -51q-28 -98 -96 -140t-177 -42zM1186 117q4 -20 4 -31q0 -40 -28 -68t-68 -28q-32 0 -58 19
t-35 48l-106 344h-510l-109 -348q-8 -28 -31.5 -45.5t-54.5 -17.5q-37 0 -63.5 26.5t-26.5 63.5q0 13 4 29l373 1140q18 55 64.5 90t105.5 35t105.5 -35t64.5 -90zM434 557h412l-195 629q-7 26 -10 39q-3 -8 -12 -39z" />
    <glyph glyph-name="abreve" unicode="&#x103;" horiz-adv-x="1009" 
d="M506 1159q-121 0 -191.5 52t-99.5 167q-6 28 11 52t46 24q20 0 36.5 -13t21.5 -32q22 -77 62 -114.5t114 -37.5t113 37.5t61 114.5q4 20 20.5 32.5t36.5 12.5q29 0 47.5 -24t10.5 -52q-27 -114 -97.5 -166.5t-191.5 -52.5zM891 150q27 -8 44 -30.5t17 -51.5
q0 -37 -27.5 -61.5t-64.5 -20.5q-100 11 -149 55q-34 31 -41 80q-29 -59 -100 -98t-181 -39q-153 0 -235 81.5t-82 223.5q0 158 105 237t333 82l145 2v107q0 182 -204 182q-101 0 -234 -53q-8 -4 -29 -4q-31 0 -53 22t-22 54q0 24 14.5 43.5t36.5 27.5q147 49 307 49
q172 0 270.5 -76.5t98.5 -226.5v-504q0 -67 51 -81zM653 344v137l-125 -2q-61 -1 -105.5 -9t-82 -27t-57 -55t-19.5 -89q0 -81 44.5 -128.5t107.5 -47.5q20 0 44 3.5t60 17.5t64 36t48.5 65t20.5 99z" />
    <glyph glyph-name="Aogonek" unicode="&#x104;" horiz-adv-x="1292" 
d="M1169 -225q26 4 47 -14t21 -44q0 -21 -14 -36.5t-35 -18.5q-49 -10 -103 -10q-41 0 -75.5 8.5t-65 27.5t-48 53.5t-17.5 82.5q0 133 149 192q-21 18 -27 41l-106 344h-510l-109 -348q-8 -28 -31.5 -45.5t-54.5 -17.5q-37 0 -63.5 26.5t-26.5 63.5q0 13 4 29l373 1140
q18 55 64.5 90t105.5 35t105.5 -35t64.5 -90l369 -1132q4 -20 4 -31q0 -35 -23 -62t-57 -32q-18 -8 -49 -25q-70 -37 -70 -106q0 -92 111 -92q37 0 67 6zM434 557h412l-195 629q-7 26 -10 39q-3 -8 -12 -39z" />
    <glyph glyph-name="aogonek" unicode="&#x105;" horiz-adv-x="1009" 
d="M928 -225q26 4 46.5 -14t20.5 -44q0 -21 -14 -36.5t-35 -18.5q-49 -10 -102 -10q-56 0 -100 14.5t-75.5 54.5t-31.5 103q0 130 137 180q-35 12 -63 37q-34 31 -41 80q-29 -59 -100 -98t-181 -39q-153 0 -235 81.5t-82 223.5q0 158 105 237t333 82l145 2v107
q0 182 -204 182q-101 0 -234 -53q-8 -4 -29 -4q-31 0 -53 22t-22 54q0 24 14.5 43.5t36.5 27.5q147 49 307 49q172 0 270.5 -76.5t98.5 -226.5v-504q0 -67 51 -81q27 -8 44 -30.5t17 -51.5t-17.5 -51.5t-43.5 -28.5q-23 -8 -78 -31q-63 -31 -63 -96q0 -92 110 -92q38 0 68 6
zM653 344v137l-125 -2q-61 -1 -105.5 -9t-82 -27t-57 -55t-19.5 -89q0 -81 44.5 -128.5t107.5 -47.5q20 0 44 3.5t60 17.5t64 36t48.5 65t20.5 99z" />
    <glyph glyph-name="Cacute" unicode="&#x106;" horiz-adv-x="1187" 
d="M813 1763q29 0 49.5 -20t20.5 -49q0 -15 -13 -37l-86 -133q-18 -29 -51 -29q-25 0 -43 18t-18 43q0 11 8 27l72 141q17 39 61 39zM750 1384q162 0 288 -53q24 -9 39 -30t15 -48q0 -35 -24.5 -59.5t-59.5 -24.5q-19 0 -33 7q-123 51 -246 51q-90 0 -161.5 -30t-118 -81
t-77.5 -121t-44 -146t-13 -161q0 -257 116 -405t312 -148q112 0 230 47q12 6 31 6q35 0 60.5 -25.5t25.5 -60.5q0 -27 -16.5 -48.5t-43.5 -30.5q-125 -43 -291 -43q-160 0 -281 50t-196.5 143t-113 220t-37.5 287q0 76 8 145.5t29 141.5t52.5 132t82 114t115.5 91t155 58.5
t197 21.5z" />
    <glyph glyph-name="cacute" unicode="&#x107;" horiz-adv-x="901" 
d="M569 1487q29 0 50.5 -21.5t21.5 -52.5q0 -13 -8 -33l-109 -209q-19 -34 -55 -34q-26 0 -44.5 18.5t-18.5 44.5q0 7 6 25l90 217q17 45 67 45zM575 123q71 0 158 37q12 6 29 6q31 0 53.5 -22.5t22.5 -53.5q0 -26 -15 -46t-37 -28q-95 -32 -239 -32q-153 0 -260 67
t-158 183t-51 274q0 113 27.5 207.5t82.5 167.5t146 114t211 41q129 0 229 -32q22 -8 36.5 -27t14.5 -43q0 -31 -21.5 -53.5t-51.5 -22.5q-3 0 -27 6q-87 33 -170 33q-145 0 -215 -106t-70 -275q0 -80 16.5 -148t51 -125t95.5 -89.5t142 -32.5z" />
    <glyph glyph-name="Cdotaccent" unicode="&#x10a;" horiz-adv-x="1187" 
d="M696 1556q-47 0 -72.5 25t-25.5 72q0 46 25.5 71t74.5 25q99 0 99 -96q0 -97 -101 -97zM750 1384q162 0 288 -53q24 -9 39 -30t15 -48q0 -35 -24.5 -59.5t-59.5 -24.5q-19 0 -33 7q-123 51 -246 51q-90 0 -161.5 -30t-118 -81t-77.5 -121t-44 -146t-13 -161
q0 -257 116 -405t312 -148q112 0 230 47q12 6 31 6q35 0 60.5 -25.5t25.5 -60.5q0 -27 -16.5 -48.5t-43.5 -30.5q-125 -43 -291 -43q-160 0 -281 50t-196.5 143t-113 220t-37.5 287q0 76 8 145.5t29 141.5t52.5 132t82 114t115.5 91t155 58.5t197 21.5z" />
    <glyph glyph-name="cdotaccent" unicode="&#x10b;" horiz-adv-x="901" 
d="M449 1130q-107 0 -107 99q0 98 109 98q108 0 108 -98q0 -99 -110 -99zM575 123q71 0 158 37q12 6 29 6q31 0 53.5 -22.5t22.5 -53.5q0 -26 -15 -46t-37 -28q-95 -32 -239 -32q-153 0 -260 67t-158 183t-51 274q0 113 27.5 207.5t82.5 167.5t146 114t211 41q129 0 229 -32
q22 -8 36.5 -27t14.5 -43q0 -31 -21.5 -53.5t-51.5 -22.5q-3 0 -27 6q-87 33 -170 33q-145 0 -215 -106t-70 -275q0 -80 16.5 -148t51 -125t95.5 -89.5t142 -32.5z" />
    <glyph glyph-name="Ccaron" unicode="&#x10c;" horiz-adv-x="1187" 
d="M932 1669l-127 -125q-27 -27 -48.5 -38t-64.5 -11q-40 0 -62.5 11t-49.5 38l-127 125q-17 21 -17 41q0 24 18 41.5t42 17.5q30 0 47 -20l149 -174l150 174q17 20 47 20q24 0 41.5 -17.5t17.5 -41.5q0 -21 -16 -41zM750 1384q162 0 288 -53q24 -9 39 -30t15 -48
q0 -35 -24.5 -59.5t-59.5 -24.5q-19 0 -33 7q-123 51 -246 51q-90 0 -161.5 -30t-118 -81t-77.5 -121t-44 -146t-13 -161q0 -257 116 -405t312 -148q112 0 230 47q12 6 31 6q35 0 60.5 -25.5t25.5 -60.5q0 -27 -16.5 -48.5t-43.5 -30.5q-125 -43 -291 -43q-160 0 -281 50
t-196.5 143t-113 220t-37.5 287q0 76 8 145.5t29 141.5t52.5 132t82 114t115.5 91t155 58.5t197 21.5z" />
    <glyph glyph-name="ccaron" unicode="&#x10d;" horiz-adv-x="901" 
d="M731 1386l-119 -178q-49 -71 -149 -71q-101 0 -150 71l-118 178q-13 22 -13 37q0 26 20 46t46 20q37 0 55 -33l160 -268l160 268q18 33 55 33q26 0 45.5 -20t19.5 -46q0 -17 -12 -37zM575 123q71 0 158 37q12 6 29 6q31 0 53.5 -22.5t22.5 -53.5q0 -26 -15 -46t-37 -28
q-95 -32 -239 -32q-153 0 -260 67t-158 183t-51 274q0 113 27.5 207.5t82.5 167.5t146 114t211 41q129 0 229 -32q22 -8 36.5 -27t14.5 -43q0 -31 -21.5 -53.5t-51.5 -22.5q-3 0 -27 6q-87 33 -170 33q-145 0 -215 -106t-70 -275q0 -80 16.5 -148t51 -125t95.5 -89.5
t142 -32.5z" />
    <glyph glyph-name="Dcaron" unicode="&#x10e;" horiz-adv-x="1331" 
d="M901 1669l-127 -125q-19 -19 -29.5 -27.5t-31.5 -15t-51 -6.5q-40 0 -63 11t-50 38l-127 125q-16 20 -16 41q0 24 17.5 41.5t41.5 17.5q30 0 47 -20l150 -174l149 174q17 20 47 20q24 0 42 -17.5t18 -41.5q0 -20 -17 -41zM623 1364q126 0 227 -34t170.5 -94.5t116 -146.5
t67.5 -187.5t21 -219.5q0 -148 -34.5 -269.5t-105 -215t-188.5 -145.5t-274 -52h-336q-101 0 -101 100v1164q0 100 101 100h336zM623 156q397 0 397 528q0 524 -397 524h-244v-1052h244z" />
    <glyph glyph-name="dcaron" unicode="&#x10f;" horiz-adv-x="1132" 
d="M463 1038q194 0 297 -143v457q0 37 27 64.5t65 27.5t65 -27.5t27 -64.5v-1276q0 -35 -25.5 -60.5t-60.5 -25.5q-34 0 -58.5 22t-27.5 54l-8 71q-109 -153 -295 -153q-189 0 -291 139t-102 397q0 249 100.5 383.5t286.5 134.5zM1081 1374q-2 28 17.5 49t48.5 21
q27 0 46 -21t17 -49l-12 -248q-2 -22 -16.5 -36.5t-34.5 -14.5q-22 0 -36.5 14.5t-16.5 36.5zM514 123q122 0 188 102.5t66 292.5q0 183 -65 282t-185 99q-119 0 -183.5 -102t-64.5 -291q0 -184 63.5 -283.5t180.5 -99.5z" />
    <glyph glyph-name="Emacron" unicode="&#x112;" horiz-adv-x="1140" 
d="M836 1683q22 0 38.5 -15.5t16.5 -37.5q0 -23 -16.5 -39t-38.5 -16h-469q-22 0 -39 16t-17 39q0 21 17 37t39 16h469zM971 166q34 0 59 -24.5t25 -59.5q0 -34 -25 -58t-59 -24h-684q-101 0 -101 100v1164q0 100 101 100h665q34 0 59 -24t25 -58q0 -35 -25 -59.5t-59 -24.5
h-573v-432h463q34 0 58 -24t24 -58t-24 -58t-58 -24h-463v-436h592z" />
    <glyph glyph-name="emacron" unicode="&#x113;" horiz-adv-x="1011" 
d="M270 1235q-22 0 -38.5 16t-16.5 39q0 22 16.5 37.5t38.5 15.5h469q22 0 39 -16t17 -37q0 -23 -17 -39t-39 -16h-469zM526 1038q86 0 156.5 -24.5t127.5 -76.5t88.5 -143t31.5 -214v-41q-3 -49 -31 -74t-76 -25h-553q27 -317 303 -317q98 0 207 37q30 10 41 10
q30 0 49 -21t19 -51q0 -50 -47 -67q-129 -47 -283 -47q-239 0 -360 138.5t-121 387.5q0 252 118.5 390t329.5 138zM737 567q2 12 2 68q0 128 -56 196t-161 68q-120 0 -183 -87t-71 -245h469z" />
    <glyph glyph-name="Edotaccent" unicode="&#x116;" horiz-adv-x="1140" 
d="M600 1556q-47 0 -72.5 25t-25.5 72q0 46 25.5 71t74.5 25q98 0 98 -96q0 -97 -100 -97zM971 166q34 0 59 -24.5t25 -59.5q0 -34 -25 -58t-59 -24h-684q-101 0 -101 100v1164q0 100 101 100h665q34 0 59 -24t25 -58q0 -35 -25 -59.5t-59 -24.5h-573v-432h463q34 0 58 -24
t24 -58t-24 -58t-58 -24h-463v-436h592z" />
    <glyph glyph-name="edotaccent" unicode="&#x117;" horiz-adv-x="1011" 
d="M502 1130q-107 0 -107 99q0 98 109 98q108 0 108 -98q0 -99 -110 -99zM526 1038q86 0 156.5 -24.5t127.5 -76.5t88.5 -143t31.5 -214v-41q-3 -49 -31 -74t-76 -25h-553q27 -317 303 -317q98 0 207 37q30 10 41 10q30 0 49 -21t19 -51q0 -50 -47 -67q-129 -47 -283 -47
q-239 0 -360 138.5t-121 387.5q0 252 118.5 390t329.5 138zM737 567q2 12 2 68q0 128 -56 196t-161 68q-120 0 -183 -87t-71 -245h469z" />
    <glyph glyph-name="Eogonek" unicode="&#x118;" horiz-adv-x="1140" 
d="M1026 -227q26 4 47 -14t21 -44q0 -21 -14.5 -36.5t-35.5 -18.5q-49 -10 -102 -10q-56 0 -100 14.5t-75.5 54.5t-31.5 103q0 120 117 178h-565q-101 0 -101 100v1164q0 100 101 100h665q34 0 59 -24t25 -58q0 -35 -25 -59.5t-59 -24.5h-573v-432h463q34 0 58 -24t24 -58
t-24 -58t-58 -24h-463v-436h592q34 0 59 -24.5t25 -59.5q0 -49 -45 -72q-5 -4 -17.5 -10t-34 -15.5t-40.5 -19.5q-70 -37 -70 -106q0 -92 110 -92q38 0 68 6z" />
    <glyph glyph-name="eogonek" unicode="&#x119;" horiz-adv-x="1011" 
d="M526 1038q86 0 156.5 -24.5t127.5 -76.5t88.5 -143t31.5 -214v-41q-3 -49 -31 -74t-76 -25h-553q27 -317 303 -317q98 0 207 37q30 10 41 10q30 0 49 -21t19 -51q0 -50 -47 -67q-68 -22 -86 -25q-2 -1 -31 -14t-51 -25q-70 -37 -70 -106q0 -92 111 -92q37 0 67 6
q26 4 47 -14t21 -44q0 -21 -14 -36.5t-35 -18.5q-49 -10 -103 -10q-41 0 -75.5 8.5t-65 27.5t-48 53.5t-17.5 82.5q0 101 86 160h-19q-239 0 -360 138.5t-121 387.5q0 252 118.5 390t329.5 138zM737 567q2 12 2 68q0 128 -56 196t-161 68q-120 0 -183 -87t-71 -245h469z" />
    <glyph glyph-name="Ecaron" unicode="&#x11a;" horiz-adv-x="1140" 
d="M836 1669l-127 -125q-27 -27 -48.5 -38t-64.5 -11q-40 0 -63 11t-50 38l-127 125q-16 20 -16 41q0 24 17.5 41.5t41.5 17.5q30 0 47 -20l150 -174l149 174q17 20 48 20q24 0 41.5 -17.5t17.5 -41.5q0 -21 -16 -41zM971 166q34 0 59 -24.5t25 -59.5q0 -34 -25 -58t-59 -24
h-684q-101 0 -101 100v1164q0 100 101 100h665q34 0 59 -24t25 -58q0 -35 -25 -59.5t-59 -24.5h-573v-432h463q34 0 58 -24t24 -58t-24 -58t-58 -24h-463v-436h592z" />
    <glyph glyph-name="ecaron" unicode="&#x11b;" horiz-adv-x="1011" 
d="M367 1208l-119 178q-12 20 -12 37q0 26 19.5 46t45.5 20q37 0 55 -33l160 -268l160 268q18 33 55 33q26 0 46 -20t20 -46q0 -15 -13 -37l-118 -178q-49 -71 -150 -71q-100 0 -149 71zM526 1038q86 0 156.5 -24.5t127.5 -76.5t88.5 -143t31.5 -214v-41q-3 -49 -31 -74
t-76 -25h-553q27 -317 303 -317q98 0 207 37q30 10 41 10q30 0 49 -21t19 -51q0 -50 -47 -67q-129 -47 -283 -47q-239 0 -360 138.5t-121 387.5q0 252 118.5 390t329.5 138zM737 567q2 12 2 68q0 128 -56 196t-161 68q-120 0 -183 -87t-71 -245h469z" />
    <glyph glyph-name="Gbreve" unicode="&#x11e;" horiz-adv-x="1284" 
d="M643 1522q-109 0 -176.5 42t-95.5 140q-7 28 10 51t45 23q10 0 14 -2q19 -5 29.5 -19.5t20 -37.5t18.5 -36q42 -63 135 -63q121 0 162 117q13 41 55 41q28 0 45 -23t10 -51q-28 -98 -95.5 -140t-176.5 -42zM1049 705q102 0 102 -103l-2 -420q0 -84 -68 -121
q-150 -81 -350 -81q-290 0 -456 175t-166 509q0 116 20 218t68 195.5t119.5 160.5t182 106.5t249.5 39.5q173 0 323 -61q25 -11 40 -32.5t15 -47.5q0 -37 -25.5 -62.5t-62.5 -25.5q-24 0 -37 8q-132 66 -274 66q-111 0 -192 -40t-128.5 -114.5t-69.5 -171t-22 -219.5
q0 -262 100 -405.5t302 -143.5q142 0 260 53v361h-215q-32 0 -55 23t-23 55t23 55t55 23h287z" />
    <glyph glyph-name="gbreve" unicode="&#x11f;" horiz-adv-x="1091" 
d="M547 1159q-121 0 -191.5 52t-99.5 167q-6 28 11 52t46 24q20 0 36.5 -13t21.5 -32q22 -77 62 -114.5t114 -37.5t113 37.5t61 114.5q4 20 20.5 32.5t36.5 12.5q29 0 47.5 -24t10.5 -52q-27 -114 -97.5 -166.5t-191.5 -52.5zM766 954q3 33 29 56.5t59 23.5q36 0 62 -26
t26 -62v-848q0 -91 -26.5 -168.5t-79.5 -138t-140.5 -95t-201.5 -34.5q-189 0 -344 78q-41 20 -41 67q0 32 22 54t53 22q20 0 37 -10q136 -72 266 -72q125 0 199 72t74 221v78q-96 -127 -273 -127q-65 0 -123.5 17.5t-110.5 57t-89.5 97t-59.5 142t-22 188.5q0 231 104 361
t291 130q181 0 285 -129zM520 184q121 0 186.5 92t65.5 261q0 73 -12.5 134.5t-40.5 114.5t-79.5 83t-121.5 30q-57 0 -100.5 -20.5t-70 -54t-43.5 -80.5t-23.5 -96t-6.5 -105q0 -167 60 -263t186 -96z" />
    <glyph glyph-name="Gdotaccent" unicode="&#x120;" horiz-adv-x="1284" 
d="M643 1556q-47 0 -72.5 25t-25.5 72q0 46 25.5 71t74.5 25q98 0 98 -96q0 -97 -100 -97zM1049 705q102 0 102 -103l-2 -420q0 -84 -68 -121q-150 -81 -350 -81q-290 0 -456 175t-166 509q0 116 20 218t68 195.5t119.5 160.5t182 106.5t249.5 39.5q173 0 323 -61
q25 -11 40 -32.5t15 -47.5q0 -37 -25.5 -62.5t-62.5 -25.5q-24 0 -37 8q-132 66 -274 66q-111 0 -192 -40t-128.5 -114.5t-69.5 -171t-22 -219.5q0 -262 100 -405.5t302 -143.5q142 0 260 53v361h-215q-32 0 -55 23t-23 55t23 55t55 23h287z" />
    <glyph glyph-name="gdotaccent" unicode="&#x121;" horiz-adv-x="1091" 
d="M545 1130q-107 0 -107 99q0 98 109 98q108 0 108 -98q0 -99 -110 -99zM766 954q3 33 29 56.5t59 23.5q36 0 62 -26t26 -62v-848q0 -91 -26.5 -168.5t-79.5 -138t-140.5 -95t-201.5 -34.5q-189 0 -344 78q-41 20 -41 67q0 32 22 54t53 22q20 0 37 -10q136 -72 266 -72
q125 0 199 72t74 221v78q-96 -127 -273 -127q-65 0 -123.5 17.5t-110.5 57t-89.5 97t-59.5 142t-22 188.5q0 231 104 361t291 130q181 0 285 -129zM520 184q121 0 186.5 92t65.5 261q0 73 -12.5 134.5t-40.5 114.5t-79.5 83t-121.5 30q-57 0 -100.5 -20.5t-70 -54
t-43.5 -80.5t-23.5 -96t-6.5 -105q0 -167 60 -263t186 -96z" />
    <glyph glyph-name="Gcommaaccent" unicode="&#x122;" horiz-adv-x="1284" 
d="M1049 705q102 0 102 -103l-2 -420q0 -84 -68 -121q-150 -81 -350 -81q-290 0 -456 175t-166 509q0 116 20 218t68 195.5t119.5 160.5t182 106.5t249.5 39.5q173 0 323 -61q25 -11 40 -32.5t15 -47.5q0 -37 -25.5 -62.5t-62.5 -25.5q-24 0 -37 8q-132 66 -274 66
q-111 0 -192 -40t-128.5 -114.5t-69.5 -171t-22 -219.5q0 -262 100 -405.5t302 -143.5q142 0 260 53v361h-215q-32 0 -55 23t-23 55t23 55t55 23h287zM647 -141q27 0 45 -19.5t17 -46.5q-1 -19 -2.5 -37.5t-2.5 -32.5t-3.5 -31t-4 -26t-5.5 -26.5t-5.5 -23.5t-6 -25.5
t-5.5 -24.5q-5 -19 -20.5 -31t-35.5 -12q-26 0 -43 20.5t-12 46.5q19 100 21 205q0 26 18.5 45t44.5 19z" />
    <glyph glyph-name="gcommaaccent" unicode="&#x123;" horiz-adv-x="1091" 
d="M543 1165q-27 0 -45 19.5t-17 46.5q1 19 2.5 37.5t2.5 32.5t3.5 31t4 26t5.5 26.5t5.5 23.5t6 25.5t5.5 24.5q5 19 20 31t35 12q26 0 43 -20.5t13 -46.5q-19 -100 -21 -205q0 -26 -18.5 -45t-44.5 -19zM766 954q3 33 29 56.5t59 23.5q36 0 62 -26t26 -62v-848
q0 -91 -26.5 -168.5t-79.5 -138t-140.5 -95t-201.5 -34.5q-189 0 -344 78q-41 20 -41 67q0 32 22 54t53 22q20 0 37 -10q136 -72 266 -72q125 0 199 72t74 221v78q-96 -127 -273 -127q-65 0 -123.5 17.5t-110.5 57t-89.5 97t-59.5 142t-22 188.5q0 231 104 361t291 130
q181 0 285 -129zM520 184q121 0 186.5 92t65.5 261q0 73 -12.5 134.5t-40.5 114.5t-79.5 83t-121.5 30q-57 0 -100.5 -20.5t-70 -54t-43.5 -80.5t-23.5 -96t-6.5 -105q0 -167 60 -263t186 -96z" />
    <glyph glyph-name="Hbar" unicode="&#x126;" horiz-adv-x="1368" 
d="M1274 1137q23 0 40 -17.5t17 -40.5t-17 -40t-40 -17h-92v-934q0 -40 -28.5 -68t-68.5 -28t-68 28t-28 68v528h-610v-528q0 -40 -28 -68t-68 -28t-68.5 28t-28.5 68v934h-92q-23 0 -40 17t-17 40t17 40.5t40 17.5h92v141q0 40 28.5 68t68.5 28t68 -28t28 -68v-141h610v141
q0 40 28 68t68 28t68.5 -28t28.5 -68v-141h92zM989 782v240h-610v-240h610z" />
    <glyph glyph-name="hbar" unicode="&#x127;" 
d="M647 1038q42 0 82.5 -10.5t82.5 -37.5t73 -69t51 -111t20 -157v-571q0 -37 -27 -64.5t-65 -27.5t-65 27.5t-27 64.5v549q0 256 -192 256q-109 0 -178.5 -91t-69.5 -259v-455q0 -37 -27 -64.5t-65 -27.5t-65.5 27.5t-27.5 64.5v1114h-53q-23 0 -40 17t-17 40t17 40.5
t40 17.5h53v41q0 37 27 64.5t64 27.5q38 0 65 -27.5t27 -64.5v-41h348q23 0 40 -17.5t17 -40.5t-17 -40t-40 -17h-348v-152q0 -110 -6 -186l8 14q110 166 315 166z" />
    <glyph glyph-name="Imacron" unicode="&#x12a;" horiz-adv-x="565" 
d="M518 1683q22 0 38.5 -15.5t16.5 -37.5q0 -23 -16.5 -39t-38.5 -16h-469q-22 0 -38.5 16t-16.5 39q0 22 16.5 37.5t38.5 15.5h469zM379 86q0 -40 -28 -68t-68 -28t-68.5 28t-28.5 68v1192q0 40 28.5 68t68.5 28t68 -28t28 -68v-1192z" />
    <glyph glyph-name="imacron" unicode="&#x12b;" horiz-adv-x="479" 
d="M475 1343q22 0 38.5 -15.5t16.5 -37.5q0 -23 -16.5 -39t-38.5 -16h-469q-22 0 -38.5 16t-16.5 39q0 22 16.5 37.5t38.5 15.5h469zM332 82q0 -37 -27 -64.5t-65 -27.5t-65.5 27.5t-27.5 64.5v860q0 37 27.5 64.5t65.5 27.5t65 -27.5t27 -64.5v-860z" />
    <glyph glyph-name="Iogonek" unicode="&#x12e;" horiz-adv-x="565" 
d="M356 -227q26 4 47 -14t21 -44q0 -21 -14 -36.5t-35 -18.5q-49 -10 -103 -10q-41 0 -75.5 8.5t-65 27.5t-48 53.5t-17.5 82.5q0 135 151 192q-31 31 -31 72v1192q0 40 28.5 68t68.5 28t68 -28t28 -68v-1192q0 -35 -21.5 -60.5t-54.5 -33.5q-35 -15 -55 -27
q-70 -37 -70 -106q0 -92 111 -92q37 0 67 6z" />
    <glyph glyph-name="iogonek" unicode="&#x12f;" horiz-adv-x="479" 
d="M238 1130q-107 0 -107 99q0 98 109 98q108 0 108 -98q0 -99 -110 -99zM307 -231q26 4 47 -14t21 -44q0 -21 -14 -36.5t-35 -18.5q-49 -10 -103 -10q-56 0 -100 14.5t-75.5 54.5t-31.5 103q0 139 162 196q-31 28 -31 68v860q0 37 27.5 64.5t65.5 27.5t65 -27.5t27 -64.5
v-860q0 -45 -39 -76q-2 -2 -10 -6q-1 -1 -4.5 -2t-4.5 -2q-28 -9 -75 -35q-70 -37 -70 -106q0 -93 111 -93q32 0 67 7z" />
    <glyph glyph-name="Idotaccent" unicode="&#x130;" horiz-adv-x="565" 
d="M283 1556q-47 0 -73 25t-26 72q0 46 26 71t75 25q98 0 98 -96q0 -97 -100 -97zM379 86q0 -40 -28 -68t-68 -28t-68.5 28t-28.5 68v1192q0 40 28.5 68t68.5 28t68 -28t28 -68v-1192z" />
    <glyph glyph-name="dotlessi" unicode="&#x131;" horiz-adv-x="479" 
d="M332 82q0 -37 -27 -64.5t-65 -27.5t-65.5 27.5t-27.5 64.5v860q0 37 27.5 64.5t65.5 27.5t65 -27.5t27 -64.5v-860z" />
    <glyph glyph-name="Kcommaaccent" unicode="&#x136;" horiz-adv-x="1212" 
d="M1067 137q10 -20 10 -47q0 -41 -28.5 -70.5t-69.5 -29.5q-63 0 -90 55l-295 592l-215 2v-553q0 -40 -28 -68t-68 -28t-68.5 28t-28.5 68v1192q0 40 28.5 68t68.5 28t68 -28t28 -68v-473h213l287 520q24 49 79 49q38 0 65.5 -27t27.5 -65q0 -28 -13 -47l-286 -500z
M610 -141q27 0 45 -19.5t17 -46.5q-1 -19 -2.5 -37.5t-2.5 -32.5t-3.5 -31t-4 -26t-5.5 -26.5t-5.5 -23.5t-6 -25.5t-5.5 -24.5q-5 -19 -20 -31t-35 -12q-26 0 -43 20.5t-13 46.5q19 100 21 205q0 26 18.5 45t44.5 19z" />
    <glyph glyph-name="kcommaaccent" unicode="&#x137;" horiz-adv-x="983" 
d="M866 131q13 -19 13 -49q0 -40 -24.5 -66t-68.5 -26q-26 0 -49 14t-35 37l-235 440h-135v-399q0 -37 -27 -64.5t-65 -27.5t-65.5 27.5t-27.5 64.5v1270q0 37 27.5 64.5t65.5 27.5t65 -27.5t27 -64.5v-719h153l209 338q22 34 41 49.5t53 15.5q47 0 68 -37.5t-8 -91.5
l-221 -352zM496 -141q26 0 44 -19t17 -47q-1 -19 -2.5 -37.5t-2.5 -32.5t-3.5 -31t-4 -26t-5.5 -26.5t-5.5 -23.5t-6 -25.5t-5.5 -24.5q-5 -19 -20 -31t-35 -12q-26 0 -43 20.5t-12 46.5q18 94 20 205q0 26 19 45t45 19z" />
    <glyph glyph-name="Lacute" unicode="&#x139;" horiz-adv-x="1017" 
d="M406 1763q29 0 49 -20t20 -49q0 -17 -12 -37l-86 -133q-18 -29 -51 -29q-25 0 -43.5 18t-18.5 43q0 11 8 27l72 141q8 17 25 28t37 11zM848 0q49 0 74.5 22t25.5 62q0 82 -100 82h-455v1098q0 49 -25 74.5t-71 25.5t-71 -25.5t-25 -74.5v-1164q0 -100 100 -100h547z" />
    <glyph glyph-name="lacute" unicode="&#x13a;" horiz-adv-x="569" 
d="M338 1833q29 0 49.5 -20.5t20.5 -49.5q0 -15 -13 -37l-86 -133q-17 -28 -51 -28q-25 0 -43 18t-18 43q0 11 8 27l71 141q8 17 25 28t37 11zM389 -20q-62 0 -101.5 6.5t-76.5 28t-54.5 67t-17.5 117.5v1153q0 37 27 64.5t65 27.5t65.5 -27.5t27.5 -64.5v-1127
q0 -60 20.5 -83t63.5 -23q25 0 49 6q31 6 57.5 -16t26.5 -54q0 -26 -17.5 -45t-42.5 -22q-44 -8 -92 -8z" />
    <glyph glyph-name="Lcommaaccent" unicode="&#x13b;" horiz-adv-x="1017" 
d="M848 0q49 0 74.5 22t25.5 62q0 82 -100 82h-455v1098q0 49 -25 74.5t-71 25.5t-71 -25.5t-25 -74.5v-1164q0 -100 100 -100h547zM514 -141q26 0 44 -19t17 -47q-2 -49 -8 -94t-10 -64t-16 -69q-5 -19 -20.5 -31t-35.5 -12q-26 0 -43 20.5t-12 46.5q19 100 21 205
q0 26 18.5 45t44.5 19z" />
    <glyph glyph-name="lcommaaccent" unicode="&#x13c;" horiz-adv-x="569" 
d="M389 -20q-62 0 -101.5 6.5t-76.5 28t-54.5 67t-17.5 117.5v1153q0 37 27 64.5t65 27.5t65.5 -27.5t27.5 -64.5v-1127q0 -60 20.5 -83t63.5 -23q25 0 49 6q31 6 57.5 -16t26.5 -54q0 -26 -17.5 -45t-42.5 -22q-44 -8 -92 -8zM330 -141q26 0 44 -19t17 -47
q-1 -19 -2.5 -37.5t-2.5 -32.5t-3.5 -31t-4 -26t-5.5 -26.5t-5.5 -23.5t-6 -25.5t-5.5 -24.5q-5 -19 -20 -31t-35 -12q-26 0 -43 20.5t-12 46.5q18 94 20 205q0 26 19 45t45 19z" />
    <glyph glyph-name="Lcaron" unicode="&#x13d;" horiz-adv-x="1017" 
d="M629 1305q-2 28 17 48.5t48 20.5q28 0 47 -20.5t17 -48.5l-13 -248q-1 -22 -16 -36.5t-35 -14.5q-22 0 -36.5 14.5t-16.5 36.5zM848 0q49 0 74.5 22t25.5 62q0 82 -100 82h-455v1098q0 49 -25 74.5t-71 25.5t-71 -25.5t-25 -74.5v-1164q0 -100 100 -100h547z" />
    <glyph glyph-name="lcaron" unicode="&#x13e;" horiz-adv-x="610" 
d="M389 -20q-62 0 -101.5 6.5t-76.5 28t-54.5 67t-17.5 117.5v1153q0 37 27 64.5t65 27.5t65.5 -27.5t27.5 -64.5v-1127q0 -60 20.5 -83t63.5 -23q25 0 49 6q31 6 57.5 -16t26.5 -54q0 -26 -17.5 -45t-42.5 -22q-44 -8 -92 -8zM467 1374q-2 28 17 49t48 21q28 0 47 -21
t17 -49l-12 -248q-1 -22 -16.5 -36.5t-35.5 -14.5q-22 0 -36.5 14.5t-16.5 36.5z" />
    <glyph glyph-name="Lslash" unicode="&#x141;" horiz-adv-x="1228" 
d="M874 166q34 0 59 -24.5t25 -59.5q0 -34 -25 -58t-59 -24h-573q-100 0 -100 100v490l-117 -39q-31 -11 -58.5 8.5t-27.5 52.5q0 21 13 38.5t32 23.5l158 53v551q0 40 28 68t68 28t68 -28t28 -68v-485l330 110q31 11 58.5 -8.5t27.5 -52.5q0 -21 -13 -38.5t-32 -23.5
l-371 -125v-489h481z" />
    <glyph glyph-name="lslash" unicode="&#x142;" horiz-adv-x="563" 
d="M457 125q31 6 57.5 -16t26.5 -54q0 -26 -17.5 -45t-42.5 -22q-44 -8 -92 -8q-62 0 -101.5 6.5t-76.5 28t-54.5 67t-17.5 117.5v514l-55 -19q-31 -10 -58.5 10t-27.5 52q0 21 13 38t32 23l96 33v502q0 37 27 64.5t65 27.5t65.5 -27.5t27.5 -64.5v-439l92 31
q31 10 58.5 -9.5t27.5 -51.5q0 -22 -12 -39t-31 -23l-135 -45v-551q0 -60 20.5 -83t63.5 -23q25 0 49 6z" />
    <glyph glyph-name="Nacute" unicode="&#x143;" horiz-adv-x="1357" 
d="M782 1763q29 0 49.5 -20t20.5 -49q0 -17 -12 -37l-86 -133q-18 -29 -52 -29q-25 0 -43 18t-18 43q0 11 8 27l72 141q17 39 61 39zM481 1284q-18 38 -53.5 59t-77.5 21q-70 0 -117 -47.5t-47 -118.5v-1108q0 -41 28 -69.5t69 -28.5t68.5 28.5t27.5 69.5v641l-21 412
l523 -1061q19 -38 53.5 -60t75.5 -22q69 0 115 47.5t46 118.5v1110q0 41 -27.5 69.5t-68.5 28.5t-68.5 -28.5t-27.5 -69.5v-641l25 -410z" />
    <glyph glyph-name="nacute" unicode="&#x144;" 
d="M670 1487q29 0 50 -21.5t21 -52.5q0 -13 -8 -33l-108 -209q-19 -34 -56 -34q-26 0 -44.5 18.5t-18.5 44.5q0 7 6 25l90 217q8 20 26.5 32.5t41.5 12.5zM647 1040q42 0 82.5 -10.5t82.5 -37.5t73 -69t51 -111t20 -157v-573q0 -37 -27 -64.5t-65 -27.5t-65 27.5t-27 64.5
v551q0 256 -192 256q-109 0 -178.5 -91.5t-69.5 -260.5v-455q0 -37 -27 -64.5t-65 -27.5t-65.5 27.5t-27.5 64.5v864q0 36 26.5 62t62.5 26q32 0 57.5 -23t28.5 -55l10 -86q108 170 315 170z" />
    <glyph glyph-name="Ncommaaccent" unicode="&#x145;" horiz-adv-x="1357" 
d="M481 1284q-18 38 -53.5 59t-77.5 21q-70 0 -117 -47.5t-47 -118.5v-1108q0 -41 28 -69.5t69 -28.5t68.5 28.5t27.5 69.5v641l-21 412l523 -1061q19 -38 53.5 -60t75.5 -22q69 0 115 47.5t46 118.5v1110q0 41 -27.5 69.5t-68.5 28.5t-68.5 -28.5t-27.5 -69.5v-641l25 -410
zM670 -141q26 0 44 -19t17 -47q-1 -19 -2.5 -37.5t-2.5 -32.5t-3.5 -31t-4 -26t-5.5 -26.5t-5.5 -23.5t-6 -25.5t-5.5 -24.5q-5 -19 -20 -31t-35 -12q-26 0 -43 20.5t-12 46.5q18 94 20 205q0 26 19 45t45 19z" />
    <glyph glyph-name="ncommaaccent" unicode="&#x146;" 
d="M647 1040q42 0 82.5 -10.5t82.5 -37.5t73 -69t51 -111t20 -157v-573q0 -37 -27 -64.5t-65 -27.5t-65 27.5t-27 64.5v551q0 256 -192 256q-109 0 -178.5 -91.5t-69.5 -260.5v-455q0 -37 -27 -64.5t-65 -27.5t-65.5 27.5t-27.5 64.5v864q0 36 26.5 62t62.5 26
q32 0 57.5 -23t28.5 -55l10 -86q108 170 315 170zM567 -141q27 0 45 -19.5t17 -46.5q-1 -19 -2.5 -37.5t-2.5 -32.5t-3.5 -31t-4 -26t-5.5 -26.5t-5.5 -23.5t-6 -25.5t-5.5 -24.5q-5 -19 -20 -31t-35 -12q-26 0 -43 20.5t-13 46.5q19 100 21 205q0 26 18.5 45t44.5 19z" />
    <glyph glyph-name="Ncaron" unicode="&#x147;" horiz-adv-x="1357" 
d="M901 1669l-127 -125q-19 -19 -29.5 -27.5t-31.5 -15t-51 -6.5q-40 0 -63 11t-50 38l-127 125q-16 20 -16 41q0 24 17.5 41.5t41.5 17.5q30 0 47 -20l150 -174l149 174q17 20 47 20q24 0 42 -17.5t18 -41.5q0 -20 -17 -41zM481 1284q-18 38 -53.5 59t-77.5 21
q-70 0 -117 -47.5t-47 -118.5v-1108q0 -41 28 -69.5t69 -28.5t68.5 28.5t27.5 69.5v641l-21 412l523 -1061q19 -38 53.5 -60t75.5 -22q69 0 115 47.5t46 118.5v1110q0 41 -27.5 69.5t-68.5 28.5t-68.5 -28.5t-27.5 -69.5v-641l25 -410z" />
    <glyph glyph-name="ncaron" unicode="&#x148;" 
d="M831 1386l-118 -178q-49 -71 -150 -71q-100 0 -149 71l-119 178q-12 20 -12 37q0 26 19.5 46t45.5 20q37 0 55 -33l160 -268l160 268q18 33 55 33q26 0 46 -20t20 -46q0 -15 -13 -37zM647 1040q42 0 82.5 -10.5t82.5 -37.5t73 -69t51 -111t20 -157v-573q0 -37 -27 -64.5
t-65 -27.5t-65 27.5t-27 64.5v551q0 256 -192 256q-109 0 -178.5 -91.5t-69.5 -260.5v-455q0 -37 -27 -64.5t-65 -27.5t-65.5 27.5t-27.5 64.5v864q0 36 26.5 62t62.5 26q32 0 57.5 -23t28.5 -55l10 -86q108 170 315 170z" />
    <glyph glyph-name="Omacron" unicode="&#x14c;" horiz-adv-x="1398" 
d="M936 1683q22 0 38.5 -15.5t16.5 -37.5q0 -23 -16.5 -39t-38.5 -16h-469q-22 0 -38.5 16t-16.5 39q0 22 16.5 37.5t38.5 15.5h469zM700 1384q145 0 258.5 -52.5t185 -147.5t108 -222t36.5 -280t-36.5 -280t-108 -222t-185 -147.5t-258.5 -52.5t-258.5 52.5t-185 147.5
t-108.5 222t-37 280t37 280t108.5 222t185 147.5t258.5 52.5zM700 135q100 0 175 41t119.5 116t66.5 172.5t22 217.5t-22 217.5t-66.5 172.5t-119.5 116t-175 41q-80 0 -145 -27t-109 -75.5t-74 -117.5t-43.5 -150.5t-13.5 -176.5t13.5 -176.5t43.5 -150.5t74 -117.5
t109 -75.5t145 -27z" />
    <glyph glyph-name="omacron" unicode="&#x14d;" horiz-adv-x="1052" 
d="M762 1343q22 0 38.5 -15.5t16.5 -37.5q0 -23 -16.5 -39t-38.5 -16h-469q-22 0 -38.5 16t-16.5 39q0 22 16.5 37.5t38.5 15.5h469zM526 1038q219 0 334 -143t115 -383t-115 -383t-334 -143t-333.5 143t-114.5 383t114.5 383t333.5 143zM526 125q129 0 192.5 101t63.5 286
q0 184 -63.5 285.5t-192.5 101.5t-192.5 -101.5t-63.5 -285.5q0 -185 63.5 -286t192.5 -101z" />
    <glyph glyph-name="Ohungarumlaut" unicode="&#x150;" horiz-adv-x="1398" 
d="M635 1763q29 0 49.5 -21t20.5 -50q0 -19 -11 -37l-82 -131q-16 -29 -53 -29q-25 0 -43 19t-18 45q0 14 6 26l67 137q8 18 25.5 29.5t38.5 11.5zM924 1763q29 0 49 -21t20 -50q0 -20 -10 -37l-82 -131q-16 -29 -53 -29q-25 0 -43.5 19t-18.5 45q0 12 7 26l67 137
q8 18 25.5 29.5t38.5 11.5zM700 1384q145 0 258.5 -52.5t185 -147.5t108 -222t36.5 -280t-36.5 -280t-108 -222t-185 -147.5t-258.5 -52.5t-258.5 52.5t-185 147.5t-108.5 222t-37 280t37 280t108.5 222t185 147.5t258.5 52.5zM700 135q100 0 175 41t119.5 116t66.5 172.5
t22 217.5t-22 217.5t-66.5 172.5t-119.5 116t-175 41q-80 0 -145 -27t-109 -75.5t-74 -117.5t-43.5 -150.5t-13.5 -176.5t13.5 -176.5t43.5 -150.5t74 -117.5t109 -75.5t145 -27z" />
    <glyph glyph-name="ohungarumlaut" unicode="&#x151;" horiz-adv-x="1052" 
d="M467 1487q32 0 54 -22.5t22 -53.5q0 -21 -6 -33l-99 -204q-8 -16 -23.5 -26.5t-33.5 -10.5q-27 0 -46.5 19.5t-19.5 45.5q0 7 4 23l78 213q7 22 27 35.5t43 13.5zM756 1487q32 0 53.5 -22.5t21.5 -53.5q0 -21 -6 -33l-98 -204q-19 -37 -57 -37q-28 0 -47 19.5t-19 45.5
q0 7 4 23l78 213q7 22 27 35.5t43 13.5zM526 1038q219 0 334 -143t115 -383t-115 -383t-334 -143t-333.5 143t-114.5 383t114.5 383t333.5 143zM526 125q129 0 192.5 101t63.5 286q0 184 -63.5 285.5t-192.5 101.5t-192.5 -101.5t-63.5 -285.5q0 -185 63.5 -286t192.5 -101z
" />
    <glyph glyph-name="OE" unicode="&#x152;" horiz-adv-x="2048" 
d="M1878 166q34 0 59 -24.5t25 -59.5q0 -34 -25 -58t-59 -24h-684q-100 0 -100 100v25q-148 -145 -394 -145q-145 0 -258.5 52.5t-185 147.5t-108.5 222t-37 280t37 280t108.5 222t185 147.5t258.5 52.5q246 0 394 -145v25q0 100 100 100h666q34 0 59 -24t25 -58
q0 -35 -25 -59.5t-59 -24.5h-574v-432h463q34 0 58 -24t24 -58t-24 -58t-58 -24h-463v-436h592zM700 135q100 0 175 41t119.5 116t66.5 172.5t22 217.5t-22 217.5t-66.5 172.5t-119.5 116t-175 41q-80 0 -145 -27t-109 -75.5t-74 -117.5t-43.5 -150.5t-13.5 -176.5
t13.5 -176.5t43.5 -150.5t74 -117.5t109 -75.5t145 -27z" />
    <glyph glyph-name="oe" unicode="&#x153;" horiz-adv-x="1716" 
d="M1231 1038q86 0 156 -24.5t127 -76.5t88.5 -143t31.5 -214v-41q-6 -99 -106 -99h-553q27 -317 303 -317q98 0 207 37q30 10 41 10q30 0 48.5 -21t18.5 -51q0 -50 -47 -67q-129 -47 -282 -47q-260 0 -385 170q-117 -168 -353 -168q-219 0 -333.5 143t-114.5 383t114.5 383
t333.5 143q236 0 353 -168q118 168 352 168zM526 125q129 0 192.5 101t63.5 286q0 184 -63.5 285.5t-192.5 101.5t-192.5 -101.5t-63.5 -285.5q0 -185 63.5 -286t192.5 -101zM1442 567q2 12 2 68q0 128 -56 196t-161 68q-119 0 -182 -83.5t-72 -237.5v-11h469z" />
    <glyph glyph-name="Racute" unicode="&#x154;" horiz-adv-x="1263" 
d="M670 1495q-25 0 -43.5 18t-18.5 43q0 11 8 27l72 141q8 17 25 28t37 11q29 0 49 -20t20 -49q0 -17 -12 -37l-86 -133q-18 -29 -51 -29zM842 563l248 -426q14 -25 14 -49q0 -40 -29 -69t-69 -29q-59 0 -84 49l-287 500h-256v-453q0 -40 -28 -68t-68 -28t-68.5 28t-28.5 68
v1178q0 100 101 100h379q119 0 211.5 -32t149 -87.5t85.5 -126.5t29 -153q0 -322 -299 -402zM379 694h246q91 0 154.5 22t96.5 61.5t47 85t13 102.5q-1 130 -71 186.5t-210 56.5h-276v-514z" />
    <glyph glyph-name="racute" unicode="&#x155;" horiz-adv-x="669" 
d="M375 1137q-26 0 -45 18.5t-19 44.5q0 7 6 25l91 217q17 45 67 45q29 0 50.5 -21.5t21.5 -52.5q0 -13 -8 -33l-109 -209q-19 -34 -55 -34zM610 1006q23 -26 23 -60q0 -38 -27.5 -65t-64.5 -25h-19q-190 0 -190 -276v-498q0 -37 -27 -64.5t-65 -27.5t-65.5 27.5t-27.5 64.5
v866q0 35 25.5 60.5t60.5 25.5q33 0 58 -22.5t28 -55.5l9 -79q58 118 170 149q76 20 112 -20z" />
    <glyph glyph-name="Rcommaaccent" unicode="&#x156;" horiz-adv-x="1263" 
d="M842 563l248 -426q14 -25 14 -49q0 -40 -29 -69t-69 -29q-59 0 -84 49l-287 500h-256v-453q0 -40 -28 -68t-68 -28t-68.5 28t-28.5 68v1178q0 100 101 100h379q119 0 211.5 -32t149 -87.5t85.5 -126.5t29 -153q0 -322 -299 -402zM379 694h246q91 0 154.5 22t96.5 61.5
t47 85t13 102.5q-1 130 -71 186.5t-210 56.5h-276v-514zM637 -141q26 0 44 -19t17 -47q-2 -49 -8 -94t-10 -64t-16 -69q-5 -19 -20.5 -31t-35.5 -12q-26 0 -43 20.5t-12 46.5q18 94 20 205q0 26 19 45t45 19z" />
    <glyph glyph-name="rcommaaccent" unicode="&#x157;" horiz-adv-x="669" 
d="M610 1006q23 -26 23 -60q0 -38 -27.5 -65t-64.5 -25h-19q-190 0 -190 -276v-498q0 -37 -27 -64.5t-65 -27.5t-65.5 27.5t-27.5 64.5v866q0 35 25.5 60.5t60.5 25.5q33 0 58 -22.5t28 -55.5l9 -79q58 118 170 149q76 20 112 -20zM238 -141q26 0 44 -19t17 -47
q-1 -19 -2.5 -37.5t-2.5 -32.5t-3.5 -31t-4 -26t-5.5 -26.5t-5.5 -23.5t-6 -25.5t-5.5 -24.5q-5 -19 -20 -31t-35 -12q-26 0 -43 20.5t-12 46.5q18 94 20 205q0 26 19 45t45 19z" />
    <glyph glyph-name="Rcaron" unicode="&#x158;" horiz-adv-x="1263" 
d="M516 1544l-127 125q-16 20 -16 41q0 24 17.5 41.5t41.5 17.5q30 0 47 -20l150 -174l149 174q17 20 47 20q25 0 42.5 -17.5t17.5 -41.5q0 -20 -17 -41l-127 -125q-19 -19 -29.5 -27.5t-31.5 -15t-51 -6.5q-40 0 -63 11t-50 38zM842 563l248 -426q14 -25 14 -49
q0 -40 -29 -69t-69 -29q-59 0 -84 49l-287 500h-256v-453q0 -40 -28 -68t-68 -28t-68.5 28t-28.5 68v1178q0 100 101 100h379q119 0 211.5 -32t149 -87.5t85.5 -126.5t29 -153q0 -322 -299 -402zM379 694h246q91 0 154.5 22t96.5 61.5t47 85t13 102.5q-1 130 -71 186.5
t-210 56.5h-276v-514z" />
    <glyph glyph-name="rcaron" unicode="&#x159;" horiz-adv-x="669" 
d="M584 1489q26 0 45.5 -20t19.5 -46q0 -17 -12 -37l-119 -178q-49 -71 -149 -71q-101 0 -150 71l-119 178q-12 20 -12 37q0 26 20 46t46 20q37 0 55 -33l160 -268l159 268q18 33 56 33zM498 1026q76 20 112 -20q23 -26 23 -60q0 -38 -27.5 -65t-64.5 -25h-19
q-190 0 -190 -276v-498q0 -37 -27 -64.5t-65 -27.5t-65.5 27.5t-27.5 64.5v866q0 35 25.5 60.5t60.5 25.5q33 0 58 -22.5t28 -55.5l9 -79q58 118 170 149z" />
    <glyph glyph-name="Sacute" unicode="&#x15a;" horiz-adv-x="1120" 
d="M678 1763q29 0 49.5 -20t20.5 -49q0 -15 -13 -37l-86 -133q-18 -29 -51 -29q-25 0 -43 18t-18 43q0 11 8 27l71 141q8 17 25 28t37 11zM158 68q-49 22 -49 77q0 35 24.5 59.5t59.5 24.5q51 -16 92 -32q135 -62 266 -62q127 0 200.5 55.5t73.5 165.5q0 43 -13.5 77t-35 58
t-60.5 46t-78 37.5t-99 35.5q-59 19 -95 32.5t-86.5 36t-81.5 43.5t-66 52.5t-54 67t-32 84t-13 104.5q0 180 121 267t329 87q166 0 336 -69q24 -9 39.5 -30.5t15.5 -47.5q0 -35 -25.5 -60.5t-60.5 -25.5q-24 0 -37 8q-148 70 -270 70q-109 0 -176.5 -47t-67.5 -142
q0 -56 25.5 -100t74.5 -76t93 -51.5t108 -40.5q152 -52 199 -74q147 -69 192 -188q23 -62 23 -141q0 -103 -38.5 -180t-107 -121.5t-154 -66t-189.5 -21.5q-114 0 -201.5 23.5t-181.5 64.5z" />
    <glyph glyph-name="sacute" unicode="&#x15b;" horiz-adv-x="849" 
d="M524 1487q29 0 50.5 -21.5t21.5 -52.5q0 -13 -8 -33l-109 -209q-19 -34 -55 -34q-26 0 -45 18.5t-19 44.5q0 4 7 25l90 217q17 45 67 45zM420 -16q-142 0 -289 57q-51 20 -51 74q0 32 23 56t55 24q19 0 37 -11q120 -61 217 -61q82 0 133 39t51 110q0 41 -16.5 72
t-46.5 50.5t-56.5 30t-62.5 19.5q-38 10 -65 18.5t-65 23.5t-64.5 30.5t-55.5 40t-47 52t-29.5 66t-11.5 83.5q0 127 88.5 203.5t273.5 76.5q123 0 256 -45q23 -8 37 -27.5t14 -45.5q0 -31 -21.5 -53.5t-53.5 -22.5q-19 0 -31 6q-114 49 -213 49q-162 0 -162 -125
q0 -66 44.5 -100t152.5 -70q58 -20 95 -34t79 -35t67 -43.5t47.5 -52.5t32 -69t9.5 -87q0 -73 -25 -129t-62 -87.5t-89 -51t-98 -25.5t-97 -6z" />
    <glyph glyph-name="Scedilla" unicode="&#x15e;" horiz-adv-x="1120" 
d="M1030 369q0 -172 -100.5 -265t-270.5 -116q-3 -5 -9 -14q-34 -52 -32 -65q2 -14 42 -26l6 -2q18 -5 30.5 -9.5t34 -17.5t35.5 -28.5t24.5 -43t10.5 -61.5q0 -94 -71.5 -135t-186.5 -41q-89 0 -144 17q-34 10 -34 35q0 31 18 42t35 7q79 -17 119 -17q23 0 44 3.5t45 13
t38 31t14 51.5q0 25 -8 42.5t-26 29t-28 16t-34 12.5q-50 17 -66 45q-20 34 12 107q-76 1 -149.5 16t-115.5 30t-105 42q-49 22 -49 77q0 35 24.5 59.5t59.5 24.5q51 -16 92 -32q135 -62 266 -62q127 0 200.5 55.5t73.5 165.5q0 43 -13.5 77t-35 58t-60.5 46t-78 37.5
t-99 35.5q-59 19 -95 32.5t-86.5 36t-81.5 43.5t-66 52.5t-54 67t-32 84t-13 104.5q0 180 121 267t329 87q166 0 336 -69q24 -9 39.5 -30.5t15.5 -47.5q0 -35 -25.5 -60.5t-60.5 -25.5q-24 0 -37 8q-148 70 -270 70q-109 0 -176.5 -47t-67.5 -142q0 -56 25.5 -100t74.5 -76
t93 -51.5t108 -40.5q152 -52 199 -74q147 -69 192 -188q23 -62 23 -141z" />
    <glyph glyph-name="scedilla" unicode="&#x15f;" horiz-adv-x="849" 
d="M791 283q0 -79 -27.5 -137t-75 -90.5t-98 -48.5t-109.5 -21q-37 -60 -39 -70q-4 -17 25 -28q8 -3 22 -7q18 -5 30.5 -9.5t34.5 -17.5t35.5 -28.5t24.5 -43t11 -61.5q0 -94 -71.5 -135t-186.5 -41q-89 0 -144 17q-35 11 -35 35q0 31 18.5 42t35.5 7q79 -17 118 -17
q32 0 60.5 6t55 29.5t26.5 63.5q0 25 -8 42.5t-26 29t-28 16t-34 12.5q-50 17 -66 45q-6 12 -8 25t1.5 29t8 28t12.5 33q-108 10 -223 53q-51 20 -51 74q0 32 23 56t55 24q19 0 37 -11q120 -61 217 -61q82 0 133 39t51 110q0 41 -16.5 72t-46.5 50.5t-56.5 30t-62.5 19.5
q-38 10 -65 18.5t-65 23.5t-64.5 30.5t-55.5 40t-47 52t-29.5 66t-11.5 83.5q0 127 88.5 203.5t273.5 76.5q123 0 256 -45q23 -8 37 -27.5t14 -45.5q0 -31 -21.5 -53.5t-53.5 -22.5q-19 0 -31 6q-114 49 -213 49q-162 0 -162 -125q0 -66 44.5 -100t152.5 -70q58 -20 95 -34
t79 -35t67 -43.5t47.5 -52.5t32 -69t9.5 -87z" />
    <glyph glyph-name="Scaron" unicode="&#x160;" horiz-adv-x="1120" 
d="M797 1669l-127 -125q-27 -27 -48.5 -38t-64.5 -11q-40 0 -63 11t-50 38l-127 125q-16 20 -16 41q0 24 17.5 41.5t41.5 17.5q31 0 48 -20l149 -174l150 174q17 20 47 20q24 0 41.5 -17.5t17.5 -41.5q0 -21 -16 -41zM158 68q-49 22 -49 77q0 35 24.5 59.5t59.5 24.5
q51 -16 92 -32q135 -62 266 -62q127 0 200.5 55.5t73.5 165.5q0 43 -13.5 77t-35 58t-60.5 46t-78 37.5t-99 35.5q-59 19 -95 32.5t-86.5 36t-81.5 43.5t-66 52.5t-54 67t-32 84t-13 104.5q0 180 121 267t329 87q166 0 336 -69q24 -9 39.5 -30.5t15.5 -47.5
q0 -35 -25.5 -60.5t-60.5 -25.5q-24 0 -37 8q-148 70 -270 70q-109 0 -176.5 -47t-67.5 -142q0 -56 25.5 -100t74.5 -76t93 -51.5t108 -40.5q152 -52 199 -74q147 -69 192 -188q23 -62 23 -141q0 -103 -38.5 -180t-107 -121.5t-154 -66t-189.5 -21.5q-114 0 -201.5 23.5
t-181.5 64.5z" />
    <glyph glyph-name="scaron" unicode="&#x161;" horiz-adv-x="849" 
d="M686 1386l-119 -178q-49 -71 -149 -71q-101 0 -150 71l-118 178q-13 22 -13 37q0 26 20 46t46 20q37 0 55 -33l160 -268l160 268q18 33 55 33q26 0 45.5 -20t19.5 -46q0 -17 -12 -37zM420 -16q-142 0 -289 57q-51 20 -51 74q0 32 23 56t55 24q19 0 37 -11
q120 -61 217 -61q82 0 133 39t51 110q0 41 -16.5 72t-46.5 50.5t-56.5 30t-62.5 19.5q-38 10 -65 18.5t-65 23.5t-64.5 30.5t-55.5 40t-47 52t-29.5 66t-11.5 83.5q0 127 88.5 203.5t273.5 76.5q123 0 256 -45q23 -8 37 -27.5t14 -45.5q0 -31 -21.5 -53.5t-53.5 -22.5
q-19 0 -31 6q-114 49 -213 49q-162 0 -162 -125q0 -66 44.5 -100t152.5 -70q58 -20 95 -34t79 -35t67 -43.5t47.5 -52.5t32 -69t9.5 -87q0 -73 -25 -129t-62 -87.5t-89 -51t-98 -25.5t-97 -6z" />
    <glyph glyph-name="uni0162" unicode="&#x162;" horiz-adv-x="1097" 
d="M963 1364q34 0 59 -24t25 -58q0 -35 -25 -59.5t-59 -24.5h-318v-1112q0 -40 -28 -68t-68 -28t-68 28t-28 68v1112h-318q-34 0 -59 24t-25 58q0 35 25 59.5t59 24.5h828zM553 -141q26 0 44 -19t17 -47q-2 -49 -8 -94t-10 -64t-16 -69q-5 -19 -20.5 -31t-35.5 -12
q-26 0 -43 20.5t-12 46.5q18 94 20 205q0 26 19 45t45 19z" />
    <glyph glyph-name="uni0163" unicode="&#x163;" horiz-adv-x="692" 
d="M547 137q33 9 61.5 -12.5t28.5 -56.5q0 -26 -16 -45t-41 -25q-57 -14 -123 -14q-132 0 -205.5 60t-73.5 208v635h-74q-28 0 -48.5 19.5t-20.5 47.5q0 29 20.5 49.5t48.5 20.5h74v193q0 37 27 64.5t65 27.5t65 -27.5t27 -64.5v-193h179q28 0 48.5 -20t20.5 -48
q0 -29 -20.5 -49t-48.5 -20h-179v-623q0 -139 109 -139q36 0 76 12zM385 -141q26 0 44 -19t17 -47q-2 -49 -8 -94t-10 -64t-16 -69q-5 -19 -20.5 -31t-35.5 -12q-26 0 -43 20.5t-12 46.5q19 100 21 205q0 26 18.5 45t44.5 19z" />
    <glyph glyph-name="Tcaron" unicode="&#x164;" horiz-adv-x="1097" 
d="M432 1544l-127 125q-16 20 -16 41q0 24 17.5 41.5t41.5 17.5q30 0 47 -20l150 -174l149 174q17 20 47 20q25 0 42.5 -17.5t17.5 -41.5q0 -20 -17 -41l-127 -125q-19 -19 -29.5 -27.5t-31.5 -15t-51 -6.5q-40 0 -63 11t-50 38zM963 1364q34 0 59 -24t25 -58
q0 -35 -25 -59.5t-59 -24.5h-318v-1112q0 -40 -28 -68t-68 -28t-68 28t-28 68v1112h-318q-34 0 -59 24t-25 58q0 35 25 59.5t59 24.5h828z" />
    <glyph glyph-name="tcaron" unicode="&#x165;" horiz-adv-x="692" 
d="M467 1477q-2 28 17 48.5t48 20.5q28 0 47 -20.5t17 -48.5l-12 -248q-1 -22 -16.5 -36.5t-35.5 -14.5q-22 0 -36.5 14.5t-16.5 36.5zM547 137q33 9 61.5 -12.5t28.5 -56.5q0 -26 -16 -45t-41 -25q-57 -14 -123 -14q-132 0 -205.5 60t-73.5 208v635h-74q-28 0 -48.5 19.5
t-20.5 47.5q0 29 20.5 49.5t48.5 20.5h74v193q0 37 27 64.5t65 27.5t65 -27.5t27 -64.5v-193h179q28 0 48.5 -20t20.5 -48q0 -29 -20.5 -49t-48.5 -20h-179v-623q0 -139 109 -139q36 0 76 12z" />
    <glyph glyph-name="Umacron" unicode="&#x16a;" horiz-adv-x="1296" 
d="M885 1683q22 0 38.5 -15.5t16.5 -37.5q0 -23 -16.5 -39t-38.5 -16h-469q-22 0 -39 16t-17 39q0 21 17 37t39 16h469zM942 1278q0 40 28 68t68 28t68.5 -28t28.5 -68v-819q0 -218 -127 -348.5t-361 -130.5q-124 0 -218.5 35.5t-152 100.5t-86 151t-28.5 192v819
q0 40 28 68t68 28t68 -28t28 -68v-803q0 -69 16.5 -128.5t50 -108t91.5 -76t135 -27.5q83 0 142.5 27.5t91.5 76.5t46.5 107t14.5 129v803z" />
    <glyph glyph-name="umacron" unicode="&#x16b;" 
d="M752 1343q22 0 38.5 -15.5t16.5 -37.5q0 -23 -16.5 -39t-38.5 -16h-469q-22 0 -39 16t-17 39q0 21 17 37t39 16h469zM434 -16q-42 0 -82.5 10.5t-82.5 37.5t-73 69t-51 111t-20 157v573q0 37 27 64.5t65 27.5t65 -27.5t27 -64.5v-551q0 -49 8 -90t28 -81t60 -62.5
t97 -22.5q109 0 178.5 91.5t69.5 260.5v455q0 37 27 64.5t65 27.5t65 -27.5t27 -64.5v-864q0 -36 -26 -62t-62 -26q-32 0 -57.5 23t-28.5 55l-10 86q-108 -170 -316 -170z" />
    <glyph glyph-name="Uring" unicode="&#x16e;" horiz-adv-x="1296" 
d="M649 1485q-90 0 -148.5 54.5t-58.5 154.5t58 153.5t149 53.5t150 -53.5t59 -153.5t-59 -154.5t-150 -54.5zM649 1565q46 0 78.5 33t32.5 96t-32.5 95t-78.5 32q-44 0 -76 -32t-32 -95t32 -96t76 -33zM942 1278q0 40 28 68t68 28t68.5 -28t28.5 -68v-819
q0 -218 -127 -348.5t-361 -130.5q-124 0 -218.5 35.5t-152 100.5t-86 151t-28.5 192v819q0 40 28 68t68 28t68 -28t28 -68v-803q0 -69 16.5 -128.5t50 -108t91.5 -76t135 -27.5q83 0 142.5 27.5t91.5 76.5t46.5 107t14.5 129v803z" />
    <glyph glyph-name="uring" unicode="&#x16f;" 
d="M516 1145q-90 0 -148.5 54.5t-58.5 154.5t58 153.5t149 53.5t150 -53.5t59 -153.5t-59 -154.5t-150 -54.5zM516 1225q46 0 78.5 33t32.5 96t-32.5 95t-78.5 32q-44 0 -76 -32t-32 -95t32 -96t76 -33zM434 -16q-42 0 -82.5 10.5t-82.5 37.5t-73 69t-51 111t-20 157v573
q0 37 27 64.5t65 27.5t65 -27.5t27 -64.5v-551q0 -49 8 -90t28 -81t60 -62.5t97 -22.5q109 0 178.5 91.5t69.5 260.5v455q0 37 27 64.5t65 27.5t65 -27.5t27 -64.5v-864q0 -36 -26 -62t-62 -26q-32 0 -57.5 23t-28.5 55l-10 86q-108 -170 -316 -170z" />
    <glyph glyph-name="Uhungarumlaut" unicode="&#x170;" horiz-adv-x="1296" 
d="M584 1763q29 0 49 -21t20 -50q0 -20 -10 -37l-82 -131q-16 -29 -53 -29q-25 0 -43.5 19t-18.5 45q0 12 7 26l67 137q8 18 25.5 29.5t38.5 11.5zM872 1763q29 0 49.5 -21t20.5 -50q0 -20 -10 -37l-82 -131q-16 -29 -53 -29q-25 0 -43.5 19t-18.5 45q0 14 6 26l68 137
q18 41 63 41zM942 1278q0 40 28 68t68 28t68.5 -28t28.5 -68v-819q0 -218 -127 -348.5t-361 -130.5q-124 0 -218.5 35.5t-152 100.5t-86 151t-28.5 192v819q0 40 28 68t68 28t68 -28t28 -68v-803q0 -69 16.5 -128.5t50 -108t91.5 -76t135 -27.5q83 0 142.5 27.5t91.5 76.5
t46.5 107t14.5 129v803z" />
    <glyph glyph-name="uhungarumlaut" unicode="&#x171;" 
d="M457 1487q32 0 53.5 -22.5t21.5 -53.5q0 -21 -6 -33l-98 -204q-8 -16 -23.5 -26.5t-33.5 -10.5q-27 0 -46.5 19.5t-19.5 45.5q0 7 4 23l78 213q7 22 27 35.5t43 13.5zM745 1487q32 0 54 -22.5t22 -53.5q0 -21 -6 -33l-98 -204q-19 -37 -58 -37q-27 0 -46 19t-19 46
q0 7 4 23l78 213q8 22 27 35.5t42 13.5zM434 -16q-42 0 -82.5 10.5t-82.5 37.5t-73 69t-51 111t-20 157v573q0 37 27 64.5t65 27.5t65 -27.5t27 -64.5v-551q0 -49 8 -90t28 -81t60 -62.5t97 -22.5q109 0 178.5 91.5t69.5 260.5v455q0 37 27 64.5t65 27.5t65 -27.5t27 -64.5
v-864q0 -36 -26 -62t-62 -26q-32 0 -57.5 23t-28.5 55l-10 86q-108 -170 -316 -170z" />
    <glyph glyph-name="Uogonek" unicode="&#x172;" horiz-adv-x="1228" 
d="M1038 1374q40 0 68.5 -28t28.5 -68v-819q0 -196 -103.5 -322.5t-296.5 -150.5q-27 -15 -45 -29q-53 -37 -53 -96q0 -92 111 -92q37 0 67 6q26 4 47 -14t21 -44q0 -21 -14 -36.5t-35 -18.5q-49 -10 -103 -10q-56 0 -100 14.5t-75.5 54.5t-31.5 103q0 102 82 158
q-114 5 -200 43t-139 102t-79 147.5t-26 184.5v819q0 40 28 68t68 28t68 -28t28 -68v-803q0 -69 16.5 -128.5t50 -108t91.5 -76t135 -27.5q83 0 142.5 27.5t91.5 76.5t46.5 107t14.5 129v803q0 40 28 68t68 28z" />
    <glyph glyph-name="uogonek" unicode="&#x173;" 
d="M911 -231q26 4 47 -14t21 -44q0 -21 -14 -36.5t-35 -18.5q-49 -10 -103 -10q-41 0 -75.5 8.5t-65 27.5t-48 53.5t-17.5 82.5q0 141 163 198q-21 21 -24 52l-10 86q-108 -170 -316 -170q-42 0 -82.5 10.5t-82.5 37.5t-73 69t-51 111t-20 157v573q0 37 27 64.5t65 27.5
t65 -27.5t27 -64.5v-551q0 -49 8 -90t28 -81t60 -62.5t97 -22.5q109 0 178.5 91.5t69.5 260.5v455q0 37 27 64.5t65 27.5t65 -27.5t27 -64.5v-864q0 -29 -17.5 -52.5t-44.5 -31.5q-47 -21 -69 -33q-70 -37 -70 -106q0 -93 111 -93q32 0 67 7z" />
    <glyph glyph-name="Wcircumflex" unicode="&#x174;" horiz-adv-x="1800" 
d="M705 1495q-25 0 -42.5 17.5t-17.5 41.5q0 20 17 41l126 125q27 27 50 38t63 11q43 0 64.5 -11t48.5 -38l127 -125q16 -20 16 -41q0 -24 -17.5 -41.5t-41.5 -17.5q-30 0 -47 21l-150 174l-149 -174q-18 -21 -47 -21zM1612 1374q44 0 71.5 -36t16.5 -78l-303 -1151
q-14 -53 -56.5 -86t-97.5 -33q-58 0 -102.5 37t-55.5 92l-149 737l-35 186q-4 20 -4 29l-43 -235l-141 -719q-11 -56 -54 -91.5t-100 -35.5q-53 0 -95 33t-56 83l-302 1145q-12 46 18 84.5t77 38.5q35 0 61.5 -21t34.5 -55l215 -907l45 -205l4 -16q0 10 2 16l41 207l189 889
q7 40 40 66t74 26t74.5 -26t40.5 -66l178 -846l49 -250l6 -32q1 3 3.5 14t3.5 18l59 269l203 850q8 31 32 50t56 19z" />
    <glyph glyph-name="wcircumflex" unicode="&#x175;" horiz-adv-x="1415" 
d="M958 1239q13 -22 13 -37q0 -26 -20 -45.5t-46 -19.5q-37 0 -55 32l-160 269l-160 -269q-18 -32 -55 -32q-26 0 -45.5 19.5t-19.5 45.5q0 17 12 37l119 178q50 72 149 72q100 0 150 -72zM1188 975q6 25 27.5 42t48.5 17q38 0 61 -31.5t14 -68.5l-229 -864
q-9 -37 -41.5 -62.5t-71.5 -25.5q-41 0 -72 25.5t-40 64.5l-125 510l-58 286l-53 -282l-110 -506q-9 -42 -43 -70t-78 -28q-41 0 -74.5 26.5t-44.5 65.5l-223 846q-11 43 16 78.5t72 35.5q31 0 55.5 -20.5t32.5 -50.5l117 -492l53 -278l49 278l100 459q11 47 49.5 78.5
t88.5 31.5q49 0 86.5 -30.5t48.5 -77.5l104 -463l49 -283l60 283z" />
    <glyph glyph-name="Ycircumflex" unicode="&#x176;" horiz-adv-x="1181" 
d="M395 1495q-24 0 -41.5 17.5t-17.5 41.5q0 21 16 41l127 125q27 27 50 38t63 11q43 0 64.5 -11t48.5 -38l126 -125q17 -21 17 -41q0 -24 -18 -41.5t-42 -17.5q-30 0 -47 21l-149 174l-150 -174q-18 -21 -47 -21zM987 1374q35 0 59.5 -25.5t24.5 -60.5q0 -24 -8 -37
l-344 -680l-31 -59h-2v-426q0 -40 -28 -68t-68 -28t-68 28t-28 68v428l-369 725q-10 23 -10 43q0 37 27 64.5t65 27.5q28 0 51 -14t33 -39l282 -590q13 -25 23 -53q1 2 8.5 21.5t13.5 31.5l293 596q11 21 31.5 34t44.5 13z" />
    <glyph glyph-name="ycircumflex" unicode="&#x177;" horiz-adv-x="970" 
d="M252 1137q-26 0 -46 19.5t-20 45.5q0 15 13 37l118 178q50 72 150 72q99 0 149 -72l119 -178q13 -22 13 -37q0 -26 -20 -45.5t-46 -19.5q-37 0 -55 32l-160 269l-160 -269q-18 -32 -55 -32zM811 1034q37 0 62.5 -26.5t25.5 -63.5q0 -18 -2 -26l-293 -975
q-43 -142 -122 -206.5t-249 -74.5q-32 -2 -56.5 21t-24.5 55t23 55t54 23q85 0 142.5 30.5t81.5 112.5l12 41q-85 0 -111 82l-278 831q-4 16 -4 29q0 38 26.5 65t63.5 27q30 0 53.5 -17.5t32.5 -45.5l254 -801l221 799q8 28 32 46.5t56 18.5z" />
    <glyph glyph-name="Ydieresis" unicode="&#x178;" horiz-adv-x="1181" 
d="M391 1561q-100 0 -100 96q0 98 102 98q49 0 75 -25.5t26 -72.5q0 -96 -103 -96zM788 1561q-98 0 -98 96q0 98 101 98q98 0 98 -98q0 -96 -101 -96zM987 1374q35 0 59.5 -25.5t24.5 -60.5q0 -24 -8 -37l-344 -680l-31 -59h-2v-426q0 -40 -28 -68t-68 -28t-68 28t-28 68
v428l-369 725q-10 23 -10 43q0 37 27 64.5t65 27.5q28 0 51 -14t33 -39l282 -590q13 -25 23 -53q1 2 8.5 21.5t13.5 31.5l293 596q11 21 31.5 34t44.5 13z" />
    <glyph glyph-name="Zacute" unicode="&#x179;" horiz-adv-x="1122" 
d="M598 1495q-25 0 -43 18t-18 43q0 11 8 27l71 141q8 17 25 28t37 11q29 0 49.5 -20t20.5 -49q0 -15 -13 -37l-86 -133q-18 -29 -51 -29zM944 166q34 0 59 -24.5t25 -59.5q0 -34 -25 -58t-59 -24h-725q-48 0 -82.5 34t-34.5 83q0 31 21 63l665 1018h-587q-34 0 -59 24
t-25 58q0 35 25 59.5t59 24.5h710q48 0 82.5 -34t34.5 -83q0 -33 -20 -63l-666 -1018h602z" />
    <glyph glyph-name="zacute" unicode="&#x17a;" horiz-adv-x="849" 
d="M545 1487q29 0 50 -21.5t21 -52.5q0 -13 -8 -33l-108 -209q-19 -34 -56 -34q-26 0 -44.5 18.5t-18.5 44.5q0 7 6 25l90 217q8 20 26.5 32.5t41.5 12.5zM258 141l455 4q30 0 51.5 -21.5t21.5 -51.5q0 -29 -22 -50.5t-51 -21.5h-561q-41 0 -71 29.5t-30 70.5q0 28 19 58
l499 723l-391 -4q-30 0 -52 21.5t-22 51.5q0 29 22.5 50.5t51.5 21.5h498q41 0 70.5 -29.5t29.5 -70.5q0 -29 -18 -58z" />
    <glyph glyph-name="Zdotaccent" unicode="&#x17b;" horiz-adv-x="1122" 
d="M561 1556q-47 0 -72.5 25t-25.5 72q0 46 25.5 71t74.5 25q99 0 99 -96q0 -97 -101 -97zM944 166q34 0 59 -24.5t25 -59.5q0 -34 -25 -58t-59 -24h-725q-48 0 -82.5 34t-34.5 83q0 31 21 63l665 1018h-587q-34 0 -59 24t-25 58q0 35 25 59.5t59 24.5h710q48 0 82.5 -34
t34.5 -83q0 -33 -20 -63l-666 -1018h602z" />
    <glyph glyph-name="zdotaccent" unicode="&#x17c;" horiz-adv-x="849" 
d="M424 1130q-107 0 -107 99q0 98 109 98t109 -98q0 -99 -111 -99zM258 141l455 4q30 0 51.5 -21.5t21.5 -51.5q0 -29 -22 -50.5t-51 -21.5h-561q-41 0 -71 29.5t-30 70.5q0 28 19 58l499 723l-391 -4q-30 0 -52 21.5t-22 51.5q0 29 22.5 50.5t51.5 21.5h498
q41 0 70.5 -29.5t29.5 -70.5q0 -29 -18 -58z" />
    <glyph glyph-name="Zcaron" unicode="&#x17d;" horiz-adv-x="1122" 
d="M444 1544l-127 125q-16 20 -16 41q0 24 17.5 41.5t41.5 17.5q31 0 48 -20l149 -174l150 174q17 20 47 20q24 0 41.5 -17.5t17.5 -41.5q0 -21 -16 -41l-127 -125q-27 -27 -48.5 -38t-64.5 -11q-40 0 -63 11t-50 38zM944 166q34 0 59 -24.5t25 -59.5q0 -34 -25 -58t-59 -24
h-725q-48 0 -82.5 34t-34.5 83q0 31 21 63l665 1018h-587q-34 0 -59 24t-25 58q0 35 25 59.5t59 24.5h710q48 0 82.5 -34t34.5 -83q0 -33 -20 -63l-666 -1018h602z" />
    <glyph glyph-name="zcaron" unicode="&#x17e;" horiz-adv-x="849" 
d="M707 1386l-119 -178q-49 -71 -150 -71q-100 0 -149 71l-119 178q-12 20 -12 37q0 26 19.5 46t45.5 20q38 0 56 -33l159 -268l160 268q18 33 55 33q26 0 46 -20t20 -46q0 -17 -12 -37zM258 141l455 4q30 0 51.5 -21.5t21.5 -51.5q0 -29 -22 -50.5t-51 -21.5h-561
q-41 0 -71 29.5t-30 70.5q0 28 19 58l499 723l-391 -4q-30 0 -52 21.5t-22 51.5q0 29 22.5 50.5t51.5 21.5h498q41 0 70.5 -29.5t29.5 -70.5q0 -29 -18 -58z" />
    <glyph glyph-name="Scommaaccent" unicode="&#x218;" horiz-adv-x="1120" 
d="M158 68q-49 22 -49 77q0 35 24.5 59.5t59.5 24.5q51 -16 92 -32q135 -62 266 -62q127 0 200.5 55.5t73.5 165.5q0 43 -13.5 77t-35 58t-60.5 46t-78 37.5t-99 35.5q-59 19 -95 32.5t-86.5 36t-81.5 43.5t-66 52.5t-54 67t-32 84t-13 104.5q0 180 121 267t329 87
q166 0 336 -69q24 -9 39.5 -30.5t15.5 -47.5q0 -35 -25.5 -60.5t-60.5 -25.5q-24 0 -37 8q-148 70 -270 70q-109 0 -176.5 -47t-67.5 -142q0 -56 25.5 -100t74.5 -76t93 -51.5t108 -40.5q152 -52 199 -74q147 -69 192 -188q23 -62 23 -141q0 -103 -38.5 -180t-107 -121.5
t-154 -66t-189.5 -21.5q-114 0 -201.5 23.5t-181.5 64.5zM565 -141q27 0 45 -19.5t17 -46.5q-1 -19 -2.5 -37.5t-2.5 -32.5t-3.5 -31t-4 -26t-5.5 -26.5t-5.5 -23.5t-6 -25.5t-5.5 -24.5q-5 -19 -20 -31t-35 -12q-26 0 -43 20.5t-13 46.5q19 100 21 205q0 26 18.5 45
t44.5 19z" />
    <glyph glyph-name="scommaaccent" unicode="&#x219;" horiz-adv-x="849" 
d="M420 -16q-142 0 -289 57q-51 20 -51 74q0 32 23 56t55 24q19 0 37 -11q120 -61 217 -61q82 0 133 39t51 110q0 41 -16.5 72t-46.5 50.5t-56.5 30t-62.5 19.5q-38 10 -65 18.5t-65 23.5t-64.5 30.5t-55.5 40t-47 52t-29.5 66t-11.5 83.5q0 127 88.5 203.5t273.5 76.5
q123 0 256 -45q23 -8 37 -27.5t14 -45.5q0 -31 -21.5 -53.5t-53.5 -22.5q-19 0 -31 6q-114 49 -213 49q-162 0 -162 -125q0 -66 44.5 -100t152.5 -70q58 -20 95 -34t79 -35t67 -43.5t47.5 -52.5t32 -69t9.5 -87q0 -73 -25 -129t-62 -87.5t-89 -51t-98 -25.5t-97 -6z
M430 -141q27 0 45 -19.5t17 -46.5q-1 -19 -2.5 -37.5t-2.5 -32.5t-3.5 -31t-4 -26t-5.5 -26.5t-5.5 -23.5t-6 -25.5t-5.5 -24.5q-5 -19 -20.5 -31t-35.5 -12q-26 0 -43 20.5t-12 46.5q19 100 21 205q0 26 18.5 45t44.5 19z" />
    <glyph glyph-name="uni021A" unicode="&#x21a;" horiz-adv-x="1097" 
d="M963 1364q34 0 59 -24t25 -58q0 -35 -25 -59.5t-59 -24.5h-318v-1112q0 -40 -28 -68t-68 -28t-68 28t-28 68v1112h-318q-34 0 -59 24t-25 58q0 35 25 59.5t59 24.5h828zM553 -141q26 0 44 -19t17 -47q-2 -49 -8 -94t-10 -64t-16 -69q-5 -19 -20.5 -31t-35.5 -12
q-26 0 -43 20.5t-12 46.5q18 94 20 205q0 26 19 45t45 19z" />
    <glyph glyph-name="uni021B" unicode="&#x21b;" horiz-adv-x="692" 
d="M547 137q33 9 61.5 -12.5t28.5 -56.5q0 -26 -16 -45t-41 -25q-57 -14 -123 -14q-132 0 -205.5 60t-73.5 208v635h-74q-28 0 -48.5 19.5t-20.5 47.5q0 29 20.5 49.5t48.5 20.5h74v193q0 37 27 64.5t65 27.5t65 -27.5t27 -64.5v-193h179q28 0 48.5 -20t20.5 -48
q0 -29 -20.5 -49t-48.5 -20h-179v-623q0 -139 109 -139q36 0 76 12zM385 -141q26 0 44 -19t17 -47q-2 -49 -8 -94t-10 -64t-16 -69q-5 -19 -20.5 -31t-35.5 -12q-26 0 -43 20.5t-12 46.5q19 100 21 205q0 26 18.5 45t44.5 19z" />
    <glyph glyph-name="circumflex" unicode="&#x2c6;" horiz-adv-x="933" 
d="M717 1280q12 -20 12 -37q0 -26 -19.5 -45.5t-45.5 -19.5q-38 0 -56 32l-159 269l-160 -269q-18 -32 -56 -32q-26 0 -45.5 19.5t-19.5 45.5q0 17 12 37l119 178q50 72 150 72q99 0 149 -72z" />
    <glyph glyph-name="caron" unicode="&#x2c7;" horiz-adv-x="933" 
d="M743 1427l-118 -178q-49 -71 -150 -71q-100 0 -149 71l-119 178q-12 20 -12 37q0 26 19.5 46t45.5 20q37 0 55 -33l160 -268l160 268q18 33 55 33q26 0 46 -20t20 -46q0 -15 -13 -37z" />
    <glyph glyph-name="breve" unicode="&#x2d8;" horiz-adv-x="874" 
d="M438 1200q-121 0 -191.5 52t-99.5 167q-6 28 11.5 52t46.5 24q20 0 36 -13t21 -32q22 -77 62 -114.5t114 -37.5t113 37.5t61 114.5q4 20 20.5 32.5t37.5 12.5q29 0 47 -24t10 -52q-27 -114 -97.5 -166.5t-191.5 -52.5z" />
    <glyph glyph-name="dotaccent" unicode="&#x2d9;" horiz-adv-x="550" 
d="M276 1130q-106 0 -106 99q0 98 109 98q108 0 108 -98q0 -99 -111 -99z" />
    <glyph glyph-name="ring" unicode="&#x2da;" horiz-adv-x="718" 
d="M360 1186q-90 0 -148 54.5t-58 154.5t57.5 153.5t148.5 53.5t150 -53.5t59 -153.5t-59 -154.5t-150 -54.5zM360 1266q46 0 78.5 33t32.5 96t-32.5 95t-78.5 32q-44 0 -76 -32t-32 -95t32 -96t76 -33z" />
    <glyph glyph-name="ogonek" unicode="&#x2db;" horiz-adv-x="643" 
d="M377 -348q-56 0 -100 14.5t-75.5 54.5t-31.5 103q0 148 180 203q85 24 99 -4q4 -6 -5.5 -11.5t-38.5 -18.5t-53 -26q-69 -37 -69 -106q0 -92 110 -92q38 0 68 6q26 4 46.5 -14t20.5 -44q0 -21 -14 -36.5t-35 -18.5q-49 -10 -102 -10z" />
    <glyph glyph-name="tilde" unicode="&#x2dc;" horiz-adv-x="931" 
d="M592 1229q-58 0 -146 49q-6 3 -20 11.5t-20.5 12t-19 9.5t-20.5 8.5t-19 5t-21 2.5q-26 0 -47 -14q-19 -12 -39 -30t-30 -23t-20 0t-14.5 19t1 37.5t22.5 49.5q57 84 143 84q25 0 52.5 -9t43 -16.5t47.5 -25.5q5 -3 22 -12.5t25.5 -14t23 -10.5t27.5 -9t25 -3q29 0 47 12
q13 9 26.5 20.5t20 17.5t15.5 12.5t13 6.5t13 -2q11 -5 15 -22t-5 -45.5t-34 -59.5q-52 -61 -127 -61z" />
    <glyph glyph-name="hungarumlaut" unicode="&#x2dd;" horiz-adv-x="970" 
d="M381 1528q32 0 54 -22.5t22 -53.5q0 -21 -6 -33l-99 -205q-18 -36 -57 -36q-27 0 -46.5 19t-19.5 46q0 7 4 23l78 213q7 22 27 35.5t43 13.5zM670 1528q32 0 53.5 -22.5t21.5 -53.5q0 -21 -6 -33l-98 -205q-18 -36 -57 -36q-28 0 -47 19t-19 46q0 7 4 23l78 213
q7 22 27 35.5t43 13.5z" />
    <glyph glyph-name="gravecomb" unicode="&#x300;" horiz-adv-x="0" 
d="M-707 1452q0 31 22.5 53.5t53.5 22.5q24 0 44 -14.5t28 -36.5l72 -213q11 -32 -8.5 -59t-53.5 -27q-40 0 -57 39l-94 204q-7 14 -7 31z" />
    <glyph glyph-name="uni0326" unicode="&#x326;" horiz-adv-x="0" 
d="M-283 -141q27 0 45 -19.5t17 -46.5q-1 -19 -2.5 -37.5t-2.5 -32.5t-3.5 -31t-4 -26t-5.5 -26.5t-5.5 -23.5t-6 -25.5t-5.5 -24.5q-5 -19 -20 -31t-35 -12q-26 0 -43 20.5t-13 46.5q19 100 21 205q0 26 18.5 45t44.5 19z" />
    <glyph glyph-name="uni0400" unicode="&#x400;" horiz-adv-x="1140" 
d="M573 1536q-43 0 -55 41l-51 168q-11 38 5 66.5t54 31.5q25 1 44.5 -11t25.5 -32l45 -178q9 -34 -11 -60t-55 -26h-2zM971 166q34 0 59 -24.5t25 -59.5q0 -34 -25 -58t-59 -24h-684q-101 0 -101 100v1164q0 100 101 100h665q34 0 59 -24t25 -58q0 -35 -25 -59.5t-59 -24.5
h-573v-432h463q34 0 58 -24t24 -58t-24 -58t-58 -24h-463v-436h592z" />
    <glyph glyph-name="uni0401" unicode="&#x401;" horiz-adv-x="1140" 
d="M424 1470q-107 0 -107 99q0 100 109 100t109 -100q0 -99 -111 -99zM772 1470q-106 0 -106 99q0 100 108 100q109 0 109 -100q0 -99 -111 -99zM971 166q34 0 59 -24.5t25 -59.5q0 -34 -25 -58t-59 -24h-684q-101 0 -101 100v1164q0 100 101 100h665q34 0 59 -24t25 -58
q0 -35 -25 -59.5t-59 -24.5h-573v-432h463q34 0 58 -24t24 -58t-24 -58t-58 -24h-463v-436h592z" />
    <glyph glyph-name="uni040D" unicode="&#x40d;" horiz-adv-x="1329" 
d="M637 1536q-43 0 -55 41l-52 168q-11 38 5 66.5t55 31.5q25 1 44 -11t25 -32l46 -178q9 -34 -11 -60t-55 -26h-2zM852 1286q19 40 56.5 64t82.5 24q63 0 107.5 -45t44.5 -108v-1135q0 -40 -28 -68t-68 -28t-68.5 28t-28.5 68v643l19 397l-490 -1048q-19 -40 -56.5 -64
t-82.5 -24q-63 0 -107.5 45t-44.5 108v1135q0 40 28.5 68t68.5 28t68 -28t28 -68v-643l-19 -397z" />
    <glyph glyph-name="uni0410" unicode="&#x410;" horiz-adv-x="1292" 
d="M1186 117q4 -20 4 -31q0 -40 -28 -68t-68 -28q-32 0 -58 19t-35 48l-106 344h-510l-109 -348q-8 -28 -31.5 -45.5t-54.5 -17.5q-37 0 -63.5 26.5t-26.5 63.5q0 13 4 29l373 1140q18 55 64.5 90t105.5 35t105.5 -35t64.5 -90zM434 557h412l-195 629q-7 26 -10 39
q-3 -8 -12 -39z" />
    <glyph glyph-name="uni0411" unicode="&#x411;" horiz-adv-x="1253" 
d="M692 840q96 0 175 -23t133 -63t91.5 -95t54.5 -117t17 -130q0 -86 -28.5 -159.5t-84.5 -130.5t-147.5 -89.5t-208.5 -32.5h-407q-101 0 -101 100v1164q0 100 101 100h688q34 0 59 -24t25 -58q0 -35 -25 -59.5t-59 -24.5h-596v-358h313zM686 156q270 0 270 262
q0 266 -282 266h-295v-528h307z" />
    <glyph glyph-name="uni0412" unicode="&#x412;" horiz-adv-x="1251" 
d="M848 741q147 -24 226 -124t79 -244q0 -175 -119 -274t-356 -99h-391q-101 0 -101 100v1164q0 100 101 100h375q93 0 165.5 -19t118.5 -50.5t76.5 -76t42.5 -92t12 -102.5q0 -118 -71.5 -196.5t-157.5 -86.5zM379 1202v-401h256q123 0 185.5 55t62.5 145q0 103 -54.5 152
t-177.5 49h-272zM635 162q153 0 231 55t78 184q0 53 -12.5 93.5t-43 74.5t-87.5 52t-139 18h-283v-477h256z" />
    <glyph glyph-name="uni0413" unicode="&#x413;" horiz-adv-x="1003" 
d="M860 1364q34 0 59 -24t25 -58q0 -35 -25 -59.5t-59 -24.5h-479v-1112q0 -40 -28 -68t-68 -28t-68.5 28t-28.5 68v1178q0 100 101 100h571z" />
    <glyph glyph-name="uni0414" unicode="&#x414;" horiz-adv-x="1429" 
d="M1257 162q101 0 101 -101v-235q0 -32 -24 -57t-56 -25q-34 0 -58 24t-24 56l-2 176h-958l-3 -176q0 -32 -23.5 -56t-57.5 -24q-32 0 -56 25t-24 57v235q0 101 100 101h45l326 1106q15 55 63 91t107 36t107 -36t63 -91l327 -1106h47zM690 1161l-287 -999h598l-288 1001
q-10 34 -11 43z" />
    <glyph glyph-name="uni0415" unicode="&#x415;" horiz-adv-x="1140" 
d="M971 166q34 0 59 -24.5t25 -59.5q0 -34 -25 -58t-59 -24h-684q-101 0 -101 100v1164q0 100 101 100h665q34 0 59 -24t25 -58q0 -35 -25 -59.5t-59 -24.5h-573v-432h463q34 0 58 -24t24 -58t-24 -58t-58 -24h-463v-436h592z" />
    <glyph glyph-name="uni0416" unicode="&#x416;" horiz-adv-x="1810" 
d="M1325 731l336 -596q12 -21 12 -47q0 -40 -28.5 -69t-69.5 -29q-60 0 -86 53l-309 596h-183v-557q0 -37 -27 -64.5t-65 -27.5t-65 27.5t-27 64.5v557h-182l-309 -596q-26 -53 -86 -53q-41 0 -70 29t-29 69q0 24 13 47l335 596v4l-292 504q-13 23 -13 45q0 37 26.5 63.5
t63.5 26.5q25 0 46 -12.5t32 -32.5l295 -524h170v477q0 37 27 64.5t65 27.5t65 -27.5t27 -64.5v-477h170l295 524q11 20 32 32.5t46 12.5q37 0 63.5 -26.5t26.5 -63.5q0 -24 -12 -45l-293 -504v-4z" />
    <glyph glyph-name="uni0417" unicode="&#x417;" horiz-adv-x="1130" 
d="M741 719q52 -11 98.5 -34.5t89 -62.5t68 -102t25.5 -141q0 -186 -131 -292.5t-381 -106.5q-217 0 -381 88q-45 23 -45 73q0 35 25.5 60.5t60.5 25.5q21 0 41 -10q152 -82 301 -82q141 0 223 65.5t82 192.5q0 255 -356 240q-42 -3 -74 33q-23 30 -18.5 59t34.5 51
q40 28 78 25q147 -8 228.5 48.5t81.5 166.5q0 104 -74.5 158.5t-200.5 54.5q-125 0 -280 -76q-17 -10 -37 -10q-32 0 -56 24t-24 58q0 47 43 69q180 90 366 90q204 0 328.5 -95.5t124.5 -266.5q0 -122 -73 -204t-167 -99z" />
    <glyph glyph-name="uni0418" unicode="&#x418;" horiz-adv-x="1329" 
d="M852 1286q19 40 56.5 64t82.5 24q63 0 107.5 -45t44.5 -108v-1135q0 -40 -28 -68t-68 -28t-68.5 28t-28.5 68v643l19 397l-490 -1048q-19 -40 -56.5 -64t-82.5 -24q-63 0 -107.5 45t-44.5 108v1135q0 40 28.5 68t68.5 28t68 -28t28 -68v-643l-19 -397z" />
    <glyph glyph-name="uni0419" unicode="&#x419;" horiz-adv-x="1329" 
d="M377 1606q0 32 25.5 51.5t56.5 11.5q189 -52 377 0q30 8 56 -11.5t26 -51.5q0 -21 -14.5 -38.5t-35.5 -23.5q-226 -62 -444 0q-20 6 -33.5 23t-13.5 39zM852 1286q19 40 56.5 64t82.5 24q63 0 107.5 -45t44.5 -108v-1135q0 -40 -28 -68t-68 -28t-68.5 28t-28.5 68v643
l19 397l-490 -1048q-19 -40 -56.5 -64t-82.5 -24q-63 0 -107.5 45t-44.5 108v1135q0 40 28.5 68t68.5 28t68 -28t28 -68v-643l-19 -397z" />
    <glyph glyph-name="uni041A" unicode="&#x41a;" horiz-adv-x="1212" 
d="M1067 137q10 -20 10 -47q0 -41 -28.5 -70.5t-69.5 -29.5q-63 0 -90 55l-295 592l-215 2v-553q0 -40 -28 -68t-68 -28t-68.5 28t-28.5 68v1192q0 40 28.5 68t68.5 28t68 -28t28 -68v-473h213l287 520q24 49 79 49q38 0 65.5 -27t27.5 -65q0 -28 -13 -47l-286 -500z" />
    <glyph glyph-name="uni041B" unicode="&#x41b;" horiz-adv-x="1280" 
d="M1171 125q5 -20 5 -31q0 -43 -30 -73.5t-73 -30.5q-35 0 -62 21t-36 52l-242 818l-78 274q-5 18 -16 66q-11 -48 -16 -66l-78 -272l-244 -820q-9 -32 -35.5 -52.5t-60.5 -20.5q-42 0 -72.5 30t-30.5 72q0 6 3 16t4 13l360 1149q17 56 64 90.5t108 34.5q60 0 106.5 -34.5
t63.5 -90.5z" />
    <glyph glyph-name="uni041C" unicode="&#x41c;" horiz-adv-x="1613" 
d="M1470 94q3 -41 -26 -72.5t-70 -31.5q-40 0 -68.5 27t-29.5 67l-25 502l-18 594l-74 -293l-211 -647q-14 -44 -52.5 -73.5t-84.5 -29.5q-48 0 -86.5 29.5t-52.5 73.5l-209 645l-84 305l-25 -604l-24 -508q-1 -37 -28 -62.5t-64 -25.5q-39 0 -68 29.5t-27 68.5l62 1126
q3 67 51.5 113.5t116.5 46.5q56 0 100 -33.5t59 -85.5l285 -923l287 934q14 48 54.5 78t92.5 30q60 0 104.5 -41.5t47.5 -101.5z" />
    <glyph glyph-name="uni041D" unicode="&#x41d;" horiz-adv-x="1368" 
d="M989 1278q0 40 28 68t68 28t68.5 -28t28.5 -68v-1190q0 -40 -28.5 -68t-68.5 -28t-68 28t-28 68v528h-610v-528q0 -40 -28 -68t-68 -28t-68.5 28t-28.5 68v1190q0 40 28.5 68t68.5 28t68 -28t28 -68v-496h610v496z" />
    <glyph glyph-name="uni041E" unicode="&#x41e;" horiz-adv-x="1398" 
d="M700 1384q145 0 258.5 -52.5t185 -147.5t108 -222t36.5 -280t-36.5 -280t-108 -222t-185 -147.5t-258.5 -52.5t-258.5 52.5t-185 147.5t-108.5 222t-37 280t37 280t108.5 222t185 147.5t258.5 52.5zM700 135q100 0 175 41t119.5 116t66.5 172.5t22 217.5t-22 217.5
t-66.5 172.5t-119.5 116t-175 41q-80 0 -145 -27t-109 -75.5t-74 -117.5t-43.5 -150.5t-13.5 -176.5t13.5 -176.5t43.5 -150.5t74 -117.5t109 -75.5t145 -27z" />
    <glyph glyph-name="uni041F" unicode="&#x41f;" horiz-adv-x="1361" 
d="M188 1264q0 100 101 100h784q101 0 101 -100v-1178q0 -40 -28.5 -68t-68.5 -28t-68 28t-28 68v1112h-600v-1112q0 -40 -28 -68t-68 -28t-68.5 28t-28.5 68v1178z" />
    <glyph glyph-name="uni0420" unicode="&#x420;" horiz-adv-x="1224" 
d="M672 1364q237 0 356 -111t119 -299q0 -62 -13 -117.5t-46 -110t-85.5 -93t-137 -62.5t-193.5 -24h-289v-459q0 -40 -28 -68t-68 -28t-68.5 28t-28.5 68v1176q0 100 101 100h381zM672 702q76 0 130.5 21t84 59t42.5 82t13 97q0 247 -270 247h-289v-506h289z" />
    <glyph glyph-name="uni0421" unicode="&#x421;" horiz-adv-x="1187" 
d="M750 1384q162 0 288 -53q24 -9 39 -30t15 -48q0 -35 -24.5 -59.5t-59.5 -24.5q-19 0 -33 7q-123 51 -246 51q-90 0 -161.5 -30t-118 -81t-77.5 -121t-44 -146t-13 -161q0 -257 116 -405t312 -148q112 0 230 47q12 6 31 6q35 0 60.5 -25.5t25.5 -60.5q0 -27 -16.5 -48.5
t-43.5 -30.5q-125 -43 -291 -43q-160 0 -281 50t-196.5 143t-113 220t-37.5 287q0 76 8 145.5t29 141.5t52.5 132t82 114t115.5 91t155 58.5t197 21.5z" />
    <glyph glyph-name="uni0422" unicode="&#x422;" horiz-adv-x="1097" 
d="M963 1364q34 0 59 -24t25 -58q0 -35 -25 -59.5t-59 -24.5h-318v-1112q0 -40 -28 -68t-68 -28t-68 28t-28 68v1112h-318q-34 0 -59 24t-25 58q0 35 25 59.5t59 24.5h828z" />
    <glyph glyph-name="uni0423" unicode="&#x423;" horiz-adv-x="1181" 
d="M987 1374q38 0 65 -26.5t27 -63.5q0 -18 -6 -33l-399 -1030q-46 -118 -117.5 -170t-173.5 -67q-37 -6 -66.5 19t-29.5 63q0 29 17.5 50t45.5 29q73 20 115.5 68.5t79.5 144.5q-28 0 -52.5 17t-35.5 43l-342 827q-6 18 -6 35q0 38 27 66t65 28q30 0 53.5 -16.5t34.5 -42.5
l323 -789l291 789q9 25 32 42t52 17z" />
    <glyph glyph-name="uni0424" unicode="&#x424;" horiz-adv-x="1611" 
d="M1507 684q0 -136 -32 -246.5t-101 -201t-190.5 -146t-288.5 -67.5v-46q0 -35 -25.5 -61.5t-60.5 -26.5q-36 0 -62 26t-26 62v46q-615 44 -615 661q0 618 615 664v45q0 36 26 62t62 26q35 0 60.5 -26.5t25.5 -61.5v-45q612 -47 612 -664zM311 686q0 -115 21 -203.5
t67 -158.5t127 -109.5t195 -46.5v1036q-114 -8 -195 -48.5t-127 -110t-67 -157.5t-21 -202zM895 168q114 7 194.5 46.5t126.5 109.5t66.5 158.5t20.5 203.5t-20.5 202.5t-66.5 157t-126.5 110t-194.5 48.5v-1036z" />
    <glyph glyph-name="uni0425" unicode="&#x425;" horiz-adv-x="1255" 
d="M1151 133q14 -20 14 -49q0 -39 -27.5 -66.5t-66.5 -27.5q-48 0 -78 45l-372 551l-342 -547q-28 -49 -84 -49q-40 0 -68.5 28t-28.5 68q0 26 13 49l378 582l-358 522q-14 21 -14 45q0 37 26.5 63.5t63.5 26.5q48 0 76 -43l333 -489l7 12l305 473q28 47 80 47
q37 0 63.5 -27t26.5 -65q0 -26 -13 -45l-337 -514z" />
    <glyph glyph-name="uni0426" unicode="&#x426;" horiz-adv-x="1435" 
d="M1182 166h80q100 0 100 -100v-291q0 -32 -24 -57t-56 -25q-33 0 -56.5 23.5t-23.5 56.5l-4 227h-911q-101 0 -101 100v1178q0 40 28.5 68t68.5 28t68 -28t28 -68v-1112h610v1112q0 40 28 68t68 28t68.5 -28t28.5 -68v-1112z" />
    <glyph glyph-name="uni0427" unicode="&#x427;" horiz-adv-x="1241" 
d="M862 1276q0 40 28 68t68 28t68.5 -28t28.5 -68v-1190q0 -40 -28.5 -68t-68.5 -28t-68 28t-28 68v463q-169 -57 -319 -57q-116 0 -200.5 32.5t-133 92t-71.5 135.5t-23 172v352q0 40 28 68t68 28t68 -28t28 -68v-350q0 -279 287 -279q142 0 268 55v574z" />
    <glyph glyph-name="uni0428" unicode="&#x428;" horiz-adv-x="1837" 
d="M1456 1278q0 40 28 68t68 28t68.5 -28t28.5 -68v-1178q0 -100 -101 -100h-1259q-101 0 -101 100v1178q0 40 28.5 68t68.5 28t68 -28t28 -68v-1112h440v1112q0 40 28.5 68t68.5 28t68 -28t28 -68v-1112h442v1112z" />
    <glyph glyph-name="uni0429" unicode="&#x429;" horiz-adv-x="1904" 
d="M1651 166h80q100 0 100 -100v-291q0 -32 -24 -57t-56 -25q-33 0 -56.5 23.5t-23.5 56.5l-4 227h-1380q-101 0 -101 100v1178q0 40 28.5 68t68.5 28t68 -28t28 -68v-1112h440v1112q0 40 28 68t68 28t68.5 -28t28.5 -68v-1112h446v1112q0 40 28 68t68 28t68.5 -28t28.5 -68
v-1112z" />
    <glyph glyph-name="uni042A" unicode="&#x42a;" horiz-adv-x="1466" 
d="M932 844q113 0 201 -35.5t141 -96.5t79.5 -136.5t26.5 -161.5q0 -181 -113.5 -297.5t-332.5 -116.5h-430q-101 0 -101 100v1098h-260q-34 0 -59 24.5t-25 59.5q0 34 25 58t59 24h353q100 0 100 -100v-420h336zM926 156q114 0 181 61.5t67 200.5q0 270 -259 270h-319v-532
h330z" />
    <glyph glyph-name="uni042B" unicode="&#x42b;" horiz-adv-x="1781" 
d="M1595 86q0 -40 -28 -68t-68 -28t-68 28t-28 68v1192q0 40 28 68t68 28t68 -28t28 -68v-1192zM692 844q119 0 211 -35t147 -96.5t83 -138t28 -164.5q0 -85 -28.5 -157.5t-84 -130t-146.5 -90t-208 -32.5h-405q-101 0 -101 100v1164q0 49 25.5 74.5t71.5 25.5t71 -25.5
t25 -74.5v-420h311zM686 156q123 0 196.5 61.5t73.5 192.5q0 144 -70.5 210t-209.5 66l-295 2v-532h305z" />
    <glyph glyph-name="uni042C" unicode="&#x42c;" horiz-adv-x="1249" 
d="M692 844q119 0 211 -35t147 -96.5t83 -138t28 -164.5q0 -85 -28.5 -157.5t-84 -130t-146.5 -90t-208 -32.5h-405q-101 0 -101 100v1164q0 49 25.5 74.5t71.5 25.5t71 -25.5t25 -74.5v-420h311zM686 156q123 0 196.5 61.5t73.5 192.5q0 144 -70.5 210t-209.5 66l-295 2
v-532h305z" />
    <glyph glyph-name="uni042D" unicode="&#x42d;" horiz-adv-x="1189" 
d="M440 1384q107 0 197 -21.5t155 -58.5t115.5 -91t82 -114t52.5 -132t29 -141.5t8 -145.5q0 -160 -37.5 -287t-113 -220t-196.5 -143t-281 -50q-166 0 -291 43q-27 9 -43.5 30.5t-16.5 48.5q0 35 25.5 60.5t60.5 25.5q19 0 31 -6q118 -47 229 -47q180 0 292.5 125
t131.5 346h-430q-31 0 -53 22t-22 54q0 31 22 52.5t53 21.5h432q-5 77 -21.5 144.5t-49 128.5t-78 104t-113 68.5t-149.5 25.5q-123 0 -246 -51q-14 -7 -33 -7q-35 0 -59.5 24.5t-24.5 59.5q0 27 15 48t39 30q126 53 288 53z" />
    <glyph glyph-name="uni042E" unicode="&#x42e;" horiz-adv-x="1896" 
d="M1198 1401q156 0 272.5 -54.5t185.5 -154t102.5 -227t33.5 -285.5q0 -125 -20.5 -231t-65.5 -196.5t-113.5 -153.5t-168.5 -98.5t-226 -35.5q-148 0 -261.5 51t-183.5 143.5t-106.5 214.5t-40.5 271h-225v-559q0 -40 -28 -68t-68 -28t-68.5 28t-28.5 68v1192
q0 40 28.5 68t68.5 28t68 -28t28 -68v-467h231q13 130 54 236t111 186t177.5 124t243.5 44zM1198 121q128 0 219.5 77t133 202.5t36.5 281.5q5 155 -36.5 281t-133 204t-219.5 78q-126 0 -217.5 -78t-134.5 -203.5t-43 -281.5q0 -157 43 -282t134 -202t218 -77z" />
    <glyph glyph-name="uni042F" unicode="&#x42f;" horiz-adv-x="1355" 
d="M1069 1364q100 0 100 -100v-1178q0 -40 -28 -68t-68 -28t-68 28t-28 68v453h-256l-287 -500q-25 -49 -84 -49q-40 0 -69 29t-29 69q0 24 14 49l248 426q-299 80 -299 402q0 82 29 153t85.5 126.5t149 87.5t211.5 32h379zM977 694v514h-277q-140 0 -209.5 -56.5
t-70.5 -186.5q-1 -57 13 -102.5t47 -85t96.5 -61.5t154.5 -22h246z" />
    <glyph glyph-name="uni0430" unicode="&#x430;" horiz-adv-x="1009" 
d="M891 150q27 -8 44 -30.5t17 -51.5q0 -37 -27.5 -61.5t-64.5 -20.5q-100 11 -149 55q-34 31 -41 80q-29 -59 -100 -98t-181 -39q-153 0 -235 81.5t-82 223.5q0 158 105 237t333 82l145 2v107q0 182 -204 182q-101 0 -234 -53q-8 -4 -29 -4q-31 0 -53 22t-22 54
q0 24 14.5 43.5t36.5 27.5q147 49 307 49q172 0 270.5 -76.5t98.5 -226.5v-504q0 -67 51 -81zM653 344v137l-125 -2q-61 -1 -105.5 -9t-82 -27t-57 -55t-19.5 -89q0 -81 44.5 -128.5t107.5 -47.5q20 0 44 3.5t60 17.5t64 36t48.5 65t20.5 99z" />
    <glyph glyph-name="uni0431" unicode="&#x431;" horiz-adv-x="1095" 
d="M621 971q197 0 299.5 -132t97.5 -364q-4 -245 -126.5 -370t-328.5 -125q-71 0 -134 16t-121.5 53.5t-100.5 94.5t-67 145t-25 198v289q1 69 3.5 119t8.5 104.5t16.5 93t26.5 79t39.5 68.5t55.5 55.5t74 46t95 34t119 25.5q198 33 289 69q14 7 32 7q37 0 63 -25.5
t26 -62.5q0 -29 -17 -52t-45 -32q-101 -33 -283 -54q-106 -12 -172.5 -38t-105 -74t-53 -110.5t-15.5 -160.5v-82q109 185 349 185zM565 119q122 0 191 89t69 275q0 351 -256 351q-120 0 -191 -89.5t-71 -263.5q0 -172 69 -267t189 -95z" />
    <glyph glyph-name="uni0432" unicode="&#x432;" horiz-adv-x="1048" 
d="M664 788q53 -6 105.5 -31t101.5 -70t79.5 -122t30.5 -174q0 -183 -117 -294t-338 -111q-401 0 -401 413l-2 607q0 172 53 272q94 175 338 176q187 0 295.5 -97t108.5 -263q0 -153 -103 -242q-45 -40 -151 -64zM309 1028v-235q36 8 118.5 18.5t96.5 13.5q58 10 99.5 39
t63 68.5t31 79.5t9.5 84q0 117 -53.5 168t-151.5 51q-64 0 -107 -20t-65.5 -60.5t-31.5 -89t-9 -117.5zM539 125q122 0 179.5 76t57.5 209q0 276 -248 276q-93 0 -219 -37l2 -250q3 -274 228 -274z" />
    <glyph glyph-name="uni0433" unicode="&#x433;" horiz-adv-x="851" 
d="M410 -16q-45 0 -85 5t-90.5 22t-86 46t-60.5 82.5t-25 124.5q0 67 20.5 118t63.5 87t89 60t118 51q127 48 164 72q65 45 66 120q0 67 -43 97t-113 30q-105 0 -215 -63q-18 -11 -37 -11q-32 0 -54 22.5t-22 53.5q0 47 43 68q141 69 297 69q171 0 252.5 -74.5t81.5 -191.5
q0 -42 -11 -78t-26.5 -62.5t-43 -50.5t-49.5 -38.5t-56.5 -29.5t-54 -22t-53 -18t-42.5 -14q-80 -28 -131 -71t-51 -116q0 -70 51 -108.5t133 -38.5q93 0 217 61q18 11 37 11q32 0 55 -24t23 -56q0 -25 -13.5 -45t-35.5 -29q-145 -59 -313 -59z" />
    <glyph glyph-name="uni0434" unicode="&#x434;" horiz-adv-x="1091" 
d="M766 954q3 33 29 56.5t59 23.5q36 0 62 -26t26 -62v-848q0 -91 -26.5 -168.5t-79.5 -138t-140.5 -95t-201.5 -34.5q-189 0 -344 78q-41 20 -41 67q0 32 22 54t53 22q20 0 37 -10q136 -72 266 -72q125 0 199 72t74 221v78q-96 -127 -273 -127q-65 0 -123.5 17.5t-110.5 57
t-89.5 97t-59.5 142t-22 188.5q0 231 104 361t291 130q181 0 285 -129zM520 184q121 0 186.5 92t65.5 261q0 73 -12.5 134.5t-40.5 114.5t-79.5 83t-121.5 30q-57 0 -100.5 -20.5t-70 -54t-43.5 -80.5t-23.5 -96t-6.5 -105q0 -167 60 -263t186 -96z" />
    <glyph glyph-name="uni0435" unicode="&#x435;" horiz-adv-x="1011" 
d="M526 1038q86 0 156.5 -24.5t127.5 -76.5t88.5 -143t31.5 -214v-41q-3 -49 -31 -74t-76 -25h-553q27 -317 303 -317q98 0 207 37q30 10 41 10q30 0 49 -21t19 -51q0 -50 -47 -67q-129 -47 -283 -47q-239 0 -360 138.5t-121 387.5q0 252 118.5 390t329.5 138zM737 567
q2 12 2 68q0 128 -56 196t-161 68q-120 0 -183 -87t-71 -245h469z" />
    <glyph glyph-name="uni0436" unicode="&#x436;" horiz-adv-x="1441" 
d="M1325 133q16 -24 16 -57q0 -84 -86 -84q-55 0 -81 51l-236 438h-127v-399q0 -37 -26.5 -63.5t-63.5 -26.5t-63.5 26.5t-26.5 63.5v399h-127l-236 -438q-26 -51 -82 -51q-86 0 -86 84q0 31 17 57l239 422l-221 352q-31 53 -13.5 91t64.5 38q23 0 40 -9.5t25.5 -20
t24.5 -35.5l209 -338h146v721q0 37 26.5 63.5t63.5 26.5t63.5 -26.5t26.5 -63.5v-721h145l209 338q16 25 24.5 35.5t25.5 20t40 9.5q47 0 65 -38t-13 -91l-222 -352z" />
    <glyph glyph-name="uni0437" unicode="&#x437;" horiz-adv-x="886" 
d="M510 414q136 -18 218.5 -108.5t82.5 -246.5q0 -178 -112 -287.5t-330 -109.5q-176 0 -328 82q-41 23 -41 70q0 32 23 54.5t55 22.5q21 0 41 -12q132 -78 246 -78q113 0 183 66.5t70 200.5q0 270 -317 256q-56 -3 -94 45q-23 32 -11.5 63.5t48.5 42.5q40 12 75 8
q121 -8 187.5 46.5t66.5 164.5q0 100 -55.5 151.5t-150.5 51.5q-96 0 -209 -63q-15 -9 -37 -9q-30 0 -52 22t-22 52q0 45 41 66q143 73 303 73q169 0 272 -86.5t103 -234.5q0 -110 -56.5 -187t-146.5 -104q-28 -8 -53 -12z" />
    <glyph glyph-name="uni0438" unicode="&#x438;" 
d="M434 -16q-42 0 -82.5 10.5t-82.5 37.5t-73 69t-51 111t-20 157v573q0 37 27 64.5t65 27.5t65 -27.5t27 -64.5v-551q0 -49 8 -90t28 -81t60 -62.5t97 -22.5q109 0 178.5 91.5t69.5 260.5v455q0 37 27 64.5t65 27.5t65 -27.5t27 -64.5v-864q0 -36 -26 -62t-62 -26
q-32 0 -57.5 23t-28.5 55l-10 86q-108 -170 -316 -170z" />
    <glyph glyph-name="uni0439" unicode="&#x439;" horiz-adv-x="1032" 
d="M242 1274q0 28 22.5 45t50.5 10q197 -55 394 0q27 8 50 -9t23 -46q0 -41 -43 -55q-227 -66 -454 0q-18 5 -30.5 20t-12.5 35zM432 -16q-42 0 -82.5 10.5t-82.5 37.5t-73 69t-51 111t-20 157v573q0 37 27 64.5t65 27.5t65 -27.5t27 -64.5v-551q0 -49 8 -90t28 -81
t60 -62.5t97 -22.5q109 0 178.5 91.5t69.5 260.5v455q0 37 27 64.5t65 27.5t65 -27.5t27 -64.5v-864q0 -36 -26 -62t-62 -26q-32 0 -57.5 23t-28.5 55l-10 86q-108 -170 -316 -170z" />
    <glyph glyph-name="uni043A" unicode="&#x43a;" horiz-adv-x="983" 
d="M866 131q13 -19 13 -49q0 -40 -24.5 -66t-68.5 -26q-26 0 -49 14t-35 37l-235 440h-135v-399q0 -37 -27 -64.5t-65 -27.5t-65.5 27.5t-27.5 64.5v1270q0 37 27.5 64.5t65.5 27.5t65 -27.5t27 -64.5v-719h153l209 338q22 34 41 49.5t53 15.5q47 0 68 -37.5t-8 -91.5
l-221 -352z" />
    <glyph glyph-name="uni043B" unicode="&#x43b;" horiz-adv-x="966" 
d="M885 127q17 -52 -1.5 -93.5t-74.5 -41.5q-44 0 -67 22t-40 80l-194 662q-20 74 -25 100q-8 -39 -24 -100l-201 -680q-11 -41 -33.5 -62.5t-64.5 -21.5q-54 0 -74 37.5t-8 76.5l272 840q13 42 47 66t78 24h17q43 0 77 -24t47 -66z" />
    <glyph glyph-name="uni043C" unicode="&#x43c;" horiz-adv-x="1265" 
d="M1147 80q2 -36 -23 -63t-61 -27q-33 0 -57.5 23.5t-26.5 56.5l-18 401q-2 262 -7 385l-211 -676q-11 -36 -41.5 -59t-68.5 -23t-69 23.5t-42 58.5l-205 623l-16 51l-12 -383l-19 -408q-2 -31 -23 -52t-52 -21q-33 0 -56.5 24.5t-21.5 57.5l55 843q3 51 40.5 85t88.5 34
q41 0 75 -25.5t46 -62.5l219 -661l199 657q12 40 46.5 66t76.5 26q52 0 90 -35t41 -86z" />
    <glyph glyph-name="uni043D" unicode="&#x43d;" horiz-adv-x="1103" 
d="M772 942q0 37 27 64.5t65 27.5t65 -27.5t27 -64.5v-860q0 -37 -27 -64.5t-65 -27.5t-65 27.5t-27 64.5v348h-440v-348q0 -37 -27 -64.5t-65 -27.5t-65.5 27.5t-27.5 64.5v860q0 37 27.5 64.5t65.5 27.5t65 -27.5t27 -64.5v-362h440v362z" />
    <glyph glyph-name="uni043E" unicode="&#x43e;" horiz-adv-x="1052" 
d="M526 1038q219 0 334 -143t115 -383t-115 -383t-334 -143t-333.5 143t-114.5 383t114.5 383t333.5 143zM526 125q129 0 192.5 101t63.5 286q0 184 -63.5 285.5t-192.5 101.5t-192.5 -101.5t-63.5 -285.5q0 -185 63.5 -286t192.5 -101z" />
    <glyph glyph-name="uni043F" unicode="&#x43f;" 
d="M647 1040q42 0 82.5 -10.5t82.5 -37.5t73 -69t51 -111t20 -157v-573q0 -37 -27 -64.5t-65 -27.5t-65 27.5t-27 64.5v551q0 256 -192 256q-109 0 -178.5 -91.5t-69.5 -260.5v-455q0 -37 -27 -64.5t-65 -27.5t-65.5 27.5t-27.5 64.5v864q0 36 26.5 62t62.5 26
q32 0 57.5 -23t28.5 -55l10 -86q108 170 315 170z" />
    <glyph glyph-name="uni0440" unicode="&#x440;" horiz-adv-x="1101" 
d="M324 958l8 -71q109 153 295 153q188 0 289.5 -139t101.5 -397q0 -249 -100 -383.5t-285 -134.5q-194 0 -297 143v-385q0 -37 -27 -64.5t-65 -27.5t-65 27.5t-27 64.5v1204q0 35 25.5 60.5t60.5 25.5q34 0 58.5 -22t27.5 -54zM578 125q119 0 183 102t64 291
q0 184 -63 283.5t-180 99.5q-122 0 -188 -102.5t-66 -292.5q0 -183 65 -282t185 -99z" />
    <glyph glyph-name="uni0441" unicode="&#x441;" horiz-adv-x="901" 
d="M575 123q71 0 158 37q12 6 29 6q31 0 53.5 -22.5t22.5 -53.5q0 -26 -15 -46t-37 -28q-95 -32 -239 -32q-153 0 -260 67t-158 183t-51 274q0 113 27.5 207.5t82.5 167.5t146 114t211 41q129 0 229 -32q22 -8 36.5 -27t14.5 -43q0 -31 -21.5 -53.5t-51.5 -22.5q-3 0 -27 6
q-87 33 -170 33q-145 0 -215 -106t-70 -275q0 -80 16.5 -148t51 -125t95.5 -89.5t142 -32.5z" />
    <glyph glyph-name="uni0442" unicode="&#x442;" horiz-adv-x="1603" 
d="M1186 1038q43 0 82.5 -10.5t79 -37.5t67.5 -69t46 -111t18 -157v-571q0 -37 -27.5 -64.5t-65.5 -27.5t-65 27.5t-27 64.5v549q0 36 -1.5 60.5t-6.5 57.5t-16 54.5t-29 42.5t-47 31t-68 10q-106 0 -163.5 -89t-57.5 -261v-455q0 -37 -27 -64.5t-65 -27.5t-65 27.5
t-27 64.5v549q0 36 -1.5 60.5t-6.5 57.5t-16 54.5t-29 42.5t-47 31t-68 10q-106 0 -163.5 -89t-57.5 -261v-455q0 -37 -27 -64.5t-65 -27.5t-65.5 27.5t-27.5 64.5v864q0 36 26.5 62t62.5 26q32 0 57.5 -23t28.5 -55l10 -84q30 50 63 83.5t91.5 58t134.5 24.5q117 0 192 -80
q37 -43 51 -96q2 2 6 10q111 166 316 166z" />
    <glyph glyph-name="uni0443" unicode="&#x443;" horiz-adv-x="970" 
d="M811 1034q37 0 62.5 -26.5t25.5 -63.5q0 -18 -2 -26l-293 -975q-43 -142 -122 -206.5t-249 -74.5q-32 -2 -56.5 21t-24.5 55t23 55t54 23q85 0 142.5 30.5t81.5 112.5l12 41q-85 0 -111 82l-278 831q-4 16 -4 29q0 38 26.5 65t63.5 27q30 0 53.5 -17.5t32.5 -45.5
l254 -801l221 799q8 28 32 46.5t56 18.5z" />
    <glyph glyph-name="uni0444" unicode="&#x444;" horiz-adv-x="1320" 
d="M748 1036q233 -24 364 -157.5t131 -364.5q0 -232 -131.5 -365.5t-363.5 -158.5v-269q0 -37 -27 -63.5t-64 -26.5t-63.5 26.5t-26.5 63.5v269q-235 25 -365 159t-130 365q0 233 131 365.5t364 156.5v269q0 37 26.5 63.5t63.5 26.5t64 -26.5t27 -63.5v-269zM262 512
q0 -344 305 -383v768q-305 -42 -305 -385zM1053 514q0 169 -73 265.5t-232 117.5v-768q159 20 232 117t73 268z" />
    <glyph glyph-name="uni0445" unicode="&#x445;" horiz-adv-x="940" 
d="M868 115q13 -20 13 -43q0 -33 -23.5 -56.5t-56.5 -23.5q-45 0 -70 39l-258 364l-250 -360q-28 -43 -73 -43q-34 0 -59 25.5t-25 60.5q0 26 12 43l287 403l-281 387q-12 18 -12 41q0 34 24 58t58 24q44 0 69 -39l242 -338l237 336q25 41 70 41q34 0 58 -24t24 -58
q0 -23 -12 -41l-277 -381z" />
    <glyph glyph-name="uni0446" unicode="&#x446;" horiz-adv-x="1161" 
d="M934 221q0 -102 102 -102q37 0 61.5 -24.5t24.5 -61.5v-180q0 -37 -24.5 -63t-59.5 -26t-59.5 26t-24.5 63v145q-93 -6 -146 29t-60 127q-105 -168 -314 -168q-42 0 -82.5 10.5t-82.5 37.5t-73 69t-51 111t-20 157v565q0 37 25.5 62.5t62.5 25.5h8q37 0 62.5 -25.5
t25.5 -62.5v-543q0 -49 8 -90t28 -81t60 -62.5t97 -22.5q109 0 178.5 91t69.5 259v449q0 37 25.5 62.5t62.5 25.5h8q37 0 62.5 -25.5t25.5 -62.5v-715z" />
    <glyph glyph-name="uni0447" unicode="&#x447;" horiz-adv-x="1019" 
d="M686 942q0 37 27 64.5t65 27.5t65 -27.5t27 -64.5v-860q0 -37 -27 -64.5t-65 -27.5t-65 27.5t-27 64.5v358q-70 -46 -133.5 -69t-140.5 -23q-69 0 -126 19t-104.5 60t-74.5 114.5t-27 173.5v227q0 37 27 64.5t65 27.5t65 -27.5t27 -64.5v-205q0 -122 43 -179.5t148 -57.5
q63 0 113.5 21.5t117.5 78.5v342z" />
    <glyph glyph-name="uni0448" unicode="&#x448;" horiz-adv-x="1603" 
d="M1364 1034q38 0 65 -27.5t27 -64.5v-864q0 -36 -26 -62t-62 -26q-32 0 -57.5 23t-28.5 55l-10 84q-30 -50 -63 -83.5t-91.5 -58t-134.5 -24.5q-117 0 -192 80q-39 44 -52 96q-2 -2 -6 -10q-111 -166 -315 -166q-43 0 -82.5 10.5t-79 37.5t-67.5 69t-46 111t-18 157v571
q0 37 27 64.5t65 27.5t65 -27.5t27 -64.5v-549q0 -36 1.5 -60.5t6.5 -57.5t16 -54.5t29 -42.5t47 -31t68 -10q106 0 163.5 89t57.5 261v455q0 37 27.5 64.5t65.5 27.5t65 -27.5t27 -64.5v-549q0 -36 1.5 -60.5t6.5 -57.5t16 -54.5t29 -42.5t47 -31t68 -10q106 0 163.5 89
t57.5 261v455q0 37 27 64.5t65 27.5z" />
    <glyph glyph-name="uni0449" unicode="&#x449;" horiz-adv-x="1685" 
d="M1546 121q52 -13 76.5 -35t24.5 -66v-182q0 -34 -24.5 -59t-59.5 -25t-59.5 25t-24.5 59v160q-194 -14 -205 152h-2q-46 -77 -112 -120.5t-175 -43.5q-180 0 -246 170q-111 -170 -319 -170q-43 0 -82.5 10.5t-79 37.5t-67.5 69t-46 111t-18 157v571q0 37 27 64.5t65 27.5
t65 -27.5t27 -64.5v-549q0 -36 1.5 -60.5t6.5 -57.5t16 -54.5t29 -42.5t47 -31t68 -10q106 0 163.5 89t57.5 261v455q0 37 27.5 64.5t65.5 27.5t65 -27.5t27 -64.5v-549q0 -36 1.5 -60.5t6.5 -57.5t16 -54.5t29 -42.5t47 -31t68 -10q106 0 163.5 89t57.5 261v455
q0 37 27 64.5t65 27.5t65 -27.5t27 -64.5v-688q0 -113 88 -133z" />
    <glyph glyph-name="uni044A" unicode="&#x44a;" horiz-adv-x="1185" 
d="M745 846q172 0 273.5 -110t101.5 -310q0 -212 -111.5 -326t-303.5 -114q-198 0 -307 115t-109 331v467h-197q-25 0 -44 18.5t-19 43.5q0 26 19 44.5t44 18.5h281q100 0 100 -100v-189q100 111 272 111zM694 125q106 0 170 77.5t64 223.5q0 133 -62.5 206t-163.5 73
q-111 0 -172 -72.5t-61 -208.5q0 -148 58.5 -223.5t166.5 -75.5zM473 651v2v-2z" />
    <glyph glyph-name="uni044B" unicode="&#x44b;" horiz-adv-x="1470" 
d="M584 846q172 0 273 -109.5t101 -310.5q0 -212 -111.5 -326t-303.5 -114q-198 0 -307 115t-109 331v510q0 37 27 64.5t65 27.5t65 -27.5t27 -64.5v-207q100 111 273 111zM1233 1034q38 0 65 -27.5t27 -64.5v-860q0 -37 -27 -64.5t-65 -27.5t-65 27.5t-27 64.5v860
q0 37 27 64.5t65 27.5zM532 121q107 0 170.5 78t63.5 227q0 136 -62 209.5t-163 73.5q-111 0 -172.5 -73.5t-61.5 -211.5q0 -151 58.5 -227t166.5 -76zM311 651v2v-2z" />
    <glyph glyph-name="uni044C" unicode="&#x44c;" horiz-adv-x="1024" 
d="M584 846q172 0 273 -109.5t101 -310.5q0 -212 -111.5 -326t-303.5 -114q-198 0 -307 115t-109 331v510q0 37 27 64.5t65 27.5t65 -27.5t27 -64.5v-207q100 111 273 111zM532 121q107 0 170.5 78t63.5 227q0 136 -62 209.5t-163 73.5q-111 0 -172.5 -73.5t-61.5 -211.5
q0 -151 58.5 -227t166.5 -76zM311 651v2v-2z" />
    <glyph glyph-name="uni044D" unicode="&#x44d;" horiz-adv-x="903" 
d="M358 1038q120 0 211 -41t146 -114t82.5 -167.5t27.5 -207.5q0 -158 -51 -274t-158 -183t-260 -67q-144 0 -239 32q-22 8 -36.5 28t-14.5 46q0 31 22 53.5t53 22.5q17 0 29 -6q87 -37 158 -37q140 0 213 89t88 232h-310q-25 0 -43 18t-18 44t18 43.5t43 17.5h312
q-10 150 -79.5 241t-203.5 91q-83 0 -170 -33q-24 -6 -26 -6q-31 0 -52.5 22.5t-21.5 53.5q0 24 14.5 43t36.5 27q100 32 229 32z" />
    <glyph glyph-name="uni044E" unicode="&#x44e;" horiz-adv-x="1449" 
d="M924 1038q219 0 333.5 -143t114.5 -383t-114.5 -383t-333.5 -143q-200 0 -313.5 121t-131.5 327h-147v-352q0 -37 -27 -64.5t-65 -27.5t-65.5 27.5t-27.5 64.5v1270q0 37 27.5 64.5t65.5 27.5t65 -27.5t27 -64.5v-762h147q18 206 131.5 327t313.5 121zM924 125
q129 0 192.5 101t63.5 286q0 184 -63.5 285.5t-192.5 101.5t-192.5 -101.5t-63.5 -285.5q0 -185 63.5 -286t192.5 -101z" />
    <glyph glyph-name="uni044F" unicode="&#x44f;" horiz-adv-x="1005" 
d="M434 1024h320q100 0 100 -100v-842q0 -37 -27 -64.5t-65 -27.5t-65 27.5t-27 64.5v289h-178l-179 -330q-12 -22 -35.5 -36.5t-50.5 -14.5q-39 0 -67.5 28.5t-28.5 67.5q0 24 14 49l156 264q-112 41 -164.5 122t-52.5 175q0 64 21.5 121.5t63 104.5t110 74.5t155.5 27.5z
M670 512v369h-207q-94 0 -140.5 -53t-46.5 -128q0 -83 48.5 -135.5t138.5 -52.5h207z" />
    <glyph glyph-name="uni0450" unicode="&#x450;" horiz-adv-x="1011" 
d="M475 1176l-94 204q-6 12 -6 31q0 31 22.5 53.5t53.5 22.5q24 0 43.5 -14.5t27.5 -36.5l72 -213q10 -32 -9 -59t-53 -27q-40 0 -57 39zM526 1038q86 0 156.5 -24.5t127.5 -76.5t88.5 -143t31.5 -214v-41q-3 -49 -31 -74t-76 -25h-553q27 -317 303 -317q98 0 207 37
q30 10 41 10q30 0 49 -21t19 -51q0 -50 -47 -67q-129 -47 -283 -47q-239 0 -360 138.5t-121 387.5q0 252 118.5 390t329.5 138zM737 567q2 12 2 68q0 128 -56 196t-161 68q-120 0 -183 -87t-71 -245h469z" />
    <glyph glyph-name="uni0451" unicode="&#x451;" horiz-adv-x="1011" 
d="M328 1130q-107 0 -107 99q0 100 109 100q108 0 108 -100q0 -99 -110 -99zM676 1130q-107 0 -107 99q0 100 109 100q108 0 108 -100q0 -99 -110 -99zM526 1038q86 0 156.5 -24.5t127.5 -76.5t88.5 -143t31.5 -214v-41q-3 -49 -31 -74t-76 -25h-553q27 -317 303 -317
q98 0 207 37q30 10 41 10q30 0 49 -21t19 -51q0 -50 -47 -67q-129 -47 -283 -47q-239 0 -360 138.5t-121 387.5q0 252 118.5 390t329.5 138zM737 567q2 12 2 68q0 128 -56 196t-161 68q-120 0 -183 -87t-71 -245h469z" />
    <glyph glyph-name="uni045D" unicode="&#x45d;" 
d="M350 1411q0 31 22.5 53.5t53.5 22.5q24 0 44 -14.5t28 -36.5l71 -213q11 -32 -8 -59t-53 -27q-40 0 -57 39l-95 204q-6 12 -6 31zM434 -16q-42 0 -82.5 10.5t-82.5 37.5t-73 69t-51 111t-20 157v573q0 37 27 64.5t65 27.5t65 -27.5t27 -64.5v-551q0 -49 8 -90t28 -81
t60 -62.5t97 -22.5q109 0 178.5 91.5t69.5 260.5v455q0 37 27 64.5t65 27.5t65 -27.5t27 -64.5v-864q0 -36 -26 -62t-62 -26q-32 0 -57.5 23t-28.5 55l-10 86q-108 -170 -316 -170z" />
    <glyph glyph-name="Wgrave" unicode="&#x1e80;" horiz-adv-x="1800" 
d="M848 1577l-51 168q-11 38 5 66.5t54 31.5q25 1 44.5 -11t25.5 -32l45 -178q9 -34 -11 -60t-55 -26h-2q-43 0 -55 41zM1612 1374q44 0 71.5 -36t16.5 -78l-303 -1151q-14 -53 -56.5 -86t-97.5 -33q-58 0 -102.5 37t-55.5 92l-149 737l-35 186q-4 20 -4 29l-43 -235
l-141 -719q-11 -56 -54 -91.5t-100 -35.5q-53 0 -95 33t-56 83l-302 1145q-12 46 18 84.5t77 38.5q35 0 61.5 -21t34.5 -55l215 -907l45 -205l4 -16q0 10 2 16l41 207l189 889q7 40 40 66t74 26t74.5 -26t40.5 -66l178 -846l49 -250l6 -32q1 3 3.5 14t3.5 18l59 269l203 850
q8 31 32 50t56 19z" />
    <glyph glyph-name="wgrave" unicode="&#x1e81;" horiz-adv-x="1415" 
d="M539 1411q0 31 22 53.5t53 22.5q24 0 44 -14.5t28 -36.5l72 -213q10 -32 -9 -59t-53 -27q-40 0 -57 39l-94 204q-6 12 -6 31zM1188 975q6 25 27.5 42t48.5 17q38 0 61 -31.5t14 -68.5l-229 -864q-9 -37 -41.5 -62.5t-71.5 -25.5q-41 0 -72 25.5t-40 64.5l-125 510
l-58 286l-53 -282l-110 -506q-9 -42 -43 -70t-78 -28q-41 0 -74.5 26.5t-44.5 65.5l-223 846q-11 43 16 78.5t72 35.5q31 0 55.5 -20.5t32.5 -50.5l117 -492l53 -278l49 278l100 459q11 47 49.5 78.5t88.5 31.5q49 0 86.5 -30.5t48.5 -77.5l104 -463l49 -283l60 283z" />
    <glyph glyph-name="Wacute" unicode="&#x1e82;" horiz-adv-x="1800" 
d="M938 1495q-25 0 -43 18t-18 43q0 11 8 27l71 141q8 17 25 28t37 11q29 0 49 -20t20 -49q0 -17 -12 -37l-86 -133q-18 -29 -51 -29zM1612 1374q44 0 71.5 -36t16.5 -78l-303 -1151q-14 -53 -56.5 -86t-97.5 -33q-58 0 -102.5 37t-55.5 92l-149 737l-35 186q-4 20 -4 29
l-43 -235l-141 -719q-11 -56 -54 -91.5t-100 -35.5q-53 0 -95 33t-56 83l-302 1145q-12 46 18 84.5t77 38.5q35 0 61.5 -21t34.5 -55l215 -907l45 -205l4 -16q0 10 2 16l41 207l189 889q7 40 40 66t74 26t74.5 -26t40.5 -66l178 -846l49 -250l6 -32q1 3 3.5 14t3.5 18
l59 269l203 850q8 31 32 50t56 19z" />
    <glyph glyph-name="wacute" unicode="&#x1e83;" horiz-adv-x="1415" 
d="M827 1487q29 0 50.5 -21.5t21.5 -52.5q0 -13 -8 -33l-109 -209q-19 -34 -55 -34q-26 0 -44.5 18.5t-18.5 44.5q0 7 6 25l90 217q17 45 67 45zM1188 975q6 25 27.5 42t48.5 17q38 0 61 -31.5t14 -68.5l-229 -864q-9 -37 -41.5 -62.5t-71.5 -25.5q-41 0 -72 25.5t-40 64.5
l-125 510l-58 286l-53 -282l-110 -506q-9 -42 -43 -70t-78 -28q-41 0 -74.5 26.5t-44.5 65.5l-223 846q-11 43 16 78.5t72 35.5q31 0 55.5 -20.5t32.5 -50.5l117 -492l53 -278l49 278l100 459q11 47 49.5 78.5t88.5 31.5q49 0 86.5 -30.5t48.5 -77.5l104 -463l49 -283
l60 283z" />
    <glyph glyph-name="Wdieresis" unicode="&#x1e84;" horiz-adv-x="1800" 
d="M700 1561q-100 0 -100 96q0 98 102 98q49 0 75 -25.5t26 -72.5q0 -96 -103 -96zM1098 1561q-99 0 -99 96q0 98 101 98q98 0 98 -98q0 -96 -100 -96zM1612 1374q44 0 71.5 -36t16.5 -78l-303 -1151q-14 -53 -56.5 -86t-97.5 -33q-58 0 -102.5 37t-55.5 92l-149 737
l-35 186q-4 20 -4 29l-43 -235l-141 -719q-11 -56 -54 -91.5t-100 -35.5q-53 0 -95 33t-56 83l-302 1145q-12 46 18 84.5t77 38.5q35 0 61.5 -21t34.5 -55l215 -907l45 -205l4 -16q0 10 2 16l41 207l189 889q7 40 40 66t74 26t74.5 -26t40.5 -66l178 -846l49 -250l6 -32
q1 3 3.5 14t3.5 18l59 269l203 850q8 31 32 50t56 19z" />
    <glyph glyph-name="wdieresis" unicode="&#x1e85;" horiz-adv-x="1415" 
d="M532 1130q-106 0 -106 99q0 100 109 100q108 0 108 -100q0 -99 -111 -99zM881 1130q-107 0 -107 99q0 100 109 100q108 0 108 -100q0 -99 -110 -99zM1188 975q6 25 27.5 42t48.5 17q38 0 61 -31.5t14 -68.5l-229 -864q-9 -37 -41.5 -62.5t-71.5 -25.5q-41 0 -72 25.5
t-40 64.5l-125 510l-58 286l-53 -282l-110 -506q-9 -42 -43 -70t-78 -28q-41 0 -74.5 26.5t-44.5 65.5l-223 846q-11 43 16 78.5t72 35.5q31 0 55.5 -20.5t32.5 -50.5l117 -492l53 -278l49 278l100 459q11 47 49.5 78.5t88.5 31.5q49 0 86.5 -30.5t48.5 -77.5l104 -463
l49 -283l60 283z" />
    <glyph glyph-name="Ygrave" unicode="&#x1ef2;" horiz-adv-x="1181" 
d="M539 1577l-52 168q-11 38 5 66.5t55 31.5q25 1 44 -11t25 -32l46 -178q9 -34 -11 -60t-55 -26h-2q-43 0 -55 41zM987 1374q35 0 59.5 -25.5t24.5 -60.5q0 -24 -8 -37l-344 -680l-31 -59h-2v-426q0 -40 -28 -68t-68 -28t-68 28t-28 68v428l-369 725q-10 23 -10 43
q0 37 27 64.5t65 27.5q28 0 51 -14t33 -39l282 -590q13 -25 23 -53q1 2 8.5 21.5t13.5 31.5l293 596q11 21 31.5 34t44.5 13z" />
    <glyph glyph-name="ygrave" unicode="&#x1ef3;" horiz-adv-x="970" 
d="M395 1176l-94 204q-6 12 -6 31q0 31 22.5 53.5t53.5 22.5q24 0 43.5 -14.5t27.5 -36.5l72 -213q11 -32 -8 -59t-53 -27q-41 0 -58 39zM811 1034q37 0 62.5 -26.5t25.5 -63.5q0 -18 -2 -26l-293 -975q-43 -142 -122 -206.5t-249 -74.5q-32 -2 -56.5 21t-24.5 55t23 55
t54 23q85 0 142.5 30.5t81.5 112.5l12 41q-85 0 -111 82l-278 831q-4 16 -4 29q0 38 26.5 65t63.5 27q30 0 53.5 -17.5t32.5 -45.5l254 -801l221 799q8 28 32 46.5t56 18.5z" />
    <glyph glyph-name="endash" unicode="&#x2013;" 
d="M115 590q0 29 21 49t50 20h709q30 0 51 -20t21 -49q0 -30 -21 -51t-51 -21h-709q-30 0 -50.5 21t-20.5 51z" />
    <glyph glyph-name="emdash" unicode="&#x2014;" horiz-adv-x="1286" 
d="M115 590q0 29 21 49t50 20h914q29 0 50 -20t21 -49q0 -30 -20.5 -51t-50.5 -21h-914q-30 0 -50.5 21t-20.5 51z" />
    <glyph glyph-name="quoteleft" unicode="&#x2018;" horiz-adv-x="497" 
d="M256 1214q44 0 75 -29.5t31 -80.5q0 -52 -31.5 -84.5t-88.5 -32.5q-64 0 -96.5 42.5t-32.5 111.5q0 86 43.5 165.5t83.5 110.5q17 13 34 13q18 0 29.5 -12t11.5 -32q0 -10 -5 -20.5t-10 -16.5t-19 -21.5t-21 -22.5q-29 -34 -39 -74q-4 -16 -4 -25q16 8 39 8z" />
    <glyph glyph-name="quoteright" unicode="&#x2019;" horiz-adv-x="481" 
d="M233 1434q64 0 96.5 -42.5t32.5 -111.5q0 -87 -43 -167.5t-83 -108.5q-17 -13 -35 -13t-29.5 11.5t-11.5 31.5q0 10 5 21t9.5 16.5t19.5 22t21 22.5q29 34 39 74q4 16 4 24q-16 -8 -39 -8q-44 0 -75 29.5t-31 81.5t31.5 84.5t88.5 32.5z" />
    <glyph glyph-name="quotesinglbase" unicode="&#x201a;" horiz-adv-x="602" 
d="M219 221q64 0 96.5 -42.5t32.5 -110.5q0 -87 -43.5 -168t-83.5 -109q-16 -12 -35 -12q-18 0 -29.5 11.5t-11.5 31.5q0 10 5 21t10.5 17t19.5 21t21 23q30 34 39 73q4 16 4 25q-16 -8 -39 -8q-44 0 -75.5 29.5t-31.5 80.5q0 52 32 84.5t89 32.5z" />
    <glyph glyph-name="quotedblleft" unicode="&#x201c;" horiz-adv-x="860" 
d="M274 1214q44 0 75.5 -29.5t31.5 -80.5q0 -52 -32 -84.5t-89 -32.5q-64 0 -96.5 42.5t-32.5 111.5q0 86 43.5 167t83.5 109q17 13 35 13t29.5 -12t11.5 -32q0 -10 -5 -20.5t-10 -16.5t-19 -21.5t-21 -22.5q-29 -34 -39 -74q-4 -16 -4 -25q16 8 38 8zM633 1214
q44 0 75 -29.5t31 -80.5q0 -52 -32 -84.5t-89 -32.5q-64 0 -96.5 42.5t-32.5 111.5q0 86 43.5 167t83.5 109q17 13 35 13t29.5 -12t11.5 -32q0 -10 -5 -20.5t-10 -16.5t-19 -21.5t-21 -22.5q-29 -34 -39 -74q-4 -16 -4 -25q16 8 39 8z" />
    <glyph glyph-name="quotedblright" unicode="&#x201d;" horiz-adv-x="854" 
d="M233 1434q64 0 96.5 -42.5t32.5 -111.5q0 -87 -43 -167.5t-83 -108.5q-17 -13 -35 -13t-29.5 11.5t-11.5 31.5q0 10 5 21t9.5 16.5t19.5 22t21 22.5q29 34 39 74q4 16 4 24q-16 -8 -39 -8q-44 0 -75 29.5t-31 81.5t31.5 84.5t88.5 32.5zM592 1434q64 0 96.5 -42.5
t32.5 -111.5q0 -86 -43.5 -167t-83.5 -109q-17 -13 -35 -13t-29.5 11.5t-11.5 31.5q0 10 5 21t9.5 16.5t19.5 22t21 22.5q29 34 39 74q4 16 4 24q-16 -8 -38 -8q-44 0 -75.5 30t-31.5 81q0 52 32 84.5t89 32.5z" />
    <glyph glyph-name="quotedblbase" unicode="&#x201e;" horiz-adv-x="839" 
d="M219 223q64 0 96.5 -42.5t32.5 -110.5q0 -87 -43.5 -168t-83.5 -109q-16 -12 -35 -12q-18 0 -29.5 11.5t-11.5 31.5q0 10 5 21t10.5 17t19.5 21t21 23q29 34 39 74q4 16 4 24q-16 -8 -39 -8q-44 0 -75.5 29.5t-31.5 80.5q0 52 32 84.5t89 32.5zM578 223q64 0 96.5 -42.5
t32.5 -110.5q0 -87 -43.5 -168t-83.5 -109q-16 -12 -35 -12q-18 0 -29.5 11.5t-11.5 31.5q0 10 5 21t9.5 16.5t19.5 22t21 22.5q29 34 39 74q4 16 4 24q-16 -8 -39 -8q-44 0 -75 29.5t-31 80.5q0 52 32 84.5t89 32.5z" />
    <glyph glyph-name="bullet" unicode="&#x2022;" horiz-adv-x="659" 
d="M334 895q89 0 132.5 -49t43.5 -133q0 -77 -48.5 -127.5t-135.5 -50.5q-81 0 -130 51t-49 127q0 81 50 131.5t137 50.5z" />
    <glyph glyph-name="ellipsis" unicode="&#x2026;" horiz-adv-x="1396" 
d="M262 215q55 0 82 -30.5t27 -82.5q0 -46 -30 -77t-83 -31q-51 0 -81 31t-30 77q0 51 30.5 82t84.5 31zM700 215q55 0 82 -30.5t27 -82.5q0 -46 -30 -77t-83 -31q-51 0 -80.5 31t-29.5 77q0 51 30 82t84 31zM1137 215q55 0 81.5 -30.5t26.5 -82.5q0 -47 -29.5 -77.5
t-82.5 -30.5q-51 0 -81 31t-30 77q0 51 30.5 82t84.5 31z" />
    <glyph glyph-name="guilsinglleft" unicode="&#x2039;" horiz-adv-x="530" 
d="M371 860q22 0 36.5 -14.5t14.5 -36.5q0 -18 -8 -29l-189 -272l189 -275q8 -11 8 -28q0 -22 -14.5 -36.5t-36.5 -14.5q-49 26 -78 59l-170 195q-47 56 -47 100q0 45 47 98l209 238q13 16 39 16z" />
    <glyph glyph-name="guilsinglright" unicode="&#x203a;" horiz-adv-x="530" 
d="M117 780q-8 11 -8 29q0 22 14.5 36.5t36.5 14.5q49 -26 78 -59l170 -195q47 -56 47 -98q0 -47 -47 -100l-209 -238q-13 -16 -39 -16q-22 0 -36.5 14.5t-14.5 36.5q0 17 8 28l188 275z" />
    <glyph glyph-name="Euro" unicode="&#x20ac;" horiz-adv-x="1429" 
d="M1192 188q35 0 60.5 -25.5t25.5 -60.5q0 -27 -16 -48.5t-43 -30.5q-125 -43 -291 -43q-271 0 -424.5 137.5t-192.5 388.5h-114q-20 0 -35 14.5t-15 34.5q0 21 14.5 36t35.5 15h104q-2 25 -2 78q0 59 4 88h-106q-20 0 -35 14.5t-15 34.5q0 21 14.5 36t35.5 15h116
q15 85 42.5 157t77.5 139t117.5 113.5t166.5 74.5t221 28q154 0 279 -49q24 -9 39.5 -31t15.5 -49q0 -35 -25.5 -60.5t-60.5 -25.5q-23 0 -37 7q-108 53 -234 53q-168 0 -264.5 -98t-128.5 -259h418q20 0 34.5 -14.5t14.5 -36.5q0 -20 -14.5 -34.5t-34.5 -14.5h-432
q-4 -54 -4 -80q0 -32 4 -86h391q20 0 34.5 -14.5t14.5 -36.5q0 -20 -14.5 -34.5t-34.5 -14.5h-377q37 -176 145 -273.5t265 -97.5q111 0 229 47q12 6 31 6z" />
    <glyph glyph-name="uni2116" unicode="&#x2116;" horiz-adv-x="2142" 
d="M520 1284q-18 38 -53.5 59t-77.5 21q-70 0 -117 -47.5t-47 -118.5v-1108q0 -41 28 -69.5t69 -28.5t68.5 28.5t27.5 69.5v641l-21 406l492 -1055q19 -38 53.5 -60t75.5 -22q69 0 115.5 47.5t46.5 118.5v1110q0 41 -28 69.5t-69 28.5t-68.5 -28.5t-27.5 -69.5v-641l25 -406
zM1677 1364q155 0 238.5 -99t83.5 -249q0 -148 -83.5 -247t-238.5 -99t-238 98.5t-83 247.5q0 150 83 249t238 99zM1677 782q81 0 124.5 67t43.5 167q0 101 -43.5 168t-124.5 67t-125.5 -67t-44.5 -168q0 -99 44.5 -166.5t125.5 -67.5zM1894 365q31 0 52.5 20.5t21.5 50.5
q0 29 -21.5 49.5t-52.5 20.5h-434q-31 0 -52.5 -20t-21.5 -50t21.5 -50.5t52.5 -20.5h434z" />
    <glyph glyph-name="minus" unicode="&#x2212;" horiz-adv-x="1099" 
d="M840 643q25 0 42 16t17 41q0 23 -17 39.5t-42 16.5h-580q-25 0 -42 -16t-17 -40q0 -25 17 -41t42 -16h580z" />
    <glyph glyph-name="i.loclTRK" horiz-adv-x="479" 
d="M238 1130q-107 0 -107 99q0 98 109 98q108 0 108 -98q0 -99 -110 -99zM332 82q0 -37 -27 -64.5t-65 -27.5t-65.5 27.5t-27.5 64.5v860q0 37 27.5 64.5t65.5 27.5t65 -27.5t27 -64.5v-860z" />
    <glyph glyph-name="f_h" horiz-adv-x="1732" 
d="M1298 1038q42 0 82.5 -10.5t83 -37.5t73.5 -69t51 -111t20 -157v-571q0 -37 -27 -64.5t-65 -27.5t-65.5 27.5t-27.5 64.5v549q0 256 -192 256q-109 0 -178.5 -91t-69.5 -259v-455q0 -37 -27 -64.5t-65 -27.5t-65 27.5t-27 64.5v942q0 291 -211 291q-209 0 -209 -242v-49
h192q28 0 49 -20t21 -48q0 -29 -21 -49t-49 -20h-192v-805q0 -37 -27 -64.5t-65 -27.5t-65 27.5t-27 64.5v805h-99q-28 0 -48.5 20t-20.5 49q0 28 20.5 48t48.5 20h99v47q0 84 22 151t59 110t88.5 71t106 39.5t115.5 11.5q60 0 112 -11t105 -40.5t91 -76.5t61.5 -124
t23.5 -178v-160q110 174 319 174z" />
    <glyph glyph-name="f_i" horiz-adv-x="1077" 
d="M858 1024q100 0 100 -100v-842q0 -37 -27 -64.5t-65 -27.5t-65 27.5t-27 64.5v805h-395v-805q0 -37 -27 -64.5t-65 -27.5t-65 27.5t-27 64.5v805h-99q-28 0 -48.5 20t-20.5 49q0 28 20.5 48t48.5 20h99v51q0 383 432 383q133 0 280 -47q22 -8 36.5 -27t14.5 -45
q0 -31 -21 -52t-52 -21q-19 0 -31 6q-111 47 -211 47q-136 0 -200 -61t-64 -164v-70h479z" />
    <glyph glyph-name="f_j" horiz-adv-x="1087" 
d="M858 1024q100 0 100 -100v-947q0 -126 -76 -216t-202 -130q-12 -4 -25 -4q-34 0 -58 24t-24 58q0 27 16 48.5t40 29.5q74 28 109.5 71t35.5 119v910h-395v-805q0 -37 -27 -64.5t-65 -27.5t-65 27.5t-27 64.5v805h-99q-28 0 -48.5 20t-20.5 49q0 28 20.5 48t48.5 20h99v51
q0 383 432 383q133 0 280 -47q22 -8 36.5 -27t14.5 -45q0 -31 -21 -52t-52 -21q-19 0 -31 6q-111 47 -211 47q-135 0 -199.5 -62t-64.5 -163v-70h479z" />
    <glyph glyph-name="f_k" horiz-adv-x="1609" 
d="M1513 131q13 -20 13 -49q0 -40 -24 -66t-68 -26q-26 0 -49 14t-35 37l-236 440h-135v-399q0 -37 -27 -64.5t-65 -27.5t-65 27.5t-27 64.5v942q0 76 -15.5 132.5t-37 86t-52.5 47t-53.5 21.5t-48.5 4q-209 0 -209 -242v-49h192q28 0 49 -20t21 -48q0 -29 -21 -49t-49 -20
h-192v-805q0 -37 -27 -64.5t-65 -27.5t-65 27.5t-27 64.5v805h-99q-28 0 -48.5 20t-20.5 49q0 28 20.5 48t48.5 20h99v47q0 84 22 151t59 110t88.5 71t106 39.5t115.5 11.5q60 0 112 -11t105 -40.5t91 -76.5t61.5 -124t23.5 -178v-391h154l208 338q22 34 41.5 49.5
t53.5 15.5q48 0 68.5 -37.5t-9.5 -91.5l-221 -352z" />
    <glyph glyph-name="gravecomb.case" horiz-adv-x="0" 
d="M-686 1536q-43 0 -55 41l-52 168q-11 38 5 66.5t55 31.5q25 1 44 -11t25 -32l46 -178q9 -34 -11 -60t-55 -26h-2z" />
    <glyph glyph-name="acute.case" horiz-adv-x="643" 
d="M369 1464q29 0 49 -20t20 -49q0 -17 -12 -37l-86 -133q-18 -29 -51 -29q-25 0 -43.5 18t-18.5 43q0 9 9 27l71 141q8 17 25 28t37 11z" />
    <glyph glyph-name="breve.case" horiz-adv-x="874" 
d="M436 1223q-109 0 -176.5 42t-95.5 140q-7 28 10 51t45 23q10 0 14 -2q19 -5 29.5 -19.5t20 -37.5t18.5 -36q42 -63 135 -63q122 0 162 117q13 41 55 41q28 0 45.5 -23t10.5 -51q-28 -98 -96 -140t-177 -42z" />
    <glyph glyph-name="caron.case" horiz-adv-x="933" 
d="M702 1370l-127 -125q-19 -19 -29.5 -27.5t-31.5 -15t-51 -6.5q-40 0 -63 11t-50 38l-127 125q-16 20 -16 41q0 24 17.5 41.5t41.5 17.5q30 0 47 -20l150 -174l149 174q17 20 47 20q25 0 42.5 -18t17.5 -41q0 -20 -17 -41z" />
    <glyph glyph-name="circumflex.case" horiz-adv-x="933" 
d="M702 1296q17 -21 17 -41q0 -23 -17.5 -41t-42.5 -18q-29 0 -47 21l-149 174l-150 -174q-18 -21 -47 -21q-24 0 -41.5 17.5t-17.5 41.5q0 21 16 41l127 125q27 27 50 38t63 11q30 0 51 -6.5t31.5 -15t29.5 -27.5z" />
    <glyph glyph-name="dieresis.case" horiz-adv-x="964" 
d="M283 1262q-101 0 -101 96q0 98 103 98q100 0 100 -98q0 -96 -102 -96zM680 1262q-98 0 -98 96q0 98 100 98q98 0 98 -98q0 -96 -100 -96z" />
    <glyph glyph-name="dotaccent.case" horiz-adv-x="550" 
d="M279 1257q-47 0 -73 25t-26 72q0 46 26 71t75 25q98 0 98 -96q0 -97 -100 -97z" />
    <glyph glyph-name="grave.case" horiz-adv-x="661" 
d="M238 1395q0 27 16 43q41 49 111 4q57 -41 57 -109q0 -40 -23 -74.5t-59 -52.5q-14 -5 -38.5 27.5t-43 72.5t-18.5 58q0 5 -1 15.5t-1 15.5z" />
    <glyph glyph-name="hungarumlaut.case" horiz-adv-x="970" 
d="M375 1464q29 0 49 -21t20 -50q0 -20 -10 -37l-82 -131q-16 -29 -53 -29q-25 0 -43 19t-18 45q0 14 6 26l67 137q8 18 25.5 29.5t38.5 11.5zM664 1464q29 0 49 -21t20 -50q0 -20 -10 -37l-82 -131q-16 -29 -53 -29q-25 0 -43.5 19t-18.5 45q0 14 6 26l68 137
q8 18 25.5 29.5t38.5 11.5z" />
    </font>
</defs>
</svg>
