<?xml version="1.0" standalone="no"?>
<!DOCTYPE svg PUBLIC "-//W3C//DTD SVG 1.1//EN" "http://www.w3.org/Graphics/SVG/1.1/DTD/svg11.dtd" >
<svg>
<metadata>
Created by FontForge 20090622 at Wed Jun 13 17:32:03 2012
 By ffonts
(c) 2008 James Puckett, (c) 2009 Rob Mientjes
</metadata>
<defs>
<font id="OpenBaskerville0.0.53" horiz-adv-x="254" >
  <font-face 
    font-family="Open Baskerville 0.0.53"
    font-weight="400"
    font-stretch="normal"
    units-per-em="1000"
    panose-1="2 0 5 3 0 0 0 0 0 0"
    ascent="800"
    descent="-200"
    x-height="421"
    cap-height="676"
    bbox="-80 -204 1098 916"
    underline-thickness="0"
    underline-position="0"
    unicode-range="U+0020-U+FB05"
  />
<missing-glyph horiz-adv-x="274" 
 />
    <glyph glyph-name=".notdef" horiz-adv-x="274" 
 />
    <glyph glyph-name="space" unicode=" " horiz-adv-x="274" 
 />
    <glyph glyph-name="exclam" unicode="!" horiz-adv-x="234" 
d="M112 121h10l46 490c3 33 -8 65 -51 65s-54 -33 -51 -65zM65 38c0 -29 23 -52 52 -52s52 23 52 52s-23 53 -52 53s-52 -24 -52 -53z" />
    <glyph glyph-name="dollar" unicode="$" horiz-adv-x="510" 
d="M246 373h28v384h-28v-384zM244 -115h28v455h-28v-455zM265 -14c145 0 215 75 216 184c1 212 -348 206 -348 382c0 102 85 124 120 124c82 0 115 -34 115 -70c0 -47 13 -71 40 -71c24 0 35 11 35 43c0 62 -86 113 -193 113c-96 0 -186 -63 -186 -171
c0 -216 322 -184 322 -377c0 -91 -57 -141 -124 -141c-84 0 -140 55 -140 91s-4 66 -35 66c-22 0 -40 -14 -40 -43c0 -73 111 -130 218 -130z" />
    <glyph glyph-name="percent" unicode="%" horiz-adv-x="489" 
d="M155 635c-72 0 -121 -61 -121 -122c0 -58 37 -124 105 -124c66 0 118 58 118 124c0 65 -42 122 -102 122zM155 626c23 0 44 -52 44 -113c0 -56 -17 -113 -60 -113c-28 0 -48 55 -48 113c0 48 28 113 64 113zM188 611c0 7 -14 15 5 8c73 -25 171 -8 171 -8l-293 -606l50 1
l295 625h-51c-45 -16 -123 -16 -202 2c-12 3 10 -7 16 -13zM349 236c-72 0 -121 -61 -121 -122c0 -58 37 -124 105 -124c66 0 118 58 118 124c0 65 -42 122 -102 122zM349 227c23 0 44 -52 44 -113c0 -56 -17 -113 -60 -113c-28 0 -48 55 -48 113c0 48 28 113 64 113z" />
    <glyph glyph-name="ampersand" unicode="&#x26;" horiz-adv-x="627" 
d="M109 202c0 70 39 136 94 169l195 -269c-42 -59 -98 -88 -142 -88c-90 0 -147 88 -147 188zM170 595c0 56 43 82 82 82c61 0 92 -46 92 -95c0 -75 -56 -149 -81 -163c-38 51 -93 114 -93 176zM524 318c21 42 46 75 101 75h8v13h-201v-13h8c41 0 63 -15 63 -55
c0 -17 -9 -49 -20 -72l-43 -85l-168 228c40 25 132 62 132 160c0 95 -88 122 -152 122c-56 0 -136 -40 -136 -138c0 -54 37 -116 80 -172c-71 -29 -166 -105 -166 -214c0 -118 73 -181 184 -181c91 0 137 36 192 106c34 -39 95 -106 191 -106c82 0 105 41 105 82h-7
c0 -24 -33 -55 -63 -55c-69 0 -163 116 -182 156z" />
    <glyph glyph-name="parenleft" unicode="(" horiz-adv-x="325" 
d="M275 694v-33s-194 -91 -194 -419c0 -188 139 -331 194 -368v-31c-49 -2 -275 184 -275 399c0 286 256 452 275 452z" />
    <glyph glyph-name="parenright" unicode=")" horiz-adv-x="325" 
d="M0 694v-33s194 -91 194 -419c0 -188 -139 -331 -194 -368v-31c49 -2 275 184 275 399c0 286 -256 452 -275 452z" />
    <glyph glyph-name="asterisk" unicode="*" horiz-adv-x="265" 
d="M128 618c-29 -28 -89 -47 -89 -82c0 -19 16 -33 29 -33c54 0 49 77 80 103c28 -26 21 -103 73 -103c18 0 25 13 25 31c0 46 -48 55 -83 85c37 13 121 -17 121 32c0 13 -3 30 -28 30c-40 0 -60 -40 -99 -44c3 47 19 54 19 99c0 15 -17 27 -31 27s-30 -10 -30 -27
c0 -44 17 -53 19 -99c-33 4 -54 42 -97 42c-17 0 -31 -6 -31 -28c0 -48 90 -21 122 -33z" />
    <glyph glyph-name="plus" unicode="+" horiz-adv-x="504" 
d="M232 408v-174l-168 -1l1 -33h167v-174h38v174h166v34h-166v174h-38z" />
    <glyph glyph-name="comma" unicode="," horiz-adv-x="244" 
d="M105 -14c16 0 29 5 35 14c0 -68 -55 -120 -94 -142l6 -13c65 22 126 97 126 165c0 55 -33 81 -70 81c-34 0 -57 -26 -57 -56s24 -49 54 -49z" />
    <glyph glyph-name="hyphen" unicode="-" horiz-adv-x="337" 
d="M272 239l-6 -49l-218 3s1 26 0 43z" />
    <glyph glyph-name="period" unicode="." horiz-adv-x="224" 
d="M60 38c0 -29 23 -52 52 -52s52 23 52 52s-23 53 -52 53s-52 -24 -52 -53z" />
    <glyph glyph-name="zero" unicode="0" horiz-adv-x="504" 
d="M252 689c-124 0 -220 -211 -220 -360c0 -225 124 -343 220 -343s220 118 220 343c0 149 -96 360 -220 360zM252 0c-87 0 -144 142 -144 329s57 345 144 345s144 -158 144 -345s-57 -329 -144 -329z" />
    <glyph glyph-name="one" unicode="1" horiz-adv-x="317" 
d="M197 676h-15c-45 -55 -131 -55 -161 -59v-8s22 -3 51 -3s52 4 52 4v-477c0 -88 -30 -120 -110 -120v-13h298v13c-74 0 -116 27 -116 120z" />
    <glyph glyph-name="two" unicode="2" horiz-adv-x="501" 
d="M30 0h390l41 174h-7s-26 -106 -116 -106h-226c16 13 153 116 232 195c78 78 116 180 116 237c0 55 -31 189 -206 189c-148 0 -196 -102 -196 -175c0 -82 63 -131 114 -131c30 0 55 3 72 27c-56 0 -138 25 -138 130s90 134 133 134s140 -19 140 -150
c0 -105 -78 -224 -172 -336c-63 -75 -177 -178 -177 -178v-10z" />
    <glyph glyph-name="three" unicode="3" horiz-adv-x="493" 
d="M201 503c-10 -11 -27 -11 -41 -11c-54 0 -79 45 -79 78c0 55 57 119 164 119c150 0 194 -114 194 -169c0 -80 -52 -138 -137 -158c104 -34 151 -93 151 -173c0 -111 -78 -203 -235 -203c-40 0 -193 12 -193 140c0 55 39 99 94 99c6 0 13 -1 20 -2
c-31 -21 -51 -53 -51 -97c0 -71 40 -124 130 -124c100 0 158 79 158 180s-58 163 -106 163c-38 0 -49 -35 -81 -35c-15 0 -38 9 -38 34c0 22 16 35 42 35c29 0 31 -14 60 -14c13 0 109 13 109 155c0 90 -31 154 -127 154c-80 0 -98 -58 -98 -86c0 -44 24 -74 64 -85z" />
    <glyph glyph-name="four" unicode="4" horiz-adv-x="467" 
d="M176 13v-13h247v13c-81 0 -87 27 -87 120v29h16c55 0 72 -14 72 -73v-12h13v197h-13v-12c0 -60 -25 -80 -80 -80h-8v509h-17l-319 -518v-11h270v-29c0 -88 -13 -120 -94 -120zM23 182l247 402v-402h-247z" />
    <glyph glyph-name="five" unicode="5" horiz-adv-x="438" 
d="M101 308c23 70 57 97 105 97c84 0 107 -99 107 -169c0 -101 -60 -234 -164 -234c-66 0 -94 37 -94 74c0 67 -2 87 -41 87c-31 0 -41 -31 -41 -53c0 -103 136 -124 180 -124c112 0 245 102 245 252c0 113 -92 183 -182 183c-55 0 -88 -26 -98 -38l53 235
c32 -11 82 -13 110 -13c71 0 105 33 105 78c0 5 0 9 -1 11c-12 -20 -63 -21 -78 -21c-19 0 -108 1 -134 15l-89 -373z" />
    <glyph glyph-name="six" unicode="6" horiz-adv-x="486" 
d="M32 287c0 -186 79 -301 210 -301c116 0 214 111 214 234s-99 214 -215 214c-51 0 -95 -23 -123 -61c0 81 59 298 170 298c100 0 51 -87 113 -87c13 0 37 3 37 35c0 44 -46 72 -118 72c-149 0 -288 -172 -288 -404zM113 220c0 105 31 198 132 198c89 0 130 -86 130 -198
c0 -126 -39 -218 -134 -218c-83 0 -128 100 -128 218z" />
    <glyph glyph-name="seven" unicode="7" horiz-adv-x="421" 
d="M116 659c-46 0 -47 35 -47 35h-7l-42 -202h7c2 27 42 97 119 97h226l-271 -498c-13 -25 -30 -46 -30 -74c0 -19 17 -31 38 -31c39 0 50 18 70 69l237 594v10h-300z" />
    <glyph glyph-name="eight" unicode="8" horiz-adv-x="498" 
d="M458 174c0 -146 -127 -188 -211 -188c-66 0 -207 46 -207 171c0 123 106 169 152 185c-73 37 -139 80 -139 174c0 153 133 173 188 173c90 0 183 -41 183 -148c0 -100 -82 -146 -125 -166c82 -39 159 -86 159 -201zM119 159c0 -142 99 -157 138 -157s128 22 128 144
c0 102 -89 149 -179 189c-29 -21 -87 -84 -87 -176zM352 535c0 110 -65 139 -123 139c-97 0 -109 -70 -109 -116c0 -104 72 -139 162 -175c31 20 70 49 70 152z" />
    <glyph glyph-name="nine" unicode="9" horiz-adv-x="498" 
d="M461 388c0 186 -79 303 -210 303c-116 0 -214 -113 -214 -236s99 -214 215 -214c51 0 95 23 123 61c0 -81 -59 -296 -170 -296c-100 0 -51 85 -113 85c-12 0 -37 -3 -37 -35c0 -44 46 -70 118 -70c149 0 288 170 288 402zM380 455c0 -105 -31 -198 -132 -198
c-89 0 -130 86 -130 198c0 126 39 220 134 220c83 0 128 -102 128 -220z" />
    <glyph glyph-name="colon" unicode=":" horiz-adv-x="223" 
d="M59 382c0 -29 23 -52 52 -52s52 23 52 52s-23 53 -52 53s-52 -24 -52 -53zM59 38c0 -29 23 -52 52 -52s52 23 52 52s-23 53 -52 53s-52 -24 -52 -53z" />
    <glyph glyph-name="semicolon" unicode=";" horiz-adv-x="223" 
d="M58 381c0 -29 23 -52 52 -52s52 23 52 52s-23 52 -52 52s-52 -23 -52 -52zM107 -15c16 0 29 5 35 14c0 -70 -52 -112 -91 -132l6 -13c65 22 123 90 123 155c0 55 -33 81 -70 81c-34 0 -57 -26 -57 -56s24 -49 54 -49z" />
    <glyph glyph-name="equal" unicode="=" horiz-adv-x="506" 
d="M80 147h342v33l-343 -1zM80 247h342v33l-343 -1z" />
    <glyph glyph-name="question" unicode="?" horiz-adv-x="473" 
d="M136 301c25 -25 44 -32 93 -32c91 0 179 66 179 193c0 150 -123 232 -209 232c-60 0 -134 -47 -134 -86c0 -13 8 -23 18 -23c23 0 34 12 42 40c9 31 32 49 67 49c70 0 144 -79 144 -213c0 -89 -28 -172 -108 -172c-61 0 -102 35 -102 128h-21v-285h31v169zM67 38
c0 -29 23 -52 52 -52s52 23 52 52s-23 53 -52 53s-52 -24 -52 -53z" />
    <glyph glyph-name="at" unicode="@" horiz-adv-x="792" 
d="M583 13c-41 1 -41 37 -41 88v213c0 94 -76 117 -159 117c-54 0 -140 -25 -140 -75c0 -22 15 -39 37 -39s36 17 39 37c8 52 30 61 62 61c81 0 83 -58 83 -119c0 -41 -37 -74 -82 -80c-111 -14 -161 -39 -161 -121c0 -35 19 -105 126 -105c77 0 89 15 112 50
c12 -15 40 -48 97 -48c139 0 192 165 192 276c0 149 -139 295 -330 295c-230 0 -367 -170 -367 -325c0 -234 173 -364 358 -364c147 0 216 48 216 60c0 3 -2 6 -6 6c-10 0 -40 -52 -210 -52c-202 0 -280 168 -280 352c0 189 132 309 291 309c127 0 259 -105 259 -286
c0 -154 -39 -252 -96 -250zM370 6c-66 0 -71 45 -71 85c0 75 104 107 165 145v-91c0 -77 -12 -139 -94 -139z" />
    <glyph glyph-name="A" unicode="A" horiz-adv-x="720" 
d="M715 0v13h-12c-58 0 -94 54 -115 108l-219 556h-3l-238 -527c-18 -39 -59 -137 -115 -137h-8v-13h221v13h-8c-59 0 -77 43 -77 87c0 27 8 54 16 73l40 90h233l12 -30c27 -69 46 -122 46 -159c0 -40 -23 -61 -81 -61h-12v-13h320zM322 538l100 -255h-216z" />
    <glyph glyph-name="B" unicode="B" horiz-adv-x="667" 
d="M331 352c121 0 196 -25 196 -163c0 -117 -67 -176 -167 -176c-68 0 -107 24 -107 120v219h78zM254 664h58c98 0 166 -39 166 -154c0 -100 -44 -146 -157 -146h-68zM41 676v-13h12c54 0 99 -25 99 -114v-416c0 -82 -49 -120 -106 -120h-11v-13h374c92 0 116 5 157 30
c44 27 84 96 84 152c0 145 -168 181 -216 181c45 11 151 45 151 159c0 115 -108 154 -216 154h-328z" />
    <glyph glyph-name="C" unicode="C" horiz-adv-x="668" 
d="M630 465c-42 167 -122 213 -234 213c-134 0 -237 -153 -237 -340c0 -186 102 -326 253 -326c141 0 226 83 226 181h13c0 -154 -152 -208 -255 -208c-213 0 -353 128 -353 353c0 183 145 353 341 353c118 0 184 -43 212 -43c14 0 25 17 27 27h11l5 -210h-9z" />
    <glyph glyph-name="D" unicode="D" horiz-adv-x="784" 
d="M350 13c-56 0 -97 3 -97 120v524h83c214 0 291 -200 291 -319c0 -157 -104 -325 -277 -325zM395 0c267 0 345 173 345 338c0 146 -80 338 -375 338h-323v-13h12c54 0 98 -25 98 -114v-416c0 -82 -49 -120 -106 -120h-11v-13h360z" />
    <glyph glyph-name="E" unicode="E" horiz-adv-x="660" 
d="M152 133c0 -82 -49 -120 -106 -120h-11v-13h601l7 196h-11c-12 -119 -79 -184 -218 -184c-113 0 -162 39 -162 121v219h55c69 0 113 -46 113 -118v-11h11v265h-11v-11c0 -57 -22 -112 -104 -112h-64v298h119c131 0 192 -56 199 -145h14l-11 158h-532v-13h12
c54 0 98 -25 98 -114z" />
    <glyph glyph-name="F" unicode="F" horiz-adv-x="602" 
d="M253 352h55c69 0 113 -46 113 -118v-11h11v265h-11v-11c0 -57 -22 -112 -104 -112h-64v298h119c131 0 192 -56 199 -145h14l-11 158h-531v-13h12c54 0 97 -25 97 -114v-416c-1 -82 -49 -120 -106 -120h-11v-13h334v13h-11c-57 0 -105 39 -105 120v219z" />
    <glyph glyph-name="G" unicode="G" horiz-adv-x="784" 
d="M43 338c0 -231 131 -353 358 -353c106 0 181 42 220 75l37 -7v114c0 68 49 71 84 71h12v21h-321v-21h12c34 0 106 -3 106 -89c0 -35 -25 -148 -150 -148c-134 0 -237 151 -237 337c0 187 103 338 237 338c107 0 185 -48 226 -211h9l-5 210h-11c-2 -10 -13 -27 -27 -27
c-26 0 -88 43 -192 43c-207 0 -358 -152 -358 -353z" />
    <glyph glyph-name="H" unicode="H" horiz-adv-x="873" 
d="M620 358h-367v191c0 89 43 114 97 114h12v13h-320v-13h12c54 0 98 -25 98 -114v-416c0 -82 -49 -120 -106 -120h-11v-13h334v13h-11c-57 0 -105 38 -105 120v205h367v-205c0 -82 -48 -120 -105 -120h-11v-13h334v13h-11c-57 0 -106 38 -106 120v416c0 89 44 114 98 114
h12v13h-320v-13h12c54 0 97 -25 97 -114v-191z" />
    <glyph glyph-name="I" unicode="I" horiz-adv-x="404" 
d="M42 676v-13h12c54 0 98 -25 98 -114v-416c0 -82 -49 -120 -106 -120h-11v-13h335v13h-11c-57 0 -106 38 -106 120v416c0 89 44 114 98 114h12v13h-321z" />
    <glyph glyph-name="J" unicode="J" horiz-adv-x="464" 
d="M219 -19c0 -61 -10 -138 -87 -138c-50 0 -58 47 -67 74c-10 29 -24 44 -46 44c-18 0 -44 -11 -44 -48c0 -55 86 -81 146 -81c134 0 198 61 198 149v568c0 89 44 114 98 114h12v13h-320v-13h12c54 0 97 -25 97 -114z" />
    <glyph glyph-name="K" unicode="K" horiz-adv-x="747" 
d="M42 676v-13h12c54 0 98 -25 98 -114v-416c0 -82 -49 -120 -106 -120h-11v-13h334v13h-11c-57 0 -106 38 -106 120v172l55 52l187 -245c19 -25 26 -39 26 -54c0 -28 -28 -45 -65 -45h-11v-13h308v13h-11c-33 0 -73 37 -93 63l-268 349l99 93c28 27 151 145 191 145h7v13
h-205v-13h8c26 0 54 -12 54 -40c0 -36 -62 -87 -115 -137l-167 -157v220c0 89 44 114 98 114h12v13h-320z" />
    <glyph glyph-name="L" unicode="L" horiz-adv-x="648" 
d="M152 133c0 -82 -49 -120 -106 -120h-11v-13h601l7 196h-11c-12 -119 -79 -184 -218 -184c-113 0 -162 39 -162 121v416c0 89 44 114 98 114h12v13h-320v-13h12c54 0 97 -25 97 -114z" />
    <glyph glyph-name="M" unicode="M" horiz-adv-x="944" 
d="M469 137l-226 539h-206v-13h12c47 0 71 -5 82 -40c10 -32 11 -84 11 -179c0 -56 -3 -311 -3 -311c0 -82 -41 -120 -98 -120h-11v-13h238v13h-11c-57 0 -98 38 -98 120v501l264 -636h6l263 636v-501c0 -82 -49 -120 -106 -120h-11v-13h334v13h-11c-57 0 -106 38 -106 120
c0 0 -3 255 -3 311c0 107 0 151 11 176c12 28 41 43 77 43h12v13h-198z" />
    <glyph glyph-name="N" unicode="N" horiz-adv-x="785" 
d="M217 676h-184v-13h12c53 0 96 -24 96 -111v-419c0 -82 -43 -120 -100 -120h-11v-13h238v13h-11c-57 0 -98 38 -98 120v465l483 -604h12v450c0 173 24 219 91 219h8v13h-221v-13h8c68 0 87 -46 87 -219v-279z" />
    <glyph glyph-name="O" unicode="O" horiz-adv-x="802" 
d="M43 338c0 -191 161 -353 358 -353c196 0 358 162 358 353s-162 353 -358 353c-197 0 -358 -162 -358 -353zM164 338c0 187 103 338 237 338c135 0 239 -151 239 -338c0 -186 -104 -337 -239 -337c-134 0 -237 151 -237 337z" />
    <glyph glyph-name="P" unicode="P" horiz-adv-x="624" 
d="M581 501c-2 101 -58 175 -183 175h-355v-13h12c54 0 97 -25 97 -114v-416c0 -82 -49 -120 -106 -120h-11v-13h334v13h-11c-57 0 -105 39 -105 120v198c32 -2 66 -4 98 -4c123 0 230 26 230 174zM253 663c126 0 224 -6 224 -160c0 -143 -99 -162 -193 -162
c-10 0 -21 1 -31 1v321z" />
    <glyph glyph-name="Q" unicode="Q" horiz-adv-x="817" 
d="M43 338c0 -195 154 -353 377 -353c47 -63 101 -137 220 -137c188 0 191 170 191 216h-9c0 -53 -39 -131 -156 -131c-73 0 -113 35 -151 71c141 48 244 182 244 334c0 191 -162 353 -358 353c-197 0 -358 -162 -358 -353zM164 338c0 187 103 338 237 338
c135 0 239 -151 239 -338c0 -141 -60 -262 -148 -312c-35 32 -74 61 -142 61c-59 0 -83 -16 -90 -23c-59 61 -96 161 -96 274zM268 57c6 5 19 11 43 11c39 0 67 -31 96 -67c-59 0 -101 20 -139 56z" />
    <glyph glyph-name="R" unicode="R" horiz-adv-x="750" 
d="M253 663c126 0 224 -6 224 -160c0 -143 -99 -162 -193 -162c-10 0 -21 1 -31 1v321zM253 331c139 0 150 -17 233 -168l89 -163h192v13c-74 1 -94 15 -187 166c-67 108 -65 145 -149 158c90 21 150 51 150 164c0 101 -58 175 -183 175h-355v-13h12c54 0 97 -25 97 -114
v-416c0 -82 -49 -120 -106 -120h-11v-13h334v13h-11c-57 0 -105 39 -105 120v198z" />
    <glyph glyph-name="S" unicode="S" horiz-adv-x="510" 
d="M381 143c0 -91 -52 -141 -119 -141c-162 0 -205 170 -206 196h-11l6 -208h12c0 4 1 31 30 31c35 0 80 -35 172 -35c145 0 215 97 215 206c1 235 -343 165 -343 360c0 102 81 122 116 122c109 0 171 -148 171 -185h11l-6 189h-10c0 -13 -6 -33 -34 -33
c-33 0 -72 46 -135 46c-96 0 -186 -77 -186 -185c0 -236 317 -153 317 -363z" />
    <glyph glyph-name="T" unicode="T" horiz-adv-x="702" 
d="M683 676h-664l-14 -176h14c7 89 73 156 204 156h77v-523c0 -82 -49 -120 -106 -120h-24v-13h362v13h-24c-57 0 -106 38 -106 120v523h77c131 0 197 -67 204 -156h14z" />
    <glyph glyph-name="U" unicode="U" horiz-adv-x="794" 
d="M639 226c0 -133 -44 -215 -193 -215c-156 0 -201 87 -201 192v346c0 89 44 114 98 114h12v13h-320v-13h12c54 0 98 -25 98 -114v-370c0 -152 87 -196 276 -196c167 0 244 67 244 220v241c0 173 24 219 91 219h8v13h-221v-13h8c68 0 86 -46 87 -219z" />
    <glyph glyph-name="V" unicode="V" horiz-adv-x="686" 
d="M-5 676v-13h12c83 0 93 -54 114 -108l223 -558h11l217 559c14 36 46 107 115 107h8v13h-221v-13h8c53 0 70 -29 70 -69c0 -36 -22 -100 -40 -146l-122 -312l-122 307c-27 69 -46 122 -46 159c0 40 22 61 81 61h12v13h-320z" />
    <glyph glyph-name="W" unicode="W" horiz-adv-x="1089" 
d="M550 539l-183 -539h-11l-220 523c-23 54 -58 140 -129 140h-12v13h315v-13h-12c-62 0 -82 -20 -82 -53c0 -30 20 -76 39 -124l141 -349l119 349c9 25 16 56 16 79c0 53 -24 98 -93 98h-12v13h314v-13h-12c-69 0 -87 -32 -87 -69c0 -24 7 -49 14 -71l127 -386l143 349
c17 42 29 80 29 110c0 41 -21 67 -74 67h-8v13h226v-13h-8c-77 0 -94 -49 -131 -140l-214 -523h-11z" />
    <glyph glyph-name="X" unicode="X" horiz-adv-x="701" 
d="M168 150c-16 -20 -92 -137 -170 -137h-8v-13h240v13h-8c-52 0 -69 19 -69 45c0 41 43 99 62 123l103 133l84 -121c34 -49 66 -99 66 -134c0 -28 -20 -46 -75 -46h-12v-13h350v13h-12c-70 0 -131 80 -168 133l-171 245l116 144c29 36 93 128 168 128h8v13h-225v-13h8
c46 0 63 -16 63 -38c0 -31 -37 -80 -66 -116l-83 -104l-53 78c-34 49 -66 103 -66 139c0 25 16 41 58 41h12v13h-320v-13h12c78 0 118 -80 155 -133l141 -203z" />
    <glyph glyph-name="Y" unicode="Y" horiz-adv-x="650" 
d="M510 505c33 56 102 158 159 158h8v13h-221v-13h8c47 0 63 -23 63 -53c0 -37 -34 -99 -52 -130l-78 -135c-10 -18 -22 -34 -22 -34l-17 29l-99 169c-19 32 -45 75 -45 106c0 28 19 48 76 48h12v13h-320v-13h12c68 0 106 -67 135 -117l113 -191c28 -47 39 -73 39 -131v-91
c0 -82 -48 -120 -105 -120h-11v-13h334v13h-11c-56 0 -105 38 -105 120v91c0 55 11 84 38 130z" />
    <glyph glyph-name="Z" unicode="Z" horiz-adv-x="704" 
d="M45 7v-7h599l10 211h-11c-22 -108 -107 -191 -220 -191h-248l432 645v11h-530l-17 -177h13c24 85 77 157 204 157h210z" />
    <glyph glyph-name="asciicircum" unicode="^" horiz-adv-x="404" 
d="M293 466h40l-114 163h-46l-114 -163h40l97 92z" />
    <glyph glyph-name="grave" unicode="`" horiz-adv-x="344" 
d="M250 495h37l-157 153c-7 7 -17 13 -28 13c-21 0 -36 -16 -36 -37c0 -17 11 -27 24 -35z" />
    <glyph glyph-name="a" unicode="a" horiz-adv-x="447" 
d="M39 95c0 -35 19 -105 126 -105c77 0 92 15 115 50c12 -15 37 -48 94 -48c65 0 75 27 82 46l-8 4c-9 -16 -17 -29 -47 -29c-39 0 -42 36 -42 88v213c0 94 -71 117 -158 117c-54 0 -140 -25 -140 -75c0 -22 15 -39 37 -39c21 0 34 17 37 37c8 52 32 61 64 61
c87 0 88 -58 88 -119c0 -41 -42 -72 -87 -80c-85 -15 -161 -48 -161 -121zM188 6c-66 0 -71 45 -71 85c0 84 109 107 170 145v-91c0 -77 -17 -139 -99 -139z" />
    <glyph glyph-name="b" unicode="b" horiz-adv-x="519" 
d="M127 14c19 0 77 -28 143 -28c144 0 214 103 214 224s-90 224 -214 224c-64 0 -111 -37 -116 -42v299h-9s-105 -17 -130 -19v-10c71 -2 73 -18 73 -110v-564h13c4 14 8 26 26 26zM152 210c0 135 10 208 105 208c100 0 147 -93 147 -208c0 -104 -42 -208 -147 -208
c-102 0 -105 73 -105 208z" />
    <glyph glyph-name="c" unicode="c" horiz-adv-x="417" 
d="M245 434c-125 0 -210 -103 -210 -224c0 -131 74 -224 219 -224c111 0 149 51 158 114h-11c-13 -49 -36 -87 -124 -87c-121 0 -162 82 -162 197s48 208 130 208c56 0 65 -13 75 -64c4 -20 20 -34 42 -34s36 15 36 37c0 57 -96 77 -153 77z" />
    <glyph glyph-name="d" unicode="d" horiz-adv-x="535" 
d="M377 379c-15 19 -47 55 -128 55c-124 0 -214 -103 -214 -224s70 -224 214 -224c66 0 98 23 123 56l6 -57h8c67 18 127 19 127 19v13c-60 0 -70 16 -70 85v589h-10s-104 -17 -129 -19v-10c71 -2 73 -18 73 -110v-173zM381 210c0 -135 -28 -208 -130 -208
c-105 0 -136 104 -136 208c0 115 36 208 136 208c99 0 130 -73 130 -208z" />
    <glyph glyph-name="e" unicode="e" horiz-adv-x="441" 
d="M416 284c0 110 -110 150 -180 150c-125 0 -206 -103 -206 -224c0 -131 74 -224 219 -224c108 0 159 51 173 114h-11c-21 -50 -52 -87 -139 -87c-121 0 -162 81 -162 196c0 26 1 52 3 75h303zM236 418c72 0 104 -38 104 -118h-225c10 71 41 118 121 118z" />
    <glyph glyph-name="f" unicode="f" horiz-adv-x="284" 
d="M30 401h79v-268c0 -88 -4 -120 -68 -120v-13h200v13c-64 0 -66 27 -66 120v268h113v20h-113v128c0 133 46 137 65 137s30 -1 52 -47c10 -21 14 -37 36 -37c21 0 31 14 31 31c0 49 -87 61 -119 61c-131 0 -131 -97 -131 -145v-128h-79v-20z" />
    <glyph glyph-name="g" unicode="g" horiz-adv-x="431" 
d="M358 410c11 0 19 -2 28 -17c8 -13 20 -24 36 -24c17 0 26 11 26 26c0 25 -25 39 -58 39c-32 0 -57 -11 -88 -37c-28 23 -61 37 -97 37c-79 0 -152 -69 -152 -148c0 -59 41 -107 90 -125c-76 -12 -89 -56 -89 -79c0 -41 41 -75 102 -75h73c123 0 123 -67 123 -84
c0 -9 -9 -109 -146 -109c-121 0 -152 62 -152 95c0 51 25 61 40 61c28 0 39 -15 39 -25c6 3 11 6 11 20c0 16 -19 32 -53 32c-20 0 -66 -14 -66 -81c0 -92 103 -116 181 -116c54 0 210 23 210 146c0 75 -63 124 -151 124h-92c-33 0 -83 2 -83 37c0 32 66 47 85 44
c6 -1 18 -2 30 -2c79 0 153 58 153 137c0 40 -18 75 -46 103c10 11 34 21 46 21zM128 291c0 75 19 127 78 127s82 -52 82 -127s-23 -126 -82 -126s-78 51 -78 126z" />
    <glyph glyph-name="h" unicode="h" horiz-adv-x="551" 
d="M104 133c0 -88 -4 -120 -68 -120v-13h200v13c-64 0 -66 27 -66 120v121c0 50 3 84 17 106c19 29 57 58 103 58c61 0 99 -29 99 -114v-171c0 -88 -4 -120 -68 -120v-13h200v13c-64 0 -66 27 -66 120v171c0 115 -58 130 -133 130c-78 0 -124 -27 -152 -66v323h-9
s-106 -17 -131 -19v-10c66 -2 74 -14 74 -97v-432z" />
    <glyph glyph-name="i" unicode="i" horiz-adv-x="275" 
d="M109 133c0 -88 -2 -120 -66 -120v-13h197v13c-64 0 -65 27 -65 120v304h-10s-103 -17 -128 -19v-10c66 -2 72 -14 72 -97v-178zM94 647c0 -24 18 -42 42 -42s43 18 43 42s-19 43 -43 43s-42 -19 -42 -43z" />
    <glyph glyph-name="j" unicode="j" horiz-adv-x="246" 
d="M91 647c0 -24 18 -42 42 -42s43 18 43 42s-19 43 -43 43s-42 -19 -42 -43zM104 -33c0 -104 -7 -146 -69 -146c-71 0 -36 87 -88 87c-15 0 -27 -9 -27 -31c0 -49 74 -67 106 -67c70 0 144 33 144 192v435h-10s-100 -17 -125 -19v-10c66 -2 69 -22 69 -97v-344z" />
    <glyph glyph-name="k" unicode="k" horiz-adv-x="477" 
d="M95 133c0 -88 -4 -120 -68 -120v-13h200v13c-64 0 -66 27 -66 120v53l34 32l74 -79c48 -52 71 -70 71 -97s-17 -29 -48 -29h-8v-13h258v13h-26c-39 0 -85 45 -107 69l-170 178l79 75c33 31 84 73 122 73h8v13h-195v-13h8c34 0 48 -19 48 -37c0 -16 -13 -37 -39 -61
l-109 -104v485h-9s-105 -17 -130 -19v-10c66 0 73 -16 73 -96v-433z" />
    <glyph glyph-name="l" unicode="l" horiz-adv-x="257" 
d="M94 133c0 -88 -4 -120 -68 -120v-13h200v13c-64 0 -66 27 -66 120v558h-9s-105 -17 -130 -19v-10c66 -2 73 -14 73 -97v-432z" />
    <glyph glyph-name="m" unicode="m" horiz-adv-x="839" 
d="M108 133c0 -88 -4 -120 -68 -120v-13h200v13c-64 0 -66 27 -66 120v121c0 50 2 83 17 106c19 29 57 58 103 58c61 0 99 -29 99 -114v-171c0 -88 -4 -120 -68 -120v-13h199v13c-64 0 -65 27 -65 120v121c0 50 1 79 14 102c17 30 59 62 105 62c61 0 99 -29 99 -114v-171
c0 -88 -4 -120 -68 -120v-13h200v13c-64 0 -66 27 -66 120v171c0 116 -60 130 -138 130c-90 0 -127 -39 -153 -75c-14 66 -67 75 -128 75c-78 0 -122 -28 -150 -66l-5 66l-7 3s-65 -12 -127 -19v-10c70 -3 73 -11 73 -102v-173z" />
    <glyph glyph-name="n" unicode="n" horiz-adv-x="555" 
d="M108 133c0 -88 -4 -120 -68 -120v-13h200v13c-64 0 -66 27 -66 120v124c0 50 2 80 17 103c19 29 57 58 103 58c61 0 99 -29 99 -114v-171c0 -88 -4 -120 -68 -120v-13h200v13c-64 0 -66 27 -66 120v171c0 116 -58 130 -133 130c-83 0 -124 -29 -152 -66l-5 66l-7 3
s-65 -12 -127 -19v-10c70 -3 73 -13 73 -101v-174z" />
    <glyph glyph-name="o" unicode="o" horiz-adv-x="524" 
d="M35 210c0 -121 102 -224 227 -224c124 0 227 103 227 224s-103 224 -227 224c-125 0 -227 -103 -227 -224zM115 210c0 115 65 208 147 208c83 0 147 -93 147 -208s-64 -208 -147 -208c-82 0 -147 93 -147 208z" />
    <glyph glyph-name="p" unicode="p" horiz-adv-x="549" 
d="M159 210c0 125 36 208 116 208c100 0 147 -93 147 -208c0 -104 -42 -208 -147 -208c-97 0 -116 73 -116 208zM163 437h-10s-103 -17 -128 -19v-10c66 -2 72 -14 72 -97v-382c0 -88 -3 -120 -74 -120v-13h209v13c-66 0 -69 36 -69 230c30 -31 58 -53 125 -53
c144 0 214 103 214 224s-90 224 -214 224c-77 0 -107 -37 -123 -57z" />
    <glyph glyph-name="q" unicode="q" horiz-adv-x="520" 
d="M379 396c-28 0 -45 38 -136 38c-124 0 -214 -103 -214 -224s85 -232 223 -232c59 0 97 29 116 50c0 -192 -3 -219 -69 -219v-13h209v13c-71 0 -74 32 -74 120v508h-14c-3 -14 -11 -41 -41 -41zM372 210c0 -135 -13 -216 -116 -216c-105 0 -147 112 -147 216
c0 115 47 208 147 208c99 0 116 -83 116 -208z" />
    <glyph glyph-name="r" unicode="r" horiz-adv-x="354" 
d="M154 434l-7 3s-65 -12 -127 -19v-10c70 -3 73 -13 73 -101v-174c0 -88 -4 -120 -68 -120v-13h200v13c-64 0 -66 27 -66 120v146c0 27 2 57 14 77c17 29 43 45 64 45c53 0 42 -55 80 -55c20 0 32 19 32 36c0 24 -24 47 -67 47c-63 0 -98 -28 -123 -61z" />
    <glyph glyph-name="s" unicode="s" horiz-adv-x="371" 
d="M259 73c0 -48 -35 -71 -74 -71c-103 0 -130 114 -131 130h-7l8 -139h13c0 8 10 16 26 16c30 0 39 -23 96 -23c94 0 137 71 137 122c0 159 -218 124 -218 245c0 62 52 66 66 66c68 0 103 -89 103 -112h7l-8 125h-6c0 -9 -1 -21 -17 -21c-17 0 -44 23 -81 23
c-42 0 -111 -33 -111 -115c0 -152 197 -116 197 -246z" />
    <glyph glyph-name="t" unicode="t" horiz-adv-x="297" 
d="M101 405h-60v14c85 12 106 71 117 130h10v-128h117v-16h-117v-271c0 -93 13 -127 60 -127c48 0 64 28 71 40l8 -5c-8 -11 -18 -56 -110 -56c-65 0 -106 31 -104 102z" />
    <glyph glyph-name="u" unicode="u" horiz-adv-x="552" 
d="M165 421h-137v-13c66 0 71 -27 71 -120v-169c0 -123 75 -133 150 -133c63 0 110 20 135 56l4 -52l7 -3s65 5 127 12v10c-70 3 -72 12 -72 100v312h-131v-13c64 0 65 -27 65 -120v-133c0 -50 0 -86 -17 -108c-23 -30 -63 -45 -109 -45c-51 0 -93 32 -93 117v302z" />
    <glyph glyph-name="v" unicode="v" horiz-adv-x="448" 
d="M-10 421v-8h8c48 0 60 -32 75 -68l142 -348h8l119 276c18 41 52 140 103 140h5v8h-153v-8h5c29 0 51 -21 51 -55c0 -20 -16 -60 -27 -85l-76 -178l-73 180c-9 22 -28 70 -28 93c0 25 26 45 57 45h7v8h-223z" />
    <glyph glyph-name="w" unicode="w" horiz-adv-x="658" 
d="M369 426h-13l-103 -314l-66 163c-9 22 -28 70 -28 93c0 25 26 45 57 45h7v8h-223v-8h8c48 0 61 -32 75 -68l140 -348h7l104 313l104 -313h7l106 276c16 42 53 140 102 140h5v8h-153v-8h5c27 0 51 -21 51 -52c0 -20 -16 -63 -26 -88l-62 -161z" />
    <glyph glyph-name="x" unicode="x" horiz-adv-x="448" 
d="M127 60c0 18 9 39 29 68l45 64l63 -87c9 -13 28 -35 28 -60c0 -27 -18 -32 -42 -32h-8v-13h225v13h-6c-52 0 -75 44 -94 70l-124 166l66 80c29 35 76 79 114 79h8v13h-175v-13h8c34 0 50 -19 50 -37c0 -16 -13 -37 -36 -64l-41 -49l-57 76c-8 10 -24 32 -24 45
c0 16 22 29 43 29h8v13h-204v-13h9c47 0 70 -50 89 -76l94 -132l-80 -108c-27 -36 -69 -79 -111 -79h-8v-13h197v13h-8c-45 0 -58 14 -58 47z" />
    <glyph glyph-name="y" unicode="y" horiz-adv-x="467" 
d="M267 74l-85 201c-9 22 -28 70 -28 93c0 25 26 45 57 45h7v8h-223v-8h8c47 0 60 -32 75 -68l143 -344c0 -44 -11 -66 -26 -97c-10 -21 -38 -48 -65 -48c-15 0 -21 8 -40 8c-14 0 -35 -5 -35 -28c0 -16 16 -36 46 -36c58 0 95 70 112 111l151 362c18 43 59 140 103 140h5v8
h-153v-8h5c29 0 51 -21 51 -55c0 -20 -16 -60 -26 -85z" />
    <glyph glyph-name="z" unicode="z" horiz-adv-x="468" 
d="M123 12l284 399v10h-335l-13 -122h11c21 81 47 110 136 110h109l-285 -399v-10h392l14 142h-11c-21 -102 -49 -130 -225 -130h-77z" />
    <glyph glyph-name="asciitilde" unicode="~" horiz-adv-x="348" 
d="M316 253c0 -42 -38 -85 -84 -85c-58 0 -93 40 -147 40c-35 0 -47 -35 -47 -35h-20c0 53 48 84 82 84c55 0 99 -39 139 -39c45 0 62 19 62 37z" />
    <glyph glyph-name="exclamdown" unicode="&#xa1;" horiz-adv-x="234" 
d="M112 559h10l46 -490c3 -33 -8 -65 -51 -65s-54 33 -51 65zM65 642c0 29 23 52 52 52s52 -23 52 -52s-23 -53 -52 -53s-52 24 -52 53z" />
    <glyph glyph-name="cent" unicode="&#xa2;" horiz-adv-x="417" 
d="M245 434c-125 0 -210 -103 -210 -224c0 -131 74 -224 219 -224c111 0 149 51 158 114h-11c-13 -49 -36 -87 -124 -87c-121 0 -162 82 -162 197s48 208 130 208c56 0 65 -13 75 -64c4 -20 20 -34 42 -34s36 15 36 37c0 57 -96 77 -153 77zM222 -78h28v573h-28v-573z" />
    <glyph glyph-name="sterling" unicode="&#xa3;" horiz-adv-x="791" 
d="M224 231c-1 -1 105 0 116 0c2 14 3 30 4 49h-111s4 20 3 19s92 0 109 0v35c0 185 98 352 246 352c105 0 160 -44 160 -122c0 -79 -64 -132 -131 -132c-45 0 -69 16 -69 25s4 8 10 8c12 0 12 -9 54 -9c49 0 76 62 76 110c0 52 -38 105 -100 105c-93 0 -157 -113 -157 -297
c0 -28 -2 -53 -5 -76c19 0 115 1 115 1l-1 -19h-117c-3 -18 -7 -34 -11 -50c24 0 117 1 117 1l-1 -19h-123c-15 -43 -37 -79 -63 -114c78 -23 159 -48 207 -48c71 0 125 29 142 87h15c0 -68 -65 -143 -155 -143c-64 0 -154 38 -232 76c-44 -48 -101 -77 -165 -77
c-65 0 -129 23 -129 70c0 42 55 71 151 71c30 0 73 -10 120 -23c19 35 31 63 38 101h-116s4 20 3 19zM181 120c-56 0 -94 -33 -94 -57s28 -54 70 -54c49 0 92 31 126 79c-38 17 -73 32 -102 32z" />
    <glyph glyph-name="dieresis" unicode="&#xa8;" horiz-adv-x="345" 
d="M46 618c0 -24 18 -42 42 -42s43 18 43 42s-19 43 -43 43s-42 -19 -42 -43zM214 618c0 -24 18 -42 42 -42s43 18 43 42s-19 43 -43 43s-42 -19 -42 -43z" />
    <glyph glyph-name="copyright" unicode="&#xa9;" horiz-adv-x="585" 
d="M288 379c-90 0 -151 -75 -151 -162c0 -95 53 -163 158 -163c81 0 108 37 114 82h-17c-10 -35 -32 -54 -84 -54c-75 0 -104 52 -104 135c0 82 33 138 84 138c42 0 48 -4 55 -34c4 -16 13 -24 31 -24c16 0 25 10 25 25c0 42 -69 57 -111 57zM42 213
c0 -136 109 -245 245 -245s247 109 247 245c0 137 -111 247 -247 247s-245 -110 -245 -247zM72 216c0 121 95 219 216 219s217 -98 217 -219s-96 -219 -217 -219s-216 98 -216 219z" />
    <glyph glyph-name="ordfeminine" unicode="&#xaa;" horiz-adv-x="232" 
d="M9 475c0 -23 16 -70 84 -70c30 0 58 13 72 33c6 -9 18 -30 53 -30c36 0 52 24 52 41l-9 2c-2 -8 -9 -19 -22 -19c-22 0 -24 25 -24 47v137c0 55 -48 71 -102 71c-35 0 -91 -14 -91 -45c0 -15 10 -26 26 -26c12 0 25 11 27 25c6 18 18 29 36 29c43 0 54 -28 54 -66
c0 -27 -18 -40 -52 -45c-61 -7 -104 -36 -104 -84zM105 423c-32 0 -41 18 -41 49c0 57 40 58 101 89v-56c0 -47 -14 -82 -60 -82z" />
    <glyph glyph-name="registered" unicode="&#xae;" horiz-adv-x="833" 
 />
    <glyph glyph-name="acute" unicode="&#xb4;" horiz-adv-x="345" 
d="M255 589c13 8 24 18 24 35c0 21 -15 37 -36 37c-11 0 -21 -6 -28 -13l-157 -153h37z" />
    <glyph glyph-name="periodcentered" unicode="&#xb7;" horiz-adv-x="228" 
d="M63 218c0 -29 23 -52 52 -52s52 23 52 52s-23 53 -52 53s-52 -24 -52 -53z" />
    <glyph glyph-name="questiondown" unicode="&#xbf;" horiz-adv-x="461" 
d="M326 281c-25 25 -44 32 -93 32c-91 0 -179 -66 -179 -193c0 -150 123 -232 209 -232c60 0 134 47 134 86c0 13 -8 23 -18 23c-23 0 -35 -12 -43 -40c-9 -32 -31 -51 -67 -51c-70 0 -143 81 -143 215c0 89 28 172 108 172c61 0 102 -35 102 -128h21v285h-31v-169zM291 549
c0 -29 23 -52 52 -52s52 23 52 52s-23 53 -52 53s-52 -24 -52 -53z" />
    <glyph glyph-name="Agrave" unicode="&#xc0;" horiz-adv-x="720" 
d="M428 724h37l-157 153c-7 7 -17 13 -28 13c-21 0 -36 -16 -36 -37c0 -17 11 -27 24 -35zM715 0v13h-12c-58 0 -94 54 -115 108l-219 556h-3l-238 -527c-18 -39 -59 -137 -115 -137h-8v-13h221v13h-8c-59 0 -77 43 -77 87c0 27 8 54 16 73l40 90h233l12 -30
c27 -69 46 -122 46 -159c0 -40 -23 -61 -81 -61h-12v-13h320zM322 538l100 -255h-216z" />
    <glyph glyph-name="Aacute" unicode="&#xc1;" horiz-adv-x="720" 
d="M500 818c13 8 24 18 24 35c0 21 -15 37 -36 37c-11 0 -21 -6 -28 -13l-157 -153h37zM715 0v13h-12c-58 0 -94 54 -115 108l-219 556h-3l-238 -527c-18 -39 -59 -137 -115 -137h-8v-13h221v13h-8c-59 0 -77 43 -77 87c0 27 8 54 16 73l40 90h233l12 -30
c27 -69 46 -122 46 -159c0 -40 -23 -61 -81 -61h-12v-13h320zM322 538l100 -255h-216z" />
    <glyph glyph-name="Acircumflex" unicode="&#xc2;" horiz-adv-x="720" 
d="M480 724h40l-114 163h-46l-114 -163h40l97 92zM715 0v13h-12c-58 0 -94 54 -115 108l-219 556h-3l-238 -527c-18 -39 -59 -137 -115 -137h-8v-13h221v13h-8c-59 0 -77 43 -77 87c0 27 8 54 16 73l40 90h233l12 -30c27 -69 46 -122 46 -159c0 -40 -23 -61 -81 -61h-12v-13
h320zM322 538l100 -255h-216z" />
    <glyph glyph-name="Atilde" unicode="&#xc3;" horiz-adv-x="720" 
d="M509 890c0 -42 -38 -85 -84 -85c-58 0 -93 40 -147 40c-35 0 -47 -35 -47 -35h-20c0 53 48 84 82 84c55 0 99 -39 139 -39c45 0 62 19 62 37zM715 0v13h-12c-58 0 -94 54 -115 108l-219 556h-3l-238 -527c-18 -39 -59 -137 -115 -137h-8v-13h221v13h-8
c-59 0 -77 43 -77 87c0 27 8 54 16 73l40 90h233l12 -30c27 -69 46 -122 46 -159c0 -40 -23 -61 -81 -61h-12v-13h320zM322 538l100 -255h-216z" />
    <glyph glyph-name="Adieresis" unicode="&#xc4;" horiz-adv-x="720" 
d="M257 847c0 -24 18 -42 42 -42s43 18 43 42s-19 43 -43 43s-42 -19 -42 -43zM425 847c0 -24 18 -42 42 -42s43 18 43 42s-19 43 -43 43s-42 -19 -42 -43zM715 0v13h-12c-58 0 -94 54 -115 108l-219 556h-3l-238 -527c-18 -39 -59 -137 -115 -137h-8v-13h221v13h-8
c-59 0 -77 43 -77 87c0 27 8 54 16 73l40 90h233l12 -30c27 -69 46 -122 46 -159c0 -40 -23 -61 -81 -61h-12v-13h320zM322 538l100 -255h-216z" />
    <glyph glyph-name="Aring" unicode="&#xc5;" horiz-adv-x="720" 
d="M288 776c0 -41 33 -74 73 -74c41 0 74 33 74 74c0 40 -33 73 -74 73c-40 0 -73 -33 -73 -73zM315 776c0 26 21 46 47 46s46 -19 46 -46c0 -25 -20 -47 -46 -47c-27 0 -47 22 -47 47zM715 0v13h-12c-58 0 -94 54 -115 108l-219 556h-3l-238 -527
c-18 -39 -59 -137 -115 -137h-8v-13h221v13h-8c-59 0 -77 43 -77 87c0 27 8 54 16 73l40 90h233l12 -30c27 -69 46 -122 46 -159c0 -40 -23 -61 -81 -61h-12v-13h320zM322 538l100 -255h-216z" />
    <glyph glyph-name="AE" unicode="&#xc6;" horiz-adv-x="952" 
d="M440 133c0 -82 -49 -120 -106 -120h-11v-13h589l7 196h-11c-12 -119 -76 -184 -210 -184c-109 0 -158 39 -158 121v192h55c69 0 113 -46 113 -116v-11h11s-2 66 -2 133c0 77 2 132 2 132h-11v-11c0 -55 -22 -110 -104 -110h-64v321h113c131 0 192 -56 199 -145h14
l-11 158h-497v-13h12c23 0 36 -4 51 -15l-269 -498c-36 -67 -80 -137 -136 -137h-11v-13h221v13h-8c-42 0 -70 19 -70 65c0 22 36 87 40 95l81 150h170zM439 343h-159l159 296v-90v-206z" />
    <glyph glyph-name="Egrave" unicode="&#xc8;" horiz-adv-x="660" 
d="M423 724h37l-157 153c-7 7 -17 13 -28 13c-21 0 -36 -16 -36 -37c0 -17 11 -27 24 -35zM152 133c0 -82 -49 -120 -106 -120h-11v-13h601l7 196h-11c-12 -119 -79 -184 -218 -184c-113 0 -162 39 -162 121v219h55c69 0 113 -46 113 -118v-11h11v265h-11v-11
c0 -57 -22 -112 -104 -112h-64v298h119c131 0 192 -56 199 -145h14l-11 158h-532v-13h12c54 0 98 -25 98 -114z" />
    <glyph glyph-name="Eacute" unicode="&#xc9;" horiz-adv-x="660" 
d="M495 818c13 8 24 18 24 35c0 21 -15 37 -36 37c-11 0 -21 -6 -28 -13l-157 -153h37zM152 133c0 -82 -49 -120 -106 -120h-11v-13h601l7 196h-11c-12 -119 -79 -184 -218 -184c-113 0 -162 39 -162 121v219h55c69 0 113 -46 113 -118v-11h11v265h-11v-11
c0 -57 -22 -112 -104 -112h-64v298h119c131 0 192 -56 199 -145h14l-11 158h-532v-13h12c54 0 98 -25 98 -114z" />
    <glyph glyph-name="Ecircumflex" unicode="&#xca;" horiz-adv-x="660" 
d="M475 724h40l-114 163h-46l-114 -163h40l97 92zM152 133c0 -82 -49 -120 -106 -120h-11v-13h601l7 196h-11c-12 -119 -79 -184 -218 -184c-113 0 -162 39 -162 121v219h55c69 0 113 -46 113 -118v-11h11v265h-11v-11c0 -57 -22 -112 -104 -112h-64v298h119
c131 0 192 -56 199 -145h14l-11 158h-532v-13h12c54 0 98 -25 98 -114z" />
    <glyph glyph-name="Edieresis" unicode="&#xcb;" horiz-adv-x="660" 
d="M252 847c0 -24 18 -42 42 -42s43 18 43 42s-19 43 -43 43s-42 -19 -42 -43zM420 847c0 -24 18 -42 42 -42s43 18 43 42s-19 43 -43 43s-42 -19 -42 -43zM152 133c0 -82 -49 -120 -106 -120h-11v-13h601l7 196h-11c-12 -119 -79 -184 -218 -184c-113 0 -162 39 -162 121
v219h55c69 0 113 -46 113 -118v-11h11v265h-11v-11c0 -57 -22 -112 -104 -112h-64v298h119c131 0 192 -56 199 -145h14l-11 158h-532v-13h12c54 0 98 -25 98 -114z" />
    <glyph glyph-name="Igrave" unicode="&#xcc;" horiz-adv-x="404" 
d="M247 724h37l-157 153c-7 7 -17 13 -28 13c-21 0 -36 -16 -36 -37c0 -17 11 -27 24 -35zM42 676v-13h12c54 0 98 -25 98 -114v-416c0 -82 -49 -120 -106 -120h-11v-13h335v13h-11c-57 0 -106 38 -106 120v416c0 89 44 114 98 114h12v13h-321z" />
    <glyph glyph-name="Iacute" unicode="&#xcd;" horiz-adv-x="404" 
d="M319 818c13 8 24 18 24 35c0 21 -15 37 -36 37c-11 0 -21 -6 -28 -13l-157 -153h37zM42 676v-13h12c54 0 98 -25 98 -114v-416c0 -82 -49 -120 -106 -120h-11v-13h335v13h-11c-57 0 -106 38 -106 120v416c0 89 44 114 98 114h12v13h-321z" />
    <glyph glyph-name="Icircumflex" unicode="&#xce;" horiz-adv-x="404" 
d="M299 724h40l-114 163h-46l-114 -163h40l97 92zM42 676v-13h12c54 0 98 -25 98 -114v-416c0 -82 -49 -120 -106 -120h-11v-13h335v13h-11c-57 0 -106 38 -106 120v416c0 89 44 114 98 114h12v13h-321z" />
    <glyph glyph-name="Idieresis" unicode="&#xcf;" horiz-adv-x="404" 
d="M76 847c0 -24 18 -42 42 -42s43 18 43 42s-19 43 -43 43s-42 -19 -42 -43zM244 847c0 -24 18 -42 42 -42s43 18 43 42s-19 43 -43 43s-42 -19 -42 -43zM42 676v-13h12c54 0 98 -25 98 -114v-416c0 -82 -49 -120 -106 -120h-11v-13h335v13h-11c-57 0 -106 38 -106 120v416
c0 89 44 114 98 114h12v13h-321z" />
    <glyph glyph-name="Eth" unicode="&#xd0;" horiz-adv-x="784" 
d="M48 355v-25h104v-197c0 -82 -49 -120 -106 -120h-11v-13h360c267 0 345 173 345 338c0 146 -80 338 -375 338h-323v-13h12c54 0 98 -25 98 -114v-194h-104zM350 13c-56 0 -97 3 -97 120v196l186 1v27l-186 -1v301h83c214 0 291 -200 291 -319c0 -157 -104 -325 -277 -325
z" />
    <glyph glyph-name="Ntilde" unicode="&#xd1;" horiz-adv-x="785" 
d="M541 887c0 -42 -38 -85 -84 -85c-58 0 -93 40 -147 40c-35 0 -47 -35 -47 -35h-20c0 53 48 84 82 84c55 0 99 -39 139 -39c45 0 62 19 62 37zM217 676h-184v-13h12c53 0 96 -24 96 -111v-419c0 -82 -43 -120 -100 -120h-11v-13h238v13h-11c-57 0 -98 38 -98 120v465
l483 -604h12v450c0 173 24 219 91 219h8v13h-221v-13h8c68 0 87 -46 87 -219v-279z" />
    <glyph glyph-name="Ograve" unicode="&#xd2;" horiz-adv-x="804" 
d="M455 723h37l-157 153c-7 7 -17 13 -28 13c-21 0 -36 -16 -36 -37c0 -17 11 -27 24 -35zM44 338c0 -191 161 -353 358 -353c196 0 358 162 358 353s-162 353 -358 353c-197 0 -358 -162 -358 -353zM165 338c0 187 103 338 237 338c135 0 239 -151 239 -338
c0 -186 -104 -337 -239 -337c-134 0 -237 151 -237 337z" />
    <glyph glyph-name="Oacute" unicode="&#xd3;" horiz-adv-x="804" 
d="M508 844c13 8 24 18 24 35c0 21 -15 37 -36 37c-11 0 -21 -6 -28 -13l-157 -153h37zM44 338c0 -191 161 -353 358 -353c196 0 358 162 358 353s-162 353 -358 353c-197 0 -358 -162 -358 -353zM165 338c0 187 103 338 237 338c135 0 239 -151 239 -338
c0 -186 -104 -337 -239 -337c-134 0 -237 151 -237 337z" />
    <glyph glyph-name="Ocircumflex" unicode="&#xd4;" horiz-adv-x="804" 
d="M499 724h40l-114 163h-46l-114 -163h40l97 92zM44 338c0 -191 161 -353 358 -353c196 0 358 162 358 353s-162 353 -358 353c-197 0 -358 -162 -358 -353zM165 338c0 187 103 338 237 338c135 0 239 -151 239 -338c0 -186 -104 -337 -239 -337c-134 0 -237 151 -237 337z
" />
    <glyph glyph-name="Otilde" unicode="&#xd5;" horiz-adv-x="802" 
d="M550 895c0 -42 -38 -85 -84 -85c-58 0 -93 40 -147 40c-35 0 -47 -35 -47 -35h-20c0 53 48 84 82 84c55 0 99 -39 139 -39c45 0 62 19 62 37zM43 338c0 -191 161 -353 358 -353c196 0 358 162 358 353s-162 353 -358 353c-197 0 -358 -162 -358 -353zM164 338
c0 187 103 338 237 338c135 0 239 -151 239 -338c0 -186 -104 -337 -239 -337c-134 0 -237 151 -237 337z" />
    <glyph glyph-name="Odieresis" unicode="&#xd6;" horiz-adv-x="804" 
d="M276 847c0 -24 18 -42 42 -42s43 18 43 42s-19 43 -43 43s-42 -19 -42 -43zM444 847c0 -24 18 -42 42 -42s43 18 43 42s-19 43 -43 43s-42 -19 -42 -43zM44 338c0 -191 161 -353 358 -353c196 0 358 162 358 353s-162 353 -358 353c-197 0 -358 -162 -358 -353zM165 338
c0 187 103 338 237 338c135 0 239 -151 239 -338c0 -186 -104 -337 -239 -337c-134 0 -237 151 -237 337z" />
    <glyph glyph-name="multiply" unicode="&#xd7;" horiz-adv-x="476" 
d="M374 380l-138 -137l-138 137l-23 -24l137 -137l-137 -137l24 -24l137 137l137 -137l24 24l-137 137l137 137z" />
    <glyph glyph-name="Oslash" unicode="&#xd8;" horiz-adv-x="802" 
d="M138 -25l26 -21l500 742l-28 21zM43 338c0 -191 161 -353 358 -353c196 0 358 162 358 353s-162 353 -358 353c-197 0 -358 -162 -358 -353zM164 338c0 187 103 338 237 338c135 0 239 -151 239 -338c0 -186 -104 -337 -239 -337c-134 0 -237 151 -237 337z" />
    <glyph glyph-name="Ugrave" unicode="&#xd9;" horiz-adv-x="791" 
d="M480 724h37l-157 153c-7 7 -17 13 -28 13c-21 0 -36 -16 -36 -37c0 -17 11 -27 24 -35zM639 226c0 -133 -44 -215 -193 -215c-156 0 -201 87 -201 192v346c0 89 44 114 98 114h12v13h-320v-13h12c54 0 98 -25 98 -114v-370c0 -152 87 -196 276 -196c167 0 244 67 244 220
v241c0 173 24 219 91 219h8v13h-221v-13h8c68 0 86 -46 87 -219z" />
    <glyph glyph-name="Uacute" unicode="&#xda;" horiz-adv-x="791" 
d="M552 818c13 8 24 18 24 35c0 21 -15 37 -36 37c-11 0 -21 -6 -28 -13l-157 -153h37zM639 226c0 -133 -44 -215 -193 -215c-156 0 -201 87 -201 192v346c0 89 44 114 98 114h12v13h-320v-13h12c54 0 98 -25 98 -114v-370c0 -152 87 -196 276 -196c167 0 244 67 244 220
v241c0 173 24 219 91 219h8v13h-221v-13h8c68 0 86 -46 87 -219z" />
    <glyph glyph-name="Ucircumflex" unicode="&#xdb;" horiz-adv-x="791" 
d="M532 724h40l-114 163h-46l-114 -163h40l97 92zM639 226c0 -133 -44 -215 -193 -215c-156 0 -201 87 -201 192v346c0 89 44 114 98 114h12v13h-320v-13h12c54 0 98 -25 98 -114v-370c0 -152 87 -196 276 -196c167 0 244 67 244 220v241c0 173 24 219 91 219h8v13h-221v-13
h8c68 0 86 -46 87 -219z" />
    <glyph glyph-name="Udieresis" unicode="&#xdc;" horiz-adv-x="791" 
d="M309 847c0 -24 18 -42 42 -42s43 18 43 42s-19 43 -43 43s-42 -19 -42 -43zM477 847c0 -24 18 -42 42 -42s43 18 43 42s-19 43 -43 43s-42 -19 -42 -43zM639 226c0 -133 -44 -215 -193 -215c-156 0 -201 87 -201 192v346c0 89 44 114 98 114h12v13h-320v-13h12
c54 0 98 -25 98 -114v-370c0 -152 87 -196 276 -196c167 0 244 67 244 220v241c0 173 24 219 91 219h8v13h-221v-13h8c68 0 86 -46 87 -219z" />
    <glyph glyph-name="Yacute" unicode="&#xdd;" horiz-adv-x="685" 
d="M429 844c13 8 24 18 24 35c0 21 -15 37 -36 37c-11 0 -21 -6 -28 -13l-157 -153h37zM523 505c33 56 102 158 159 158h8v13h-221v-13h8c47 0 63 -23 63 -53c0 -37 -34 -99 -52 -130l-78 -135c-10 -18 -22 -34 -22 -34l-17 29l-99 169c-19 32 -45 75 -45 106
c0 28 19 48 76 48h12v13h-320v-13h12c68 0 106 -67 135 -117l113 -191c28 -47 39 -73 39 -131v-91c0 -82 -48 -120 -105 -120h-11v-13h334v13h-11c-56 0 -105 38 -105 120v91c0 55 11 84 38 130z" />
    <glyph glyph-name="Thorn" unicode="&#xde;" horiz-adv-x="627" 
d="M253 512c121 0 209 -6 209 -160c0 -143 -89 -162 -178 -162c-10 0 -21 1 -31 1v321zM254 525c-1 118 43 138 97 138h12v13h-320v-13h12c54 0 97 -25 97 -114v-416c0 -82 -49 -120 -106 -120h-11v-13h334v13h-11c-57 0 -105 39 -105 120v47c32 -2 51 -4 83 -4
c123 0 230 26 230 174c-2 101 -58 175 -183 175h-129z" />
    <glyph glyph-name="germandbls" unicode="&#xdf;" horiz-adv-x="500" 
d="M99 401v-268c0 -88 -4 -120 -68 -120v-13h190v13c-54 0 -56 27 -56 120v416c0 122 66 128 85 128c71 0 95 -40 95 -115c0 -105 -38 -147 -120 -147c-16 0 -27 -1 -27 -7c0 -7 8 -11 24 -11c80 0 168 -25 168 -182c0 -116 -32 -209 -79 -209c-34 0 -30 34 -52 34
c-13 0 -24 -5 -24 -17c0 -31 55 -29 80 -29c65 0 150 70 150 221c0 123 -93 192 -177 194c62 6 124 67 124 153c0 71 -58 129 -162 129c-102 0 -151 -77 -151 -142v-128h-59v-20h59z" />
    <glyph glyph-name="agrave" unicode="&#xe0;" horiz-adv-x="441" 
d="M251 495h37l-157 153c-7 7 -17 13 -28 13c-21 0 -36 -16 -36 -37c0 -17 11 -27 24 -35zM32 95c0 -35 19 -105 126 -105c77 0 92 15 115 50c12 -15 37 -48 94 -48c65 0 75 27 82 46l-8 4c-9 -16 -17 -29 -47 -29c-39 0 -42 36 -42 88v213c0 94 -71 117 -158 117
c-54 0 -140 -25 -140 -75c0 -22 15 -39 37 -39c21 0 34 17 37 37c8 52 32 61 64 61c87 0 88 -58 88 -119c0 -41 -42 -72 -87 -80c-85 -15 -161 -48 -161 -121zM181 6c-66 0 -71 45 -71 85c0 84 109 107 170 145v-91c0 -77 -17 -139 -99 -139z" />
    <glyph glyph-name="aacute" unicode="&#xe1;" horiz-adv-x="441" 
d="M323 589c13 8 24 18 24 35c0 21 -15 37 -36 37c-11 0 -21 -6 -28 -13l-157 -153h37zM32 95c0 -35 19 -105 126 -105c77 0 92 15 115 50c12 -15 37 -48 94 -48c65 0 75 27 82 46l-8 4c-9 -16 -17 -29 -47 -29c-39 0 -42 36 -42 88v213c0 94 -71 117 -158 117
c-54 0 -140 -25 -140 -75c0 -22 15 -39 37 -39c21 0 34 17 37 37c8 52 32 61 64 61c87 0 88 -58 88 -119c0 -41 -42 -72 -87 -80c-85 -15 -161 -48 -161 -121zM181 6c-66 0 -71 45 -71 85c0 84 109 107 170 145v-91c0 -77 -17 -139 -99 -139z" />
    <glyph glyph-name="acircumflex" unicode="&#xe2;" horiz-adv-x="441" 
d="M303 495h40l-114 163h-46l-114 -163h40l97 92zM32 95c0 -35 19 -105 126 -105c77 0 92 15 115 50c12 -15 37 -48 94 -48c65 0 75 27 82 46l-8 4c-9 -16 -17 -29 -47 -29c-39 0 -42 36 -42 88v213c0 94 -71 117 -158 117c-54 0 -140 -25 -140 -75c0 -22 15 -39 37 -39
c21 0 34 17 37 37c8 52 32 61 64 61c87 0 88 -58 88 -119c0 -41 -42 -72 -87 -80c-85 -15 -161 -48 -161 -121zM181 6c-66 0 -71 45 -71 85c0 84 109 107 170 145v-91c0 -77 -17 -139 -99 -139z" />
    <glyph glyph-name="atilde" unicode="&#xe3;" horiz-adv-x="447" 
d="M372 642c0 -42 -38 -85 -84 -85c-58 0 -93 40 -147 40c-35 0 -47 -35 -47 -35h-20c0 53 48 84 82 84c55 0 99 -39 139 -39c45 0 62 19 62 37zM39 95c0 -35 19 -105 126 -105c77 0 92 15 115 50c12 -15 37 -48 94 -48c65 0 75 27 82 46l-8 4c-9 -16 -17 -29 -47 -29
c-39 0 -42 36 -42 88v213c0 94 -71 117 -158 117c-54 0 -140 -25 -140 -75c0 -22 15 -39 37 -39c21 0 34 17 37 37c8 52 32 61 64 61c87 0 88 -58 88 -119c0 -41 -42 -72 -87 -80c-85 -15 -161 -48 -161 -121zM188 6c-66 0 -71 45 -71 85c0 84 109 107 170 145v-91
c0 -77 -17 -139 -99 -139z" />
    <glyph glyph-name="adieresis" unicode="&#xe4;" horiz-adv-x="441" 
d="M80 618c0 -24 18 -42 42 -42s43 18 43 42s-19 43 -43 43s-42 -19 -42 -43zM248 618c0 -24 18 -42 42 -42s43 18 43 42s-19 43 -43 43s-42 -19 -42 -43zM32 95c0 -35 19 -105 126 -105c77 0 92 15 115 50c12 -15 37 -48 94 -48c65 0 75 27 82 46l-8 4
c-9 -16 -17 -29 -47 -29c-39 0 -42 36 -42 88v213c0 94 -71 117 -158 117c-54 0 -140 -25 -140 -75c0 -22 15 -39 37 -39c21 0 34 17 37 37c8 52 32 61 64 61c87 0 88 -58 88 -119c0 -41 -42 -72 -87 -80c-85 -15 -161 -48 -161 -121zM181 6c-66 0 -71 45 -71 85
c0 84 109 107 170 145v-91c0 -77 -17 -139 -99 -139z" />
    <glyph glyph-name="aring" unicode="&#xe5;" horiz-adv-x="447" 
d="M140 583c0 -41 33 -74 73 -74c41 0 74 33 74 74c0 40 -33 73 -74 73c-40 0 -73 -33 -73 -73zM167 583c0 26 21 46 47 46s46 -19 46 -46c0 -25 -20 -47 -46 -47c-27 0 -47 22 -47 47zM39 95c0 -35 19 -105 126 -105c77 0 92 15 115 50c12 -15 37 -48 94 -48
c65 0 75 27 82 46l-8 4c-9 -16 -17 -29 -47 -29c-39 0 -42 36 -42 88v213c0 94 -71 117 -158 117c-54 0 -140 -25 -140 -75c0 -22 15 -39 37 -39c21 0 34 17 37 37c8 52 32 61 64 61c87 0 88 -58 88 -119c0 -41 -42 -72 -87 -80c-85 -15 -161 -48 -161 -121zM188 6
c-66 0 -71 45 -71 85c0 84 109 107 170 145v-91c0 -77 -17 -139 -99 -139z" />
    <glyph glyph-name="ae" unicode="&#xe6;" horiz-adv-x="664" 
d="M636 269c0 124 -102 165 -178 165c-61 0 -98 -15 -127 -47c-29 34 -85 44 -140 44c-54 0 -140 -25 -140 -75c0 -22 15 -39 37 -39s36 17 39 37c8 52 30 61 62 61c81 0 83 -49 83 -114c0 -41 -37 -74 -82 -80c-111 -14 -161 -48 -161 -117c0 -42 19 -114 126 -114
c67 0 111 22 136 81c30 -37 92 -85 177 -85c99 0 158 51 172 114h-11c-21 -50 -67 -87 -138 -87c-121 0 -152 81 -152 196c0 26 0 37 2 60h295zM178 6c-66 0 -71 45 -71 85c0 91 93 91 165 156v-102c0 -77 -12 -139 -94 -139zM458 418c79 0 102 -52 102 -133h-217
c10 71 35 133 115 133z" />
    <glyph glyph-name="egrave" unicode="&#xe8;" horiz-adv-x="447" 
d="M279 495h37l-157 153c-7 7 -17 13 -28 13c-21 0 -36 -16 -36 -37c0 -17 11 -27 24 -35zM416 284c0 110 -110 150 -180 150c-125 0 -206 -103 -206 -224c0 -131 74 -224 219 -224c108 0 159 51 173 114h-11c-21 -50 -52 -87 -139 -87c-121 0 -162 81 -162 196
c0 26 1 52 3 75h303zM236 418c72 0 104 -38 104 -118h-225c10 71 41 118 121 118z" />
    <glyph glyph-name="eacute" unicode="&#xe9;" horiz-adv-x="447" 
d="M351 589c13 8 24 18 24 35c0 21 -15 37 -36 37c-11 0 -21 -6 -28 -13l-157 -153h37zM416 284c0 110 -110 150 -180 150c-125 0 -206 -103 -206 -224c0 -131 74 -224 219 -224c108 0 159 51 173 114h-11c-21 -50 -52 -87 -139 -87c-121 0 -162 81 -162 196c0 26 1 52 3 75
h303zM236 418c72 0 104 -38 104 -118h-225c10 71 41 118 121 118z" />
    <glyph glyph-name="ecircumflex" unicode="&#xea;" horiz-adv-x="447" 
d="M331 495h40l-114 163h-46l-114 -163h40l97 92zM416 284c0 110 -110 150 -180 150c-125 0 -206 -103 -206 -224c0 -131 74 -224 219 -224c108 0 159 51 173 114h-11c-21 -50 -52 -87 -139 -87c-121 0 -162 81 -162 196c0 26 1 52 3 75h303zM236 418c72 0 104 -38 104 -118
h-225c10 71 41 118 121 118z" />
    <glyph glyph-name="edieresis" unicode="&#xeb;" horiz-adv-x="447" 
d="M108 618c0 -24 18 -42 42 -42s43 18 43 42s-19 43 -43 43s-42 -19 -42 -43zM276 618c0 -24 18 -42 42 -42s43 18 43 42s-19 43 -43 43s-42 -19 -42 -43zM416 284c0 110 -110 150 -180 150c-125 0 -206 -103 -206 -224c0 -131 74 -224 219 -224c108 0 159 51 173 114h-11
c-21 -50 -52 -87 -139 -87c-121 0 -162 81 -162 196c0 26 1 52 3 75h303zM236 418c72 0 104 -38 104 -118h-225c10 71 41 118 121 118z" />
    <glyph glyph-name="igrave" unicode="&#xec;" 
d="M166 495h37l-157 153c-7 7 -17 13 -28 13c-21 0 -36 -16 -36 -37c0 -17 11 -27 24 -35zM98 133c0 -88 -2 -120 -66 -120v-13h197v13c-64 0 -65 27 -65 120v304h-10s-103 -17 -128 -19v-10c66 -2 72 -14 72 -97v-178z" />
    <glyph glyph-name="iacute" unicode="&#xed;" 
d="M210 589c13 8 24 18 24 35c0 21 -15 37 -36 37c-11 0 -21 -6 -28 -13l-157 -153h37zM98 133c0 -88 -2 -120 -66 -120v-13h197v13c-64 0 -65 27 -65 120v304h-10s-103 -17 -128 -19v-10c66 -2 72 -14 72 -97v-178z" />
    <glyph glyph-name="icircumflex" unicode="&#xee;" 
d="M218 495h40l-114 163h-46l-114 -163h40l97 92zM98 133c0 -88 -2 -120 -66 -120v-13h197v13c-64 0 -65 27 -65 120v304h-10s-103 -17 -128 -19v-10c66 -2 72 -14 72 -97v-178z" />
    <glyph glyph-name="idieresis" unicode="&#xef;" 
d="M-8 618c0 -24 18 -42 42 -42s43 18 43 42s-19 43 -43 43s-42 -19 -42 -43zM160 618c0 -24 18 -42 42 -42s43 18 43 42s-19 43 -43 43s-42 -19 -42 -43zM98 133c0 -88 -2 -120 -66 -120v-13h197v13c-64 0 -65 27 -65 120v304h-10s-103 -17 -128 -19v-10
c66 -2 72 -14 72 -97v-178z" />
    <glyph glyph-name="eth" unicode="&#xf0;" horiz-adv-x="505" 
d="M102 665c176 -12 259 -197 259 -257c-29 16 -62 26 -99 26c-125 0 -227 -103 -227 -224s102 -224 227 -224c114 0 204 95 204 243c0 217 -105 436 -364 436zM115 210c0 115 65 208 147 208c83 0 127 -93 127 -208s-61 -208 -127 -208c-82 0 -147 93 -147 208zM175 504
l16 -23l248 145l-12 26z" />
    <glyph glyph-name="ntilde" unicode="&#xf1;" horiz-adv-x="555" 
d="M426 642c0 -42 -38 -85 -84 -85c-58 0 -93 40 -147 40c-35 0 -47 -35 -47 -35h-20c0 53 48 84 82 84c55 0 99 -39 139 -39c45 0 62 19 62 37zM108 133c0 -88 -4 -120 -68 -120v-13h200v13c-64 0 -66 27 -66 120v124c0 50 2 80 17 103c19 29 57 58 103 58
c61 0 99 -29 99 -114v-171c0 -88 -4 -120 -68 -120v-13h200v13c-64 0 -66 27 -66 120v171c0 116 -58 130 -133 130c-83 0 -124 -29 -152 -66l-5 66l-7 3s-65 -12 -127 -19v-10c70 -3 73 -13 73 -101v-174z" />
    <glyph glyph-name="ograve" unicode="&#xf2;" horiz-adv-x="524" 
d="M307 495h37l-157 153c-7 7 -17 13 -28 13c-21 0 -36 -16 -36 -37c0 -17 11 -27 24 -35zM35 210c0 -121 102 -224 227 -224c124 0 227 103 227 224s-103 224 -227 224c-125 0 -227 -103 -227 -224zM115 210c0 115 65 208 147 208c83 0 147 -93 147 -208
s-64 -208 -147 -208c-82 0 -147 93 -147 208z" />
    <glyph glyph-name="oacute" unicode="&#xf3;" horiz-adv-x="524" 
d="M379 589c13 8 24 18 24 35c0 21 -15 37 -36 37c-11 0 -21 -6 -28 -13l-157 -153h37zM35 210c0 -121 102 -224 227 -224c124 0 227 103 227 224s-103 224 -227 224c-125 0 -227 -103 -227 -224zM115 210c0 115 65 208 147 208c83 0 147 -93 147 -208s-64 -208 -147 -208
c-82 0 -147 93 -147 208z" />
    <glyph glyph-name="ocircumflex" unicode="&#xf4;" horiz-adv-x="524" 
d="M359 495h40l-114 163h-46l-114 -163h40l97 92zM35 210c0 -121 102 -224 227 -224c124 0 227 103 227 224s-103 224 -227 224c-125 0 -227 -103 -227 -224zM115 210c0 115 65 208 147 208c83 0 147 -93 147 -208s-64 -208 -147 -208c-82 0 -147 93 -147 208z" />
    <glyph glyph-name="otilde" unicode="&#xf5;" horiz-adv-x="524" 
d="M411 642c0 -42 -38 -85 -84 -85c-58 0 -93 40 -147 40c-35 0 -47 -35 -47 -35h-20c0 53 48 84 82 84c55 0 99 -39 139 -39c45 0 62 19 62 37zM35 210c0 -121 102 -224 227 -224c124 0 227 103 227 224s-103 224 -227 224c-125 0 -227 -103 -227 -224zM115 210
c0 115 65 208 147 208c83 0 147 -93 147 -208s-64 -208 -147 -208c-82 0 -147 93 -147 208z" />
    <glyph glyph-name="odieresis" unicode="&#xf6;" horiz-adv-x="524" 
d="M136 618c0 -24 18 -42 42 -42s43 18 43 42s-19 43 -43 43s-42 -19 -42 -43zM304 618c0 -24 18 -42 42 -42s43 18 43 42s-19 43 -43 43s-42 -19 -42 -43zM35 210c0 -121 102 -224 227 -224c124 0 227 103 227 224s-103 224 -227 224c-125 0 -227 -103 -227 -224zM115 210
c0 115 65 208 147 208c83 0 147 -93 147 -208s-64 -208 -147 -208c-82 0 -147 93 -147 208z" />
    <glyph glyph-name="oslash" unicode="&#xf8;" horiz-adv-x="524" 
d="M90 -23l19 -14l326 488l-21 14zM35 210c0 -121 102 -224 227 -224c124 0 227 103 227 224s-103 224 -227 224c-125 0 -227 -103 -227 -224zM115 210c0 115 65 208 147 208c83 0 147 -93 147 -208s-64 -208 -147 -208c-82 0 -147 93 -147 208z" />
    <glyph glyph-name="ugrave" unicode="&#xf9;" horiz-adv-x="551" 
d="M324 495h37l-157 153c-7 7 -17 13 -28 13c-21 0 -36 -16 -36 -37c0 -17 11 -27 24 -35zM167 421h-137v-13c66 0 71 -27 71 -120v-169c0 -123 75 -133 150 -133c63 0 110 20 135 56l4 -52l7 -3s65 5 127 12v10c-70 3 -72 12 -72 100v312h-131v-13c64 0 65 -27 65 -120
v-133c0 -50 0 -86 -17 -108c-23 -30 -63 -45 -109 -45c-51 0 -93 32 -93 117v302z" />
    <glyph glyph-name="uacute" unicode="&#xfa;" horiz-adv-x="551" 
d="M396 589c13 8 24 18 24 35c0 21 -15 37 -36 37c-11 0 -21 -6 -28 -13l-157 -153h37zM167 421h-137v-13c66 0 71 -27 71 -120v-169c0 -123 75 -133 150 -133c63 0 110 20 135 56l4 -52l7 -3s65 5 127 12v10c-70 3 -72 12 -72 100v312h-131v-13c64 0 65 -27 65 -120v-133
c0 -50 0 -86 -17 -108c-23 -30 -63 -45 -109 -45c-51 0 -93 32 -93 117v302z" />
    <glyph glyph-name="ucircumflex" unicode="&#xfb;" horiz-adv-x="551" 
d="M376 495h40l-114 163h-46l-114 -163h40l97 92zM167 421h-137v-13c66 0 71 -27 71 -120v-169c0 -123 75 -133 150 -133c63 0 110 20 135 56l4 -52l7 -3s65 5 127 12v10c-70 3 -72 12 -72 100v312h-131v-13c64 0 65 -27 65 -120v-133c0 -50 0 -86 -17 -108
c-23 -30 -63 -45 -109 -45c-51 0 -93 32 -93 117v302z" />
    <glyph glyph-name="udieresis" unicode="&#xfc;" horiz-adv-x="551" 
d="M153 618c0 -24 18 -42 42 -42s43 18 43 42s-19 43 -43 43s-42 -19 -42 -43zM321 618c0 -24 18 -42 42 -42s43 18 43 42s-19 43 -43 43s-42 -19 -42 -43zM167 421h-137v-13c66 0 71 -27 71 -120v-169c0 -123 75 -133 150 -133c63 0 110 20 135 56l4 -52l7 -3s65 5 127 12
v10c-70 3 -72 12 -72 100v312h-131v-13c64 0 65 -27 65 -120v-133c0 -50 0 -86 -17 -108c-23 -30 -63 -45 -109 -45c-51 0 -93 32 -93 117v302z" />
    <glyph glyph-name="yacute" unicode="&#xfd;" horiz-adv-x="477" 
d="M386 589c13 8 24 18 24 35c0 21 -15 37 -36 37c-11 0 -21 -6 -28 -13l-157 -153h37zM272 74l-85 201c-9 22 -28 70 -28 93c0 25 26 45 57 45h7v8h-223v-8h8c47 0 60 -32 75 -68l143 -344c0 -44 -11 -66 -26 -97c-10 -21 -38 -48 -65 -48c-15 0 -21 8 -40 8
c-14 0 -35 -5 -35 -28c0 -16 16 -36 46 -36c58 0 95 70 112 111l151 362c18 43 59 140 103 140h5v8h-153v-8h5c29 0 51 -21 51 -55c0 -20 -16 -60 -26 -85z" />
    <glyph glyph-name="thorn" unicode="&#xfe;" horiz-adv-x="519" 
d="M88 -46c0 -88 -4 -145 -75 -145v-13h209v13c-62 0 -66 42 -66 206c25 -16 69 -29 114 -29c144 0 214 103 214 224s-90 224 -214 224c-64 0 -111 -37 -116 -42v299h-9s-105 -17 -130 -19v-10c71 -2 73 -18 73 -110v-598zM152 210c0 135 10 208 105 208
c100 0 147 -93 147 -208c0 -104 -42 -208 -147 -208c-102 0 -105 73 -105 208z" />
    <glyph glyph-name="ydieresis" unicode="&#xff;" horiz-adv-x="477" 
d="M143 618c0 -24 18 -42 42 -42s43 18 43 42s-19 43 -43 43s-42 -19 -42 -43zM311 618c0 -24 18 -42 42 -42s43 18 43 42s-19 43 -43 43s-42 -19 -42 -43zM272 74l-85 201c-9 22 -28 70 -28 93c0 25 26 45 57 45h7v8h-223v-8h8c47 0 60 -32 75 -68l143 -344
c0 -44 -11 -66 -26 -97c-10 -21 -38 -48 -65 -48c-15 0 -21 8 -40 8c-14 0 -35 -5 -35 -28c0 -16 16 -36 46 -36c58 0 95 70 112 111l151 362c18 43 59 140 103 140h5v8h-153v-8h5c29 0 51 -21 51 -55c0 -20 -16 -60 -26 -85z" />
    <glyph glyph-name="dotlessi" unicode="&#x131;" 
d="M98 133c0 -88 -2 -120 -66 -120v-13h197v13c-64 0 -65 27 -65 120v304h-10s-103 -17 -128 -19v-10c66 -2 72 -14 72 -97v-178z" />
    <glyph glyph-name="ij" unicode="&#x133;" horiz-adv-x="507" 
d="M344 649c0 -24 18 -42 42 -42s43 18 43 42s-19 43 -43 43s-42 -19 -42 -43zM367 -7c0 -114 -46 -183 -111 -183c-68 0 -44 84 -96 84c-15 0 -27 -9 -27 -31c0 -49 77 -67 109 -67c107 0 194 65 194 232v409h-10s-93 -16 -118 -18v-10c57 -2 59 -23 59 -98v-226
c-26 -27 -47 -50 -92 -50c-54 0 -100 60 -100 118v284h-10s-99 -14 -124 -16v-11c66 -2 69 -16 69 -99v-158c0 -88 56 -140 149 -140c59 0 108 51 108 51v-71zM99 649c0 -24 18 -42 42 -42s43 18 43 42s-19 43 -43 43s-42 -19 -42 -43z" />
    <glyph glyph-name="OE" unicode="&#x152;" horiz-adv-x="1096" 
d="M1052 181c-14 -103 -57 -169 -213 -169c-106 0 -157 54 -157 127v205h90c62 0 96 -46 96 -110v-10h9v252h-9v-11c0 -57 -18 -106 -79 -106l-107 -3v304h166c103 0 144 -51 162 -129h9l-12 145h-411c-105 0 -140 4 -248 4c-168 0 -324 -113 -324 -331
c0 -226 156 -354 330 -354c96 0 105 4 252 7h443l13 179h-10zM360 665c124 0 245 -72 245 -313c0 -244 -110 -340 -239 -340s-228 151 -228 337c0 178 96 316 222 316z" />
    <glyph glyph-name="oe" unicode="&#x153;" horiz-adv-x="796" 
d="M25 210c0 -121 102 -224 227 -224c68 0 135 36 172 85c23 -39 87 -85 174 -85c99 0 158 51 172 114h-11c-21 -50 -67 -87 -138 -87c-121 0 -153 81 -153 196c0 26 1 37 3 60h295c0 124 -102 165 -178 165c-92 0 -135 -35 -165 -79c-41 49 -101 79 -171 79
c-125 0 -227 -103 -227 -224zM103 210c0 115 67 208 149 208c83 0 147 -93 147 -208s-64 -208 -147 -208c-82 0 -149 93 -149 208zM588 418c79 0 102 -52 102 -133h-217c10 71 35 133 115 133z" />
    <glyph glyph-name="Scaron" unicode="&#x160;" horiz-adv-x="510" 
d="M360 887h40l-114 -163h-46l-114 163h40l97 -92zM381 143c0 -91 -52 -141 -119 -141c-162 0 -205 170 -206 196h-11l6 -208h12c0 4 1 31 30 31c35 0 80 -35 172 -35c145 0 215 97 215 206c1 235 -343 165 -343 360c0 102 81 122 116 122c109 0 171 -148 171 -185h11
l-6 189h-10c0 -13 -6 -33 -34 -33c-33 0 -72 46 -135 46c-96 0 -186 -77 -186 -185c0 -236 317 -153 317 -363z" />
    <glyph glyph-name="scaron" unicode="&#x161;" horiz-adv-x="371" 
d="M281 658h40l-114 -163h-46l-114 163h40l97 -92zM259 73c0 -48 -35 -71 -74 -71c-103 0 -130 114 -131 130h-7l8 -139h13c0 8 10 16 26 16c30 0 39 -23 96 -23c94 0 137 71 137 122c0 159 -218 124 -218 245c0 62 52 66 66 66c68 0 103 -89 103 -112h7l-8 125h-6
c0 -9 -1 -21 -17 -21c-17 0 -44 23 -81 23c-42 0 -111 -33 -111 -115c0 -152 197 -116 197 -246z" />
    <glyph glyph-name="Ydieresis" unicode="&#x178;" horiz-adv-x="650" 
d="M209 873c0 -24 18 -42 42 -42s43 18 43 42s-19 43 -43 43s-42 -19 -42 -43zM377 873c0 -24 18 -42 42 -42s43 18 43 42s-19 43 -43 43s-42 -19 -42 -43zM510 505c33 56 102 158 159 158h8v13h-221v-13h8c47 0 63 -23 63 -53c0 -37 -34 -99 -52 -130l-78 -135
c-10 -18 -22 -34 -22 -34l-17 29l-99 169c-19 32 -45 75 -45 106c0 28 19 48 76 48h12v13h-320v-13h12c68 0 106 -67 135 -117l113 -191c28 -47 39 -73 39 -131v-91c0 -82 -48 -120 -105 -120h-11v-13h334v13h-11c-56 0 -105 38 -105 120v91c0 55 11 84 38 130z" />
    <glyph glyph-name="Zcaron" unicode="&#x17d;" horiz-adv-x="704" 
d="M443 887h40l-114 -163h-46l-114 163h40l97 -92zM45 7v-7h599l10 211h-11c-22 -108 -107 -191 -220 -191h-248l432 645v11h-530l-17 -177h13c24 85 77 157 204 157h210z" />
    <glyph glyph-name="zcaron" unicode="&#x17e;" horiz-adv-x="468" 
d="M342 658h40l-114 -163h-46l-114 163h40l97 -92zM123 12l284 399v10h-335l-13 -122h11c21 81 47 110 136 110h109l-285 -399v-10h392l14 142h-11c-21 -102 -49 -130 -225 -130h-77z" />
    <glyph glyph-name="longs" unicode="&#x17f;" horiz-adv-x="284" 
d="M40 401h59v-268c0 -88 -4 -120 -68 -120v-13h200v13c-64 0 -66 27 -66 120v416c0 133 46 137 65 137s30 -1 52 -47c10 -21 14 -37 36 -37c21 0 31 14 31 31c0 49 -87 61 -119 61c-131 0 -131 -97 -131 -145v-128h-59v-20z" />
    <glyph glyph-name="circumflex" unicode="&#x2c6;" horiz-adv-x="345" 
d="M269 495h40l-114 163h-46l-114 -163h40l97 92z" />
    <glyph glyph-name="caron" unicode="&#x2c7;" horiz-adv-x="345" 
d="M269 658h40l-114 -163h-46l-114 163h40l97 -92z" />
    <glyph glyph-name="ring" unicode="&#x2da;" horiz-adv-x="334" 
d="M97 563c0 -41 33 -74 73 -74c41 0 74 33 74 74c0 40 -33 73 -74 73c-40 0 -73 -33 -73 -73zM124 563c0 26 21 46 47 46s46 -19 46 -46c0 -25 -20 -47 -46 -47c-27 0 -47 22 -47 47z" />
    <glyph glyph-name="tilde" unicode="&#x2dc;" horiz-adv-x="341" 
d="M316 642c0 -42 -38 -85 -84 -85c-58 0 -93 40 -147 40c-35 0 -47 -35 -47 -35h-20c0 53 48 84 82 84c55 0 99 -39 139 -39c45 0 62 19 62 37z" />
    <glyph glyph-name="quoteleft" unicode="&#x2018;" horiz-adv-x="225" 
d="M113 554c-16 0 -29 -5 -35 -14c0 68 55 120 94 142l-6 13c-65 -22 -126 -97 -126 -165c0 -55 33 -81 70 -81c34 0 57 26 57 56s-24 49 -54 49z" />
    <glyph glyph-name="quoteright" unicode="&#x2019;" horiz-adv-x="225" 
d="M112 589c16 0 29 5 35 14c0 -68 -55 -120 -94 -142l6 -13c65 22 126 97 126 165c0 55 -33 81 -70 81c-34 0 -57 -26 -57 -56s24 -49 54 -49z" />
    <glyph glyph-name="quotedblleft" unicode="&#x201c;" horiz-adv-x="407" 
d="M275 554c-16 0 -29 -5 -35 -14c0 68 55 120 94 142l-6 13c-65 -22 -126 -97 -126 -165c0 -55 33 -81 70 -81c34 0 57 26 57 56s-24 49 -54 49zM117 554c-16 0 -29 -5 -35 -14c0 68 55 120 94 142l-6 13c-65 -22 -126 -97 -126 -165c0 -55 33 -81 70 -81c34 0 57 26 57 56
s-24 49 -54 49z" />
    <glyph glyph-name="quotedblright" unicode="&#x201d;" horiz-adv-x="383" 
d="M112 589c16 0 29 5 35 14c0 -68 -55 -120 -94 -142l6 -13c65 22 126 97 126 165c0 55 -33 81 -70 81c-34 0 -57 -26 -57 -56s24 -49 54 -49zM270 589c16 0 29 5 35 14c0 -68 -55 -120 -94 -142l6 -13c65 22 126 97 126 165c0 55 -33 81 -70 81c-34 0 -57 -26 -57 -56
s24 -49 54 -49z" />
    <glyph glyph-name="bullet" unicode="&#x2022;" horiz-adv-x="293" 
d="M62 221c0 -49 38 -88 88 -88c49 0 88 39 88 88c0 50 -39 90 -88 90c-50 0 -88 -40 -88 -90z" />
    <glyph glyph-name="perthousand" unicode="&#x2030;" horiz-adv-x="748" 
d="M201 611c0 7 -15 15 5 8c86 -30 191 -7 191 -7l-354 -605l52 1l361 623h-51c-45 -16 -138 -20 -227 3c-12 3 8 -8 14 -14zM349 236c-72 0 -121 -61 -121 -122c0 -58 37 -124 105 -124c66 0 118 58 118 124c0 65 -42 122 -102 122zM349 227c23 0 44 -52 44 -113
c0 -56 -17 -113 -60 -113c-28 0 -48 55 -48 113c0 48 28 113 64 113zM599 236c-72 0 -121 -61 -121 -122c0 -58 37 -124 105 -124c66 0 118 58 118 124c0 65 -42 122 -102 122zM599 227c23 0 44 -52 44 -113c0 -56 -17 -113 -60 -113c-28 0 -48 55 -48 113
c0 48 28 113 64 113zM173 635c-72 0 -121 -61 -121 -122c0 -58 37 -124 105 -124c66 0 118 58 118 124c0 65 -42 122 -102 122zM173 626c23 0 44 -52 44 -113c0 -56 -17 -113 -60 -113c-28 0 -48 55 -48 113c0 48 28 113 64 113z" />
    <glyph glyph-name="interrobang" unicode="&#x203d;" horiz-adv-x="424" 
d="M75 38c0 -29 23 -52 52 -52s52 23 52 52s-23 53 -52 53s-52 -24 -52 -53zM114 131l30 1l4 154c15 -11 32 -17 63 -17c87 0 169 81 169 208c0 148 -91 217 -177 217c-60 0 -131 -42 -131 -76c0 -13 8 -23 18 -23c23 0 30 12 42 40s30 41 65 41c70 0 111 -75 111 -200
c0 -104 -28 -187 -98 -187c-30 0 -49 8 -61 27l5 144c1 33 -3 65 -41 65s-45 -33 -41 -65l40 -314v-14h2v-1z" />
    <glyph glyph-name="Euro" unicode="&#x20ac;" horiz-adv-x="703" 
d="M630 465c-42 167 -102 213 -214 213c-125 0 -207 -158 -207 -345c0 -186 72 -319 223 -319c130 0 206 81 206 179h13c0 -154 -137 -208 -235 -208c-213 0 -323 138 -323 363c0 183 129 343 311 343c118 0 164 -43 192 -43c14 0 25 17 27 27h11l5 -210h-9zM41 402
c-1 -1 78 0 78 0l-3 -21h-78s4 22 3 21zM203 402c-1 -1 283 0 283 0l-4 -21h-281s3 22 2 21zM19 329c-1 -1 94 0 94 0l-2 -21h-95s4 22 3 21zM194 329c-1 -1 273 0 273 0l-1 -21h-271s0 22 -1 21z" />
    <glyph glyph-name="ff" unicode="&#xfb00;" horiz-adv-x="552" 
d="M517 694c21 0 69 -2 101 -34c17 -17 8 -58 -23 -58c-22 0 -26 16 -36 37c-22 46 -31 47 -50 47s-67 -4 -67 -137v-128h128v-20h-128v-268c0 -93 2 -120 66 -120v-13h-200v13c64 0 68 32 68 120v268h-201v-268c0 -93 2 -120 66 -120v-13h-200v13c64 0 68 32 68 120v268
h-79v20h79v128c0 38 31 145 179 145c35 0 109 -8 120 -48c21 27 56 48 109 48zM376 549c0 12 2 32 9 54c-25 -6 -33 16 -42 36c-22 46 -37 47 -55 47c-19 0 -113 -4 -113 -137v-128h201v128z" />
    <glyph glyph-name="fi" unicode="&#xfb01;" horiz-adv-x="535" 
d="M305 401c55 0 66 -9 66 -93v-175c0 -88 -2 -120 -66 -120v-13h198v13c-64 0 -66 27 -66 120v304h-9c-24 -8 -58 -16 -90 -16h-163l1 128c0 110 72 137 113 137c35 0 52 -5 74 -51c10 -21 25 -39 47 -39c31 0 38 45 18 64c-33 31 -108 34 -139 34
c-181 0 -180 -107 -180 -145v-128h-79v-20h79v-268c0 -88 -4 -120 -68 -120v-13h200v13c-64 0 -66 27 -66 120v268h130z" />
    <glyph glyph-name="fl" unicode="&#xfb02;" horiz-adv-x="541" 
d="M379 133c0 -88 -4 -120 -68 -120v-13h200v13c-64 0 -66 27 -66 120l1 558h-10l-33 -31c-33 31 -92 34 -123 34c-151 0 -171 -107 -171 -145v-128h-79v-20h79v-268c0 -88 -4 -120 -68 -120v-13h200v13c-64 0 -66 27 -66 120v268h122v20h-122l1 128c0 110 63 137 104 137
c35 0 38 -4 60 -50c9 -19 21 -37 39 -40v-463z" />
    <glyph glyph-name="ffi" unicode="&#xfb03;" horiz-adv-x="802" 
d="M408 647c-12 39 -85 47 -120 47c-148 0 -179 -107 -179 -145v-128h-79v-20h79v-268c0 -88 -4 -120 -68 -120v-13h200v13c-64 0 -66 27 -66 120v268h201v-268c0 -88 -4 -120 -68 -120v-13h200v13c-64 0 -66 27 -66 120v268h130c55 0 66 -9 66 -93v-175
c0 -88 -2 -120 -66 -120v-13h198v13c-64 0 -66 27 -66 120v304h-9c-24 -8 -58 -16 -90 -16h-163l1 128c0 110 72 137 113 137c35 0 52 -5 74 -51c10 -21 25 -39 47 -39c31 0 38 45 18 64c-33 31 -108 34 -139 34c-79 0 -123 -21 -148 -47zM382 602c-6 -21 -6 -41 -6 -53
v-128h-201v128c0 133 94 137 113 137c18 0 33 -1 55 -47c9 -19 16 -41 39 -37z" />
    <glyph glyph-name="ffl" unicode="&#xfb04;" horiz-adv-x="808" 
d="M376 549c0 12 2 32 9 54c-25 -6 -33 16 -42 36c-22 46 -37 47 -55 47c-19 0 -113 -4 -113 -137v-128h201v128zM408 646c25 28 69 48 139 48c31 0 90 -3 123 -34l33 31h10l-1 -558c0 -93 2 -120 66 -120v-13h-200v13c64 0 68 32 68 120v463c-18 3 -30 21 -39 40
c-22 46 -25 50 -60 50c-41 0 -105 -27 -105 -137v-128h128v-20h-128v-268c0 -93 2 -120 66 -120v-13h-200v13c64 0 68 32 68 120v268h-201v-268c0 -93 2 -120 66 -120v-13h-200v13c64 0 68 32 68 120v268h-79v20h79v128c0 38 31 145 179 145c35 0 109 -8 120 -48z" />
    <glyph glyph-name="longs_t" unicode="&#xfb05;" horiz-adv-x="560" 
d="M333 88c-2 -71 39 -102 104 -102c92 0 102 45 110 56l-8 5c-7 -12 -23 -40 -71 -40c-47 0 -60 34 -60 127v271h117v16h-116v124c0 101 -72 149 -169 149c-121 0 -151 -87 -151 -145v-128h-59v-20h59v-268c0 -88 -4 -120 -68 -120v-13h200v13c-64 0 -66 27 -66 120v416
c0 113 46 132 85 132c82 0 108 -73 108 -136c0 -102 -10 -114 -67 -126v-14h60z" />
    <glyph glyph-name=".null" horiz-adv-x="0" 
 />
    <glyph glyph-name="CR" horiz-adv-x="274" 
 />
    <glyph glyph-name="c_t" horiz-adv-x="499" 
d="M483 419c85 12 110 76 110 129c0 101 -107 132 -201 132c-127 0 -198 -59 -198 -132c0 -72 81 -111 132 -124c44 -11 72 -34 72 -67c0 -22 -14 -37 -36 -37s-38 14 -42 34c-10 51 -19 64 -75 64c-82 0 -130 -93 -130 -208s41 -197 162 -197c88 0 111 38 124 87h11
c-9 -63 -47 -114 -158 -114c-145 0 -219 93 -219 224c0 124 86 224 220 224c-28 15 -77 53 -77 114c0 83 77 146 214 146c93 0 218 -24 218 -155v-118h117v-16h-117v-271c0 -93 13 -127 60 -127c48 0 64 28 71 40l8 -5c-8 -11 -18 -56 -110 -56c-65 0 -106 31 -104 102
l8 317h-60v14z" />
    <glyph glyph-name="dotlessiacute" 
d="M239 589c13 8 24 18 24 35c0 21 -15 37 -36 37c-11 0 -21 -6 -28 -13l-157 -153h37zM98 133c0 -88 -2 -120 -66 -120v-13h197v13c-64 0 -65 27 -65 120v304h-10s-103 -17 -128 -19v-10c66 -2 72 -14 72 -97v-178z" />
    <glyph glyph-name="dotlessicircumflex" 
d="M219 495h40l-114 163h-46l-114 -163h40l97 92zM98 133c0 -88 -2 -120 -66 -120v-13h197v13c-64 0 -65 27 -65 120v304h-10s-103 -17 -128 -19v-10c66 -2 72 -14 72 -97v-178z" />
    <glyph glyph-name="dotlessidieresis" 
d="M-4 618c0 -24 18 -42 42 -42s43 18 43 42s-19 43 -43 43s-42 -19 -42 -43zM164 618c0 -24 18 -42 42 -42s43 18 43 42s-19 43 -43 43s-42 -19 -42 -43zM98 133c0 -88 -2 -120 -66 -120v-13h197v13c-64 0 -65 27 -65 120v304h-10s-103 -17 -128 -19v-10
c66 -2 72 -14 72 -97v-178z" />
    <glyph glyph-name="dotlessigrave" 
d="M167 495h37l-157 153c-7 7 -17 13 -28 13c-21 0 -36 -16 -36 -37c0 -17 11 -27 24 -35zM98 133c0 -88 -2 -120 -66 -120v-13h197v13c-64 0 -65 27 -65 120v304h-10s-103 -17 -128 -19v-10c66 -2 72 -14 72 -97v-178z" />
    <glyph glyph-name="f_f_j" horiz-adv-x="783" 
d="M582 401c62 2 65 -21 65 -90v-344c0 -104 -7 -146 -69 -146c-71 0 -36 87 -88 87c-15 0 -27 -9 -27 -31c0 -49 74 -67 106 -67c70 0 144 33 144 192v435h-10c-20 -6 -43 -16 -99 -16h-162l1 128c0 110 72 137 113 137c35 0 52 -5 74 -51c10 -21 25 -39 47 -39
c31 0 38 45 18 64c-33 31 -108 34 -139 34c-79 0 -123 -21 -148 -47c-12 39 -85 47 -120 47c-148 0 -179 -107 -179 -145v-128h-79v-20h79v-268c0 -88 -4 -120 -68 -120v-13h200v13c-64 0 -66 27 -66 120v268h201v0v-268c0 -88 -4 -120 -68 -120v-13h200v13
c-64 0 -66 27 -66 120v268h140zM382 602c-6 -21 -6 -41 -6 -53v-128v0h-201v128c0 133 94 137 113 137c18 0 33 -1 55 -47c9 -19 16 -41 39 -37z" />
    <glyph glyph-name="f_j" horiz-adv-x="510" 
d="M370 -33c0 -104 -7 -146 -69 -146c-71 0 -36 87 -88 87c-15 0 -27 -9 -27 -31c0 -49 74 -67 106 -67c70 0 144 33 144 192v435h-10c-20 -6 -43 -16 -99 -16h-152l1 128c0 110 72 137 113 137c35 0 52 -5 74 -51c10 -21 25 -39 47 -39c31 0 38 45 18 64
c-33 31 -108 34 -139 34c-181 0 -180 -107 -180 -145v-128h-79v-20h79v-268c0 -88 -4 -120 -68 -120v-13h200v13c-64 0 -66 27 -66 120v268h130c62 2 65 -21 65 -90v-344z" />
    <glyph glyph-name="g_i" horiz-adv-x="706" 
d="M505 641c30 0 20 -36 63 -36c22 0 42 17 42 43c0 27 -25 43 -54 43c-62 0 -123 -39 -161 -83c-85 -82 -103 -203 -103 -203c-26 18 -54 29 -87 29c-79 0 -152 -69 -152 -148c0 -59 41 -107 90 -125c-76 -12 -89 -56 -89 -79c0 -41 41 -75 102 -75h73
c123 0 123 -67 123 -84c0 -9 -9 -109 -146 -109c-121 0 -152 62 -152 95c0 51 25 61 40 61c28 0 39 -15 39 -25c6 3 11 6 11 20c0 16 -19 32 -53 32c-20 0 -66 -14 -66 -81c0 -92 103 -116 181 -116c54 0 210 23 210 146c0 75 -63 124 -151 124h-92c-33 0 -83 2 -83 37
c0 29 55 44 79 44c6 0 19 -2 36 -2c79 0 153 58 153 137c0 45 -22 82 -56 112c0 0 21 106 105 187c24 27 62 56 98 56zM128 291c0 75 19 127 78 127s82 -52 82 -127s-23 -126 -82 -126s-78 51 -78 126zM540 133c0 -88 -2 -120 -66 -120v-13h197v13c-64 0 -65 27 -65 120v304
h-10s-103 -17 -128 -19v-10c66 -2 72 -14 72 -97v-178z" />
    <glyph glyph-name="s_t" horiz-adv-x="674" 
d="M259 73c0 -48 -35 -75 -74 -75c-103 0 -130 118 -131 134h-7v-139h21c0 8 10 16 26 16c30 0 39 -23 96 -23c94 0 137 71 137 122c0 159 -218 124 -218 245c0 62 52 70 66 70c68 0 103 -93 103 -116h7l-8 125h-6c0 -9 -1 -21 -17 -21c-8 0 -129 30 -129 137
c0 73 73 132 200 132c94 0 203 -31 203 -132c0 -53 -25 -117 -110 -129v-14h60l-8 -317c0 -71 37 -102 104 -102c92 0 102 45 110 56l-8 5c-7 -12 -23 -40 -71 -40c-47 0 -60 34 -60 127v271h117v16h-117v118c0 131 -127 155 -220 155c-137 0 -216 -63 -216 -146
c0 -61 49 -107 64 -114c-42 0 -111 -33 -111 -115c0 -152 197 -116 197 -246z" />
    </font>
</defs>
</svg>
